<svg width="32" height="58" viewBox="0 0 32 58" fill="none" xmlns="http://www.w3.org/2000/svg">
<path d="M18.1482 4.8541H13.8535C13.6424 4.8541 13.4714 5.02629 13.4714 5.23751C13.4714 5.44873 13.6423 5.62091 13.8535 5.62091H18.1482C18.3593 5.62091 18.5303 5.44873 18.5303 5.23751C18.5303 5.02497 18.3593 4.8541 18.1482 4.8541Z" fill="#474747"/>
<path d="M16.0002 52.3915C16.6221 52.3915 17.1263 51.8873 17.1263 51.2653C17.1263 50.6433 16.6221 50.1391 16.0002 50.1391C15.3782 50.1391 14.874 50.6433 14.874 51.2653C14.874 51.8873 15.3782 52.3915 16.0002 52.3915Z" fill="#474747"/>
<path fill-rule="evenodd" clip-rule="evenodd" d="M26.9968 57.5496H28.0949C30.2479 57.5496 32 55.7988 32 53.6471V3.90632C32 1.75337 30.2479 0 28.0949 0H3.90513C1.75219 0 0 1.75337 0 3.90632V53.6456C0 55.7987 1.75088 57.5481 3.90513 57.5481H4.02795L4 57.5H27L26.9968 57.5496ZM1.52717 53.6456C1.52717 54.9566 2.59549 56.0224 3.90513 56.0224H28.0949C29.4071 56.0224 30.4728 54.9566 30.4728 53.6456V3.90632C30.4728 2.59536 29.407 1.52704 28.0949 1.52704H3.90513C2.59549 1.52704 1.52717 2.59536 1.52717 3.90632V53.6456Z" fill="#474747"/>
</svg>
