<svg width="32" height="71" viewBox="0 0 32 71" fill="none" xmlns="http://www.w3.org/2000/svg">
<path d="M18.1481 4.8541H13.8534C13.6423 4.8541 13.4713 5.02628 13.4713 5.2375C13.4713 5.44872 13.6422 5.6209 13.8534 5.6209H18.1481C18.3592 5.6209 18.5302 5.44872 18.5302 5.2375C18.5302 5.02496 18.3592 4.8541 18.1481 4.8541Z" fill="#474747"/>
<path d="M16.0001 52.3915C16.622 52.3915 17.1262 51.8873 17.1262 51.2653C17.1262 50.6433 16.622 50.1391 16.0001 50.1391C15.3781 50.1391 14.8739 50.6433 14.8739 51.2653C14.8739 51.8873 15.3781 52.3915 16.0001 52.3915Z" fill="#474747"/>
<path d="M17.5711 69.4257V61.5702C17.5711 60.8765 18.1341 60.3134 18.8279 60.3134H21.9701C23.3579 60.3134 24.4839 59.5405 24.4839 58.5853C24.4839 58.4043 24.4839 58.2296 24.4839 58.0663C24.4839 57.7796 25.047 57.5496 25.7407 57.5496H28.0949C30.2479 57.5496 32 55.7988 32 53.6471V3.90632C32 1.75337 30.2479 0 28.0949 0H3.90513C1.75219 0 0 1.75337 0 3.90632V53.6456C0 55.7987 1.75088 57.5481 3.90513 57.5481H8.14452C8.83824 57.5481 9.40132 57.7795 9.40132 58.066V58.5837C9.40132 59.539 10.5275 60.3119 11.9151 60.3119H15.0572C15.7511 60.3119 16.314 60.8749 16.314 61.5687V69.4242C16.314 70.1179 16.5957 70.681 16.9424 70.681C17.2895 70.6827 17.5711 70.1195 17.5711 69.4257ZM3.90513 56.0224C2.59549 56.0224 1.52717 54.9566 1.52717 53.6456V3.90632C1.52717 2.59536 2.59549 1.52704 3.90513 1.52704H28.0949C29.407 1.52704 30.4728 2.59536 30.4728 3.90632V53.6456C30.4728 54.9566 29.4071 56.0224 28.0949 56.0224H3.90513Z" fill="#474747"/>
</svg>
