<svg width="41" height="58" viewBox="0 0 41 58" fill="none" xmlns="http://www.w3.org/2000/svg">
<path d="M19.1482 4.8541H14.8535C14.6424 4.8541 14.4714 5.02628 14.4714 5.2375C14.4714 5.44872 14.6423 5.6209 14.8535 5.6209H19.1482C19.3593 5.6209 19.5303 5.44872 19.5303 5.2375C19.5303 5.02496 19.3593 4.8541 19.1482 4.8541Z" fill="#474747"/>
<path d="M17.0002 52.3915C17.6221 52.3915 18.1263 51.8873 18.1263 51.2653C18.1263 50.6433 17.6221 50.1391 17.0002 50.1391C16.3782 50.1391 15.874 50.6433 15.874 51.2653C15.874 51.8873 16.3782 52.3915 17.0002 52.3915Z" fill="#474747"/>
<path fill-rule="evenodd" clip-rule="evenodd" d="M27.9968 57.5496H29.0949C31.2479 57.5496 33 55.7988 33 53.6471V3.90632C33 1.75337 31.2479 0 29.0949 0H4.90513C2.75219 0 1 1.75337 1 3.90632V53.6456C1 55.7987 2.75088 57.5481 4.90513 57.5481H5.02795L5 57.5H28L27.9968 57.5496ZM2.52717 53.6456C2.52717 54.9566 3.59549 56.0224 4.90513 56.0224H29.0949C30.4071 56.0224 31.4728 54.9566 31.4728 53.6456V3.90632C31.4728 2.59536 30.407 1.52704 29.0949 1.52704H4.90513C3.59549 1.52704 2.52717 2.59536 2.52717 3.90632V53.6456Z" fill="#474747"/>
<path d="M15.5 28V13.5L16 12.5H23L24 10.5H32L33 12.5H39L40 13L40.5 13.5V27V28.5L39 29H16.5L15.5 28Z" fill="white"/>
<path d="M40.525 12.6076C40.2223 12.3039 39.8113 12.133 39.3825 12.1326H33.2375L33.0225 11.0251C32.9748 10.7562 32.8487 10.5075 32.66 10.3101C32.4633 10.108 32.192 9.99587 31.91 10.0001H24.0825C23.8198 9.99805 23.5663 10.0974 23.375 10.2776L23.34 10.3076C23.1513 10.505 23.0252 10.7537 22.9775 11.0226L22.7625 12.1301H16.61C15.7204 12.1383 15.0027 12.8604 15 13.7501V27.8026C15.0004 28.2315 15.1713 28.6425 15.475 28.9451H15.465C15.7677 29.2489 16.1787 29.4198 16.6075 29.4201H39.3875C40.2772 29.4133 40.996 28.6923 41 27.8026V13.7501C40.9997 13.3213 40.8288 12.9103 40.525 12.6076ZM40.055 27.8026C40.0537 28.1721 39.7545 28.4713 39.385 28.4726H16.61C16.4329 28.4729 16.2629 28.4028 16.1375 28.2776C16.0124 28.1523 15.9423 27.9823 15.9425 27.8051L15.94 13.7501C15.9414 13.3807 16.2406 13.0815 16.61 13.0801H23.1525C23.3904 13.0797 23.5912 12.9034 23.6225 12.6676L23.91 11.2101C23.9221 11.1277 23.9578 11.0504 24.0125 10.9876C24.0298 10.9745 24.0508 10.9674 24.0725 10.9676H31.9175C31.9439 10.968 31.9691 10.9788 31.9875 10.9976C32.0423 11.0604 32.0779 11.1377 32.09 11.2201L32.38 12.7201C32.423 12.9431 32.6179 13.1044 32.845 13.1051H39.3875C39.5647 13.1049 39.7347 13.175 39.86 13.3001C39.9852 13.4255 40.0553 13.5955 40.055 13.7726V27.8026Z" fill="#474747"/>
<path d="M28.0002 16.3126C25.6668 16.3126 23.7752 18.2042 23.7751 20.5376C23.7751 21.6581 24.2203 22.7328 25.0126 23.5251C25.804 24.3189 26.8792 24.7643 28.0001 24.7626C30.3335 24.7626 32.2251 22.8711 32.2252 20.5377C32.2252 18.2043 30.3336 16.3126 28.0002 16.3126ZM30.3151 22.8558C29.0357 24.1343 26.9621 24.1336 25.6835 22.8542C25.0695 22.2397 24.7246 21.4064 24.7251 20.5376C24.7244 19.669 25.0699 18.8359 25.6851 18.2226C26.9645 16.9441 29.0381 16.9447 30.3167 18.2242C31.5952 19.5036 31.5945 21.5772 30.3151 22.8558Z" fill="#474747"/>
<path d="M27.9976 14.4351C24.6259 14.4358 21.8931 17.1696 21.8938 20.5414C21.8941 22.1604 22.5376 23.713 23.6826 24.8576C24.8266 26.0041 26.3804 26.6474 28.0001 26.6451C31.3717 26.6444 34.1045 23.9106 34.1038 20.5389C34.1031 17.1672 31.3692 14.4344 27.9976 14.4351ZM31.67 24.1677C29.6617 26.1877 26.3962 26.1972 24.3762 24.1889C23.4047 23.2229 22.8574 21.9101 22.8551 20.5401C22.8502 19.1732 23.3899 17.8606 24.3551 16.8926V16.8951C26.3633 14.8751 29.6289 14.8656 31.6488 16.8739C33.6688 18.8822 33.6783 22.1477 31.67 24.1677Z" fill="#474747"/>
<path d="M20.425 14.5901C20.1475 14.3118 19.7706 14.1553 19.3775 14.1551H18.5675C17.7508 14.1633 17.0906 14.8234 17.0825 15.6401C17.0833 16.0323 17.2398 16.4082 17.5175 16.6851V16.6876C17.7951 16.966 18.172 17.1225 18.565 17.1226H19.375C20.1918 17.1145 20.8519 16.4544 20.86 15.6376C20.8599 15.2446 20.7034 14.8677 20.425 14.5901ZM19.375 16.1751H18.5675C18.4261 16.1756 18.2903 16.1199 18.19 16.0201C18.0903 15.9199 18.0345 15.7841 18.035 15.6426L18.0325 15.6401C18.0339 15.3453 18.2726 15.1065 18.5675 15.1051H19.375C19.6705 15.1051 19.91 15.3446 19.91 15.6401C19.9086 15.935 19.6699 16.1738 19.375 16.1751Z" fill="#474747"/>
</svg>
