<svg width="26" height="20" viewBox="0 0 26 20" fill="none" xmlns="http://www.w3.org/2000/svg">
<path d="M0.5 18V3.5L1 2.5H8L9 0.5H17L18 2.5H24L25 3L25.5 3.5V17V18.5L24 19H1.5L0.5 18Z" fill="white"/>
<path d="M25.525 2.60762C25.2223 2.30387 24.8113 2.13299 24.3825 2.13262H18.2375L18.0225 1.02512C17.9748 0.756243 17.8487 0.507492 17.66 0.310117C17.4633 0.107992 17.192 -0.00413344 16.91 0.000116568H9.08251C8.81976 -0.00194593 8.56632 0.0974294 8.37501 0.277617L8.34001 0.307617C8.15132 0.504992 8.0252 0.753743 7.97751 1.02262L7.76251 2.13012H1.61C0.720376 2.13831 0.0026875 2.86043 0 3.75012V17.8026C0.000375 18.2315 0.17125 18.6425 0.475001 18.9451H0.465001C0.767689 19.2489 1.17869 19.4198 1.6075 19.4201H24.3875C25.2772 19.4133 25.996 18.6923 26 17.8026V3.75012C25.9997 3.32131 25.8288 2.91031 25.525 2.60762ZM25.055 17.8026C25.0537 18.1721 24.7545 18.4713 24.385 18.4726H1.61C1.43288 18.4729 1.26288 18.4028 1.1375 18.2776C1.01238 18.1523 0.942251 17.9823 0.942501 17.8051L0.940001 3.75012C0.941376 3.38068 1.24056 3.0815 1.61 3.08012H8.15251C8.39039 3.07968 8.5912 2.90337 8.62251 2.66762L8.91001 1.21012C8.92214 1.12768 8.95776 1.05043 9.01251 0.987618C9.02976 0.974493 9.05082 0.967431 9.07251 0.967618H16.9175C16.9439 0.967993 16.9691 0.978805 16.9875 0.997618C17.0423 1.06043 17.0779 1.13768 17.09 1.22012L17.38 2.72012C17.423 2.94312 17.6179 3.10443 17.845 3.10512H24.3875C24.5647 3.10487 24.7347 3.175 24.86 3.30012C24.9852 3.4255 25.0553 3.5955 25.055 3.77262V17.8026Z" fill="#474747"/>
<path d="M13.0002 6.31262C10.6668 6.31262 8.77521 8.20419 8.77515 10.5376C8.77515 11.6581 9.22027 12.7328 10.0126 13.5251C10.804 14.3189 11.8792 14.7643 13.0001 14.7626C15.3335 14.7626 17.2251 12.8711 17.2252 10.5377C17.2252 8.20425 15.3336 6.31262 13.0002 6.31262ZM15.3151 12.8558C14.0357 14.1343 11.9621 14.1336 10.6835 12.8542C10.0695 12.2397 9.72465 11.4064 9.72509 10.5376C9.7244 9.669 10.0699 8.83588 10.6851 8.22263C11.9645 6.94406 14.0381 6.94475 15.3167 8.22419C16.5952 9.50357 16.5945 11.5772 15.3151 12.8558Z" fill="#474747"/>
<path d="M12.9976 4.43512C9.62586 4.43581 6.89311 7.16962 6.8938 10.5414C6.89411 12.1604 7.53755 13.713 8.68255 14.8576C9.82662 16.0041 11.3804 16.6474 13.0001 16.6451C16.3717 16.6444 19.1045 13.9106 19.1038 10.5389C19.1031 7.16719 16.3692 4.43443 12.9976 4.43512ZM16.67 14.1677C14.6617 16.1877 11.3962 16.1972 9.37624 14.1889C8.40468 13.2229 7.85736 11.9101 7.85505 10.5401C7.85018 9.17319 8.38993 7.86062 9.35505 6.89262V6.89512C11.3633 4.87512 14.6289 4.86562 16.6488 6.87393C18.6688 8.88219 18.6783 12.1477 16.67 14.1677Z" fill="#474747"/>
<path d="M5.42502 4.59014C5.14746 4.31176 4.77059 4.15526 4.37752 4.15514H3.56752C2.75077 4.16326 2.09064 4.82339 2.08252 5.64014C2.08333 6.03232 2.23977 6.4082 2.51752 6.68514V6.68764C2.79508 6.96601 3.17196 7.12251 3.56502 7.12264H4.37502C5.19177 7.11451 5.8519 6.45439 5.86003 5.63764C5.8599 5.24457 5.7034 4.8677 5.42502 4.59014ZM4.37502 6.17514H3.56752C3.42608 6.17564 3.29027 6.11989 3.19002 6.02014C3.09027 5.91989 3.03452 5.78407 3.03502 5.64264L3.03252 5.64014C3.0339 5.34526 3.27265 5.10651 3.56752 5.10514H4.37502C4.67052 5.10514 4.91002 5.34464 4.91002 5.64014C4.90865 5.93501 4.6699 6.17376 4.37502 6.17514Z" fill="#474747"/>
</svg>
