<svg width="33" height="58" viewBox="0 0 33 58" fill="none" xmlns="http://www.w3.org/2000/svg">
<path d="M2 39L7.5 45L17.5 38.5L23 42.5" stroke="#474747"/>
<path d="M19.1482 4.8541H14.8535C14.6424 4.8541 14.4714 5.02629 14.4714 5.23751C14.4714 5.44873 14.6423 5.62091 14.8535 5.62091H19.1482C19.3593 5.62091 19.5303 5.44873 19.5303 5.23751C19.5303 5.02497 19.3593 4.8541 19.1482 4.8541Z" fill="#474747"/>
<path d="M17.0002 52.3915C17.6221 52.3915 18.1263 51.8873 18.1263 51.2653C18.1263 50.6433 17.6221 50.1391 17.0002 50.1391C16.3782 50.1391 15.874 50.6433 15.874 51.2653C15.874 51.8873 16.3782 52.3915 17.0002 52.3915Z" fill="#474747"/>
<path fill-rule="evenodd" clip-rule="evenodd" d="M27.9968 57.5496H29.0949C31.2479 57.5496 33 55.7988 33 53.6471V3.90632C33 1.75337 31.2479 0 29.0949 0H4.90513C2.75219 0 1 1.75337 1 3.90632V53.6456C1 55.7987 2.75088 57.5481 4.90513 57.5481H5.02795L5 57.5H28L27.9968 57.5496ZM2.52717 53.6456C2.52717 54.9566 3.59549 56.0224 4.90513 56.0224H29.0949C30.4071 56.0224 31.4728 54.9566 31.4728 53.6456V3.90632C31.4728 2.59536 30.407 1.52704 29.0949 1.52704H4.90513C3.59549 1.52704 2.52717 2.59536 2.52717 3.90632V53.6456Z" fill="#474747"/>
<path d="M32 11L26 18L17 15L14 26" stroke="#474747"/>
</svg>
