<svg width="60" height="39" viewBox="0 0 60 39" fill="none" xmlns="http://www.w3.org/2000/svg">
<path d="M5.73308 34.8405H54.2669C55.2711 34.8405 56.0869 34.0241 56.0869 33.0205V1.82003C56.0869 0.816411 55.2711 0 54.2669 0H5.73308C4.72947 0 3.91305 0.816411 3.91305 1.82003V33.0205C3.91305 34.0241 4.72999 34.8405 5.73308 34.8405ZM5.47308 1.82003C5.47308 1.6765 5.58956 1.56002 5.73308 1.56002H54.2669C54.4104 1.56002 54.5269 1.6765 54.5269 1.82003V33.0205C54.5269 33.164 54.4104 33.2805 54.2669 33.2805H5.73308C5.58956 33.2805 5.47308 33.164 5.47308 33.0205V1.82003ZM60 36.2331V37.6896C60 38.0755 59.687 38.3885 59.3011 38.3885H0.69889C0.313044 38.3885 0 38.0755 0 37.6896V36.2331H24.6416C24.7633 36.6392 25.1356 36.9372 25.5812 36.9372H34.4193C34.8644 36.9372 35.2367 36.6397 35.3589 36.2331H60Z" fill="white"/>
</svg>
