<svg width="50" height="25" viewBox="0 0 50 25" fill="none" xmlns="http://www.w3.org/2000/svg">
<path d="M46.5983 0H3.40173C1.52603 0 0 1.52603 0 3.40173V20.6803C0 22.556 1.52603 24.0821 3.40173 24.0821H46.5983C48.474 24.0821 50 22.556 50 20.6803V3.40173C50 1.52603 48.474 0 46.5983 0ZM48.3801 20.6803C48.3801 21.663 47.5808 22.4622 46.5983 22.4622H3.40173C2.41922 22.4622 1.61987 21.663 1.61987 20.6803V3.40173C1.61987 2.41911 2.41922 1.61987 3.40173 1.61987H46.5983C47.5808 1.61987 48.3801 2.41911 48.3801 3.40173V20.6803Z" fill="#474747"/>
<path d="M35.3672 17.2786H14.6328C14.1855 17.2786 13.8229 17.6412 13.8229 18.0886C13.8229 18.536 14.1855 18.8985 14.6328 18.8985H35.3672C35.8145 18.8985 36.1771 18.536 36.1771 18.0886C36.1771 17.6412 35.8145 17.2786 35.3672 17.2786Z" fill="#474747"/>
<path d="M11.1771 17.2786H9.44922C9.00192 17.2786 8.63928 17.6412 8.63928 18.0886C8.63928 18.536 9.00192 18.8985 9.44922 18.8985H11.1771C11.6244 18.8985 11.987 18.536 11.987 18.0886C11.987 17.6412 11.6244 17.2786 11.1771 17.2786Z" fill="#474747"/>
<path d="M5.99354 17.2786H4.26568C3.81838 17.2786 3.45575 17.6412 3.45575 18.0886C3.45575 18.536 3.81838 18.8985 4.26568 18.8985H5.99354C6.44084 18.8985 6.80348 18.536 6.80348 18.0886C6.80348 17.6412 6.44084 17.2786 5.99354 17.2786Z" fill="#474747"/>
<path d="M45.7343 17.2786H44.0065C43.5592 17.2786 43.1965 17.6412 43.1965 18.0886C43.1965 18.536 43.5592 18.8985 44.0065 18.8985H45.7343C46.1816 18.8985 46.5443 18.536 46.5443 18.0886C46.5443 17.6412 46.1816 17.2786 45.7343 17.2786Z" fill="#474747"/>
<path d="M40.5507 17.2786H38.8229C38.3756 17.2786 38.0129 17.6412 38.0129 18.0886C38.0129 18.536 38.3756 18.8985 38.8229 18.8985H40.5507C40.998 18.8985 41.3607 18.536 41.3607 18.0886C41.3607 17.6412 40.998 17.2786 40.5507 17.2786Z" fill="#474747"/>
<path d="M45.7343 13.8229H42.2786C41.8313 13.8229 41.4687 14.1854 41.4687 14.6328C41.4687 15.0802 41.8313 15.4428 42.2786 15.4428H45.7343C46.1816 15.4428 46.5443 15.0802 46.5443 14.6328C46.5443 14.1854 46.1816 13.8229 45.7343 13.8229Z" fill="#474747"/>
<path d="M39.6328 14.6328C39.6328 14.1854 39.2702 13.8229 38.8229 13.8229H37.095C36.6477 13.8229 36.2851 14.1854 36.2851 14.6328C36.2851 15.0802 36.6477 15.4428 37.095 15.4428H38.8229C39.2702 15.4428 39.6328 15.0802 39.6328 14.6328Z" fill="#474747"/>
<path d="M31.9114 15.4428H33.6393C34.0866 15.4428 34.4492 15.0802 34.4492 14.6328C34.4492 14.1854 34.0866 13.8229 33.6393 13.8229H31.9114C31.4641 13.8229 31.1015 14.1854 31.1015 14.6328C31.1015 15.0802 31.4641 15.4428 31.9114 15.4428Z" fill="#474747"/>
<path d="M26.7278 15.4428H28.4557C28.903 15.4428 29.2656 15.0802 29.2656 14.6328C29.2656 14.1854 28.903 13.8229 28.4557 13.8229H26.7278C26.2805 13.8229 25.9179 14.1854 25.9179 14.6328C25.9179 15.0802 26.2805 15.4428 26.7278 15.4428Z" fill="#474747"/>
<path d="M21.5442 15.4428H23.2721C23.7194 15.4428 24.082 15.0802 24.082 14.6328C24.082 14.1854 23.7194 13.8229 23.2721 13.8229H21.5442C21.0969 13.8229 20.7343 14.1854 20.7343 14.6328C20.7343 15.0802 21.0969 15.4428 21.5442 15.4428Z" fill="#474747"/>
<path d="M16.3607 15.4428H18.0886C18.5359 15.4428 18.8985 15.0802 18.8985 14.6328C18.8985 14.1854 18.5359 13.8229 18.0886 13.8229H16.3607C15.9134 13.8229 15.5508 14.1854 15.5508 14.6328C15.5508 15.0802 15.9134 15.4428 16.3607 15.4428Z" fill="#474747"/>
<path d="M12.905 13.8229H11.1771C10.7298 13.8229 10.3672 14.1854 10.3672 14.6328C10.3672 15.0802 10.7298 15.4428 11.1771 15.4428H12.905C13.3523 15.4428 13.7149 15.0802 13.7149 14.6328C13.7149 14.1854 13.3523 13.8229 12.905 13.8229Z" fill="#474747"/>
<path d="M7.72141 13.8229H4.26568C3.81838 13.8229 3.45575 14.1854 3.45575 14.6328C3.45575 15.0802 3.81838 15.4428 4.26568 15.4428H7.72141C8.16871 15.4428 8.53134 15.0802 8.53134 14.6328C8.53134 14.1854 8.16871 13.8229 7.72141 13.8229Z" fill="#474747"/>
<path d="M45.7343 6.91144H42.2786C41.8313 6.91144 41.4687 7.27396 41.4687 7.72137C41.4687 8.16878 41.8313 8.53131 42.2786 8.53131H45.7343C46.1816 8.53131 46.5443 8.16878 46.5443 7.72137C46.5443 7.27396 46.1816 6.91144 45.7343 6.91144Z" fill="#474747"/>
<path d="M37.095 8.53131H38.8229C39.2702 8.53131 39.6328 8.16878 39.6328 7.72137C39.6328 7.27396 39.2702 6.91144 38.8229 6.91144H37.095C36.6477 6.91144 36.2851 7.27396 36.2851 7.72137C36.2851 8.16878 36.6477 8.53131 37.095 8.53131Z" fill="#474747"/>
<path d="M31.9114 8.53131H33.6393C34.0866 8.53131 34.4492 8.16878 34.4492 7.72137C34.4492 7.27396 34.0866 6.91144 33.6393 6.91144H31.9114C31.4641 6.91144 31.1015 7.27396 31.1015 7.72137C31.1015 8.16878 31.4641 8.53131 31.9114 8.53131Z" fill="#474747"/>
<path d="M26.7278 8.53131H28.4557C28.903 8.53131 29.2656 8.16878 29.2656 7.72137C29.2656 7.27396 28.903 6.91144 28.4557 6.91144H26.7278C26.2805 6.91144 25.9179 7.27396 25.9179 7.72137C25.9179 8.16878 26.2805 8.53131 26.7278 8.53131Z" fill="#474747"/>
<path d="M21.5442 8.53131H23.2721C23.7194 8.53131 24.082 8.16878 24.082 7.72137C24.082 7.27396 23.7194 6.91144 23.2721 6.91144H21.5442C21.0969 6.91144 20.7343 7.27396 20.7343 7.72137C20.7343 8.16878 21.0969 8.53131 21.5442 8.53131Z" fill="#474747"/>
<path d="M16.3607 8.53131H18.0886C18.5359 8.53131 18.8985 8.16878 18.8985 7.72137C18.8985 7.27396 18.5359 6.91144 18.0886 6.91144H16.3607C15.9134 6.91144 15.5508 7.27396 15.5508 7.72137C15.5508 8.16878 15.9134 8.53131 16.3607 8.53131Z" fill="#474747"/>
<path d="M11.1771 8.53131H12.905C13.3523 8.53131 13.7149 8.16878 13.7149 7.72137C13.7149 7.27396 13.3523 6.91144 12.905 6.91144H11.1771C10.7298 6.91144 10.3672 7.27396 10.3672 7.72137C10.3672 8.16878 10.7298 8.53131 11.1771 8.53131Z" fill="#474747"/>
<path d="M4.26568 8.53131H7.72141C8.16871 8.53131 8.53134 8.16878 8.53134 7.72137C8.53134 7.27396 8.16871 6.91144 7.72141 6.91144H4.26568C3.81838 6.91144 3.45575 7.27396 3.45575 7.72137C3.45575 8.16878 3.81838 8.53131 4.26568 8.53131Z" fill="#474747"/>
<path d="M45.7343 10.3672H44.0065C43.5592 10.3672 43.1965 10.7297 43.1965 11.1771C43.1965 11.6245 43.5592 11.987 44.0065 11.987H45.7343C46.1816 11.987 46.5443 11.6245 46.5443 11.1771C46.5443 10.7297 46.1816 10.3672 45.7343 10.3672Z" fill="#474747"/>
<path d="M40.5507 10.3672H38.8229C38.3756 10.3672 38.0129 10.7297 38.0129 11.1771C38.0129 11.6245 38.3756 11.987 38.8229 11.987H40.5507C40.998 11.987 41.3607 11.6245 41.3607 11.1771C41.3607 10.7297 40.998 10.3672 40.5507 10.3672Z" fill="#474747"/>
<path d="M35.3671 10.3672H33.6393C33.192 10.3672 32.8293 10.7297 32.8293 11.1771C32.8293 11.6245 33.192 11.987 33.6393 11.987H35.3671C35.8144 11.987 36.1771 11.6245 36.1771 11.1771C36.1771 10.7297 35.8144 10.3672 35.3671 10.3672Z" fill="#474747"/>
<path d="M30.1836 10.3672H28.4557C28.0084 10.3672 27.6458 10.7297 27.6458 11.1771C27.6458 11.6245 28.0084 11.987 28.4557 11.987H30.1836C30.6309 11.987 30.9935 11.6245 30.9935 11.1771C30.9935 10.7297 30.6309 10.3672 30.1836 10.3672Z" fill="#474747"/>
<path d="M25 10.3672H23.2722C22.8249 10.3672 22.4622 10.7297 22.4622 11.1771C22.4622 11.6245 22.8249 11.987 23.2722 11.987H25C25.4473 11.987 25.81 11.6245 25.81 11.1771C25.81 10.7297 25.4473 10.3672 25 10.3672Z" fill="#474747"/>
<path d="M19.8164 10.3672H18.0886C17.6413 10.3672 17.2786 10.7297 17.2786 11.1771C17.2786 11.6245 17.6413 11.987 18.0886 11.987H19.8164C20.2637 11.987 20.6264 11.6245 20.6264 11.1771C20.6264 10.7297 20.2637 10.3672 19.8164 10.3672Z" fill="#474747"/>
<path d="M14.6328 10.3672H12.905C12.4577 10.3672 12.095 10.7297 12.095 11.1771C12.095 11.6245 12.4577 11.987 12.905 11.987H14.6328C15.0801 11.987 15.4428 11.6245 15.4428 11.1771C15.4428 10.7297 15.0801 10.3672 14.6328 10.3672Z" fill="#474747"/>
<path d="M4.26568 11.987H9.44927C9.89657 11.987 10.2592 11.6245 10.2592 11.1771C10.2592 10.7297 9.89657 10.3672 9.44927 10.3672H4.26568C3.81838 10.3672 3.45575 10.7297 3.45575 11.1771C3.45575 11.6245 3.81838 11.987 4.26568 11.987Z" fill="#474747"/>
<path d="M45.7343 3.45572H44.0065C43.5592 3.45572 43.1965 3.81825 43.1965 4.26565C43.1965 4.71306 43.5592 5.07559 44.0065 5.07559H45.7343C46.1816 5.07559 46.5443 4.71306 46.5443 4.26565C46.5443 3.81825 46.1816 3.45572 45.7343 3.45572Z" fill="#474747"/>
<path d="M40.5507 3.45572H38.8229C38.3756 3.45572 38.0129 3.81825 38.0129 4.26565C38.0129 4.71306 38.3756 5.07559 38.8229 5.07559H40.5507C40.998 5.07559 41.3607 4.71306 41.3607 4.26565C41.3607 3.81825 40.998 3.45572 40.5507 3.45572Z" fill="#474747"/>
<path d="M35.3671 3.45572H33.6393C33.192 3.45572 32.8293 3.81825 32.8293 4.26565C32.8293 4.71306 33.192 5.07559 33.6393 5.07559H35.3671C35.8144 5.07559 36.1771 4.71306 36.1771 4.26565C36.1771 3.81825 35.8144 3.45572 35.3671 3.45572Z" fill="#474747"/>
<path d="M28.4557 5.07559H30.1836C30.6309 5.07559 30.9935 4.71306 30.9935 4.26565C30.9935 3.81825 30.6309 3.45572 30.1836 3.45572H28.4557C28.0084 3.45572 27.6458 3.81825 27.6458 4.26565C27.6458 4.71306 28.0084 5.07559 28.4557 5.07559Z" fill="#474747"/>
<path d="M23.2722 5.07559H25C25.4473 5.07559 25.81 4.71306 25.81 4.26565C25.81 3.81825 25.4473 3.45572 25 3.45572H23.2722C22.8249 3.45572 22.4622 3.81825 22.4622 4.26565C22.4622 4.71306 22.8249 5.07559 23.2722 5.07559Z" fill="#474747"/>
<path d="M18.0886 5.07559H19.8164C20.2637 5.07559 20.6264 4.71306 20.6264 4.26565C20.6264 3.81825 20.2637 3.45572 19.8164 3.45572H18.0886C17.6413 3.45572 17.2786 3.81825 17.2786 4.26565C17.2786 4.71306 17.6413 5.07559 18.0886 5.07559Z" fill="#474747"/>
<path d="M12.905 5.07559H14.6328C15.0801 5.07559 15.4428 4.71306 15.4428 4.26565C15.4428 3.81825 15.0801 3.45572 14.6328 3.45572H12.905C12.4577 3.45572 12.095 3.81825 12.095 4.26565C12.095 4.71306 12.4577 5.07559 12.905 5.07559Z" fill="#474747"/>
<path d="M4.26568 5.07559H9.44927C9.89657 5.07559 10.2592 4.71306 10.2592 4.26565C10.2592 3.81825 9.89657 3.45572 9.44927 3.45572H4.26568C3.81838 3.45572 3.45575 3.81825 3.45575 4.26565C3.45575 4.71306 3.81838 5.07559 4.26568 5.07559Z" fill="#474747"/>
</svg>
