<svg width="38" height="51" viewBox="0 0 38 51" fill="none" xmlns="http://www.w3.org/2000/svg">
<path d="M35.165 3.05176e-05H2.34438C1.05028 0.00154151 0.001511 1.05017 0 2.34441V10.0642C0.00164836 10.6857 0.24849 11.2813 0.686816 11.7218L3.5165 14.5515C3.9551 14.9927 4.55194 15.2399 5.17406 15.2383H32.3353C32.9574 15.2399 33.5543 14.9927 33.9929 14.5515L36.8226 11.7218C37.2609 11.2813 37.5077 10.6857 37.5094 10.0642V2.34441C37.5079 1.05017 36.4591 0.00154151 35.165 3.05176e-05ZM35.165 10.0642L32.3353 12.8939H5.17406L2.34438 10.0642V2.34441H35.165V10.0642Z" fill="#474747"/>
<path d="M5.86084 7.03313H7.03296C7.03296 7.68052 7.55769 8.20525 8.20508 8.20525C8.85248 8.20525 9.3772 7.68039 9.3772 7.03313H14.0658C14.0658 7.68052 14.5906 8.20525 15.2379 8.20525C15.8853 8.20525 16.4101 7.68039 16.4101 7.03313H21.0987C21.0987 7.68052 21.6234 8.20525 22.2708 8.20525C22.9182 8.20525 23.4429 7.68039 23.4429 7.03313H28.1315C28.1315 7.68052 28.6564 8.20525 29.3037 8.20525C29.9511 8.20525 30.4758 7.68039 30.4758 7.03313H31.6479C32.2953 7.03313 32.82 6.5084 32.82 5.86101C32.82 5.21362 32.2959 4.68875 31.6485 4.68875H5.86084C5.21345 4.68875 4.68872 5.21348 4.68872 5.86087C4.68872 6.50827 5.21345 7.03313 5.86084 7.03313Z" fill="#474747"/>
<path d="M19.9269 9.37747H17.5825C16.9351 9.37747 16.4104 9.9022 16.4104 10.5496C16.4104 11.197 16.9351 11.7217 17.5825 11.7217H19.9269C20.5743 11.7217 21.099 11.197 21.099 10.5496C21.099 9.9022 20.5743 9.37747 19.9269 9.37747Z" fill="#474747"/>
<path d="M6.45612 23.1923C6.45612 21.5355 7.79926 20.1923 9.45612 20.1923H28.0441C29.701 20.1923 31.0441 21.5355 31.0441 23.1923V49.7254H6.45612V23.1923Z" stroke="#474747" stroke-width="2"/>
<path d="M19.3189 31.7805L19.8491 31.7805C20.142 31.7805 20.3793 31.5432 20.3793 31.2504C20.3793 30.9576 20.1419 30.7202 19.8491 30.7202L19.3189 31.7805ZM19.3189 31.7805V31.2504C19.3189 30.9576 19.5562 30.7202 19.849 30.7202L19.3189 31.7805ZM19.8491 24.3627H19.8491L19.3189 24.3627V21.2227C19.3189 20.9298 19.5562 20.6924 19.8491 20.6924C20.1419 20.6924 20.3793 20.9298 20.3793 21.2227V24.4571C20.2141 24.396 20.0355 24.3627 19.8491 24.3627ZM16.5716 29.8144V27.3288C16.7368 27.3898 16.9154 27.4231 17.1018 27.4231C17.1018 27.4231 17.1018 27.4231 17.1018 27.4231L17.632 27.4232V29.7201L17.1018 29.72H17.1018C16.9154 29.72 16.7368 29.7534 16.5716 29.8144ZM17.1018 30.72L17.632 30.7201V31.2502C17.632 31.5431 17.3947 31.7805 17.1018 31.7805C16.809 31.7805 16.5716 31.5431 16.5716 31.2502C16.5716 30.9574 16.8089 30.7201 17.1018 30.72C17.1018 30.72 17.1018 30.72 17.1018 30.72ZM17.632 36.8821V37.4122L17.1019 37.4122H17.1018C16.8089 37.4122 16.5716 37.1748 16.5716 36.8821C16.5716 36.5893 16.809 36.3519 17.1018 36.3519C17.3947 36.3519 17.632 36.5893 17.632 36.8821ZM16.5716 40.8034V38.3178C16.7368 38.3788 16.9154 38.4122 17.1018 38.4122C17.1018 38.4122 17.1018 38.4122 17.1018 38.4122L17.632 38.4122V40.7091H17.1018C16.9154 40.7091 16.7368 40.7424 16.5716 40.8034ZM17.1018 41.7091H17.632V42.2393C17.632 42.5321 17.3947 42.7695 17.1018 42.7695C16.809 42.7695 16.5716 42.5321 16.5716 42.2393C16.5716 41.9465 16.809 41.7091 17.1018 41.7091ZM20.3793 43.6752V48.97C20.3793 49.2629 20.1419 49.5003 19.8491 49.5003C19.5562 49.5003 19.3189 49.2629 19.3189 48.97V43.7695L19.8491 43.7695C20.0355 43.7695 20.2141 43.7362 20.3793 43.6752ZM20.3749 42.308C20.3412 42.5684 20.1186 42.7695 19.8491 42.7695L19.3189 42.7695V42.3766C19.3189 42.0838 19.5562 41.8464 19.8491 41.8464C20.1187 41.8464 20.3412 42.0476 20.3749 42.308ZM20.3793 32.6862V35.4461C20.2141 35.3851 20.0355 35.3517 19.8491 35.3517L19.3189 35.3517V32.7805L19.8491 32.7805C20.0355 32.7805 20.2141 32.7472 20.3793 32.6862ZM19.3189 36.8823V36.3517L19.8491 36.3517C20.1417 36.3517 20.3793 36.5892 20.3793 36.8823C20.3793 37.1751 20.1419 37.4125 19.8491 37.4125C19.8491 37.4125 19.8491 37.4125 19.8491 37.4125C19.849 37.4125 19.8489 37.4125 19.8489 37.4125C19.5561 37.4124 19.3189 37.1751 19.3189 36.8823ZM19.849 26.4232C19.5562 26.4232 19.3189 26.1858 19.3189 25.893V25.3627L19.8491 25.3627C19.8491 25.3627 19.8491 25.3627 19.8491 25.3627C20.1419 25.3627 20.3793 25.6001 20.3793 25.893C20.3793 26.1858 20.1419 26.4232 19.8491 26.4232C19.8491 26.4232 19.8491 26.4232 19.8491 26.4232C19.8491 26.4232 19.849 26.4232 19.849 26.4232ZM17.632 26.4232L17.1018 26.4231H17.1018C16.8089 26.4231 16.5716 26.1858 16.5716 25.8931C16.5716 25.6002 16.809 25.3628 17.1018 25.3628C17.1018 25.3628 17.1018 25.3628 17.1018 25.3628C17.3947 25.3629 17.632 25.6002 17.632 25.8931V26.4232Z" fill="#474747" stroke="#474747"/>
<path d="M9.29141 33.2805C9.29141 33.0043 9.51527 32.7805 9.79141 32.7805H12.7365C13.0126 32.7805 13.2365 33.0043 13.2365 33.2805V36.2256C13.2365 36.5017 13.0126 36.7256 12.7365 36.7256H9.79141C9.51527 36.7256 9.29141 36.5017 9.29141 36.2256V33.2805Z" stroke="#474747"/>
<path d="M23.7145 33.2805C23.7145 33.0043 23.9384 32.7805 24.2145 32.7805H27.1596C27.4357 32.7805 27.6596 33.0043 27.6596 33.2805V36.2256C27.6596 36.5017 27.4357 36.7256 27.1596 36.7256H24.2145C23.9384 36.7256 23.7145 36.5017 23.7145 36.2256V33.2805Z" stroke="#474747"/>
</svg>
