<svg width="32" height="60" viewBox="0 0 32 60" fill="none" xmlns="http://www.w3.org/2000/svg">
<path d="M28.536 4H22V0H10V4H3.464C1.554 4 0 5.554 0 7.464V56.536C0 58.446 1.554 60 3.464 60H28.535C30.446 60 32 58.446 32 56.536V7.464C32 5.554 30.446 4 28.536 4ZM30 56.536C30 57.344 29.343 58 28.536 58H3.464C2.657 58 2 57.344 2 56.536V7.464C2 6.656 2.657 6 3.464 6H10H22H28.536C29.343 6 30 6.656 30 7.464V56.536Z" fill="#474747"/>
<path d="M23 28.9998H20V17.1078C20.013 16.8478 19.931 16.5928 19.764 16.3878C19.383 15.9208 18.5 15.9248 18.122 16.3918C18.096 16.4238 18.072 16.4578 18.05 16.4948L8.15 32.4738C7.959 32.7828 7.95001 33.1698 8.12701 33.4868C8.30301 33.8038 8.637 33.9998 9 33.9998H13L13.002 46.9288H13.003C13.004 47.1638 13.08 47.4078 13.218 47.5858C13.407 47.8328 13.747 47.9998 14.058 47.9998C14.363 47.9998 14.694 47.8398 14.883 47.6018C14.923 47.5518 14.957 47.4988 14.987 47.4428L23.886 30.4638C24.049 30.1538 24.037 29.7818 23.856 29.4828C23.675 29.1838 23.35 28.9998 23 28.9998Z" fill="#474747"/>
</svg>
