<svg width="70" height="45" viewBox="0 0 70 45" fill="none" xmlns="http://www.w3.org/2000/svg">
<path d="M6.68859 40.6472H63.3114C64.4829 40.6472 65.4348 39.6948 65.4348 38.5239V2.12336C65.4348 0.95248 64.4829 0 63.3114 0H6.68859C5.51771 0 4.56523 0.95248 4.56523 2.12336V38.5239C4.56523 39.6948 5.51832 40.6472 6.68859 40.6472ZM6.38526 2.12336C6.38526 1.95592 6.52115 1.82003 6.68859 1.82003H63.3114C63.4788 1.82003 63.6147 1.95592 63.6147 2.12336V38.5239C63.6147 38.6913 63.4788 38.8272 63.3114 38.8272H6.68859C6.52115 38.8272 6.38526 38.6913 6.38526 38.5239V2.12336ZM70 42.2719V43.9712C70 44.4214 69.6348 44.7866 69.1846 44.7866H0.815371C0.365218 44.7866 0 44.4214 0 43.9712V42.2719H28.7485C28.8905 42.7457 29.3249 43.0933 29.8448 43.0933H40.1558C40.6751 43.0933 41.1095 42.7463 41.2521 42.2719H70Z" fill="#474747"/>
</svg>
