<svg width="60" height="40" viewBox="0 0 60 40" fill="none" xmlns="http://www.w3.org/2000/svg">
<path d="M5 30.5L10.5 32L14 19L19.5 24.5" stroke="#474747"/>
<path d="M5.73308 35.8405H54.2669C55.2711 35.8405 56.0869 35.0241 56.0869 34.0205V2.82003C56.0869 1.81641 55.2711 1 54.2669 1H5.73308C4.72947 1 3.91305 1.81641 3.91305 2.82003V34.0205C3.91305 35.0241 4.72999 35.8405 5.73308 35.8405ZM5.47308 2.82003C5.47308 2.6765 5.58956 2.56002 5.73308 2.56002H54.2669C54.4104 2.56002 54.5269 2.6765 54.5269 2.82003V34.0205C54.5269 34.164 54.4104 34.2805 54.2669 34.2805H5.73308C5.58956 34.2805 5.47308 34.164 5.47308 34.0205V2.82003ZM60 37.2331V38.6896C60 39.0755 59.687 39.3885 59.3011 39.3885H0.69889C0.313044 39.3885 0 39.0755 0 38.6896V37.2331H24.6416C24.7633 37.6392 25.1356 37.9372 25.5812 37.9372H34.4193C34.8644 37.9372 35.2367 37.6397 35.3589 37.2331H60Z" fill="#474747"/>
<path d="M55.5962 4.59984L44.6459 9.32636L47.8446 18.0595L41.7469 21.8102" stroke="#474747"/>
</svg>
