<svg width="24" height="45" viewBox="0 0 24 45" fill="none" xmlns="http://www.w3.org/2000/svg">
<path fill-rule="evenodd" clip-rule="evenodd" d="M24 -0.7C24 -0.865685 23.8657 -1 23.7 -1H0.3C0.134315 -1 0 -0.865687 0 -0.700001V44.3911C0 44.5065 0.0935298 44.6 0.208905 44.6C0.266994 44.6 0.322461 44.5758 0.361989 44.5332L11.7802 32.2367C11.8989 32.1089 12.1011 32.1089 12.2198 32.2367L23.638 44.5332C23.6775 44.5758 23.733 44.6 23.7911 44.6C23.9065 44.6 24 44.5065 24 44.3911V-0.7Z" fill="#B42F3C"/>
<path d="M15.233 14.9946C15.187 15.0253 15.1249 15.0128 15.0943 14.9669L12.0831 10.4498C12.0435 10.3905 11.9563 10.3904 11.9167 10.4498L8.90531 14.9669C8.87468 15.0128 8.81259 15.0253 8.76664 14.9946L4.32276 12.032C4.24904 11.9829 4.15255 12.0468 4.16904 12.1339L5.67343 20.0777C5.67459 20.0838 5.67518 20.0901 5.67518 20.0963V22.087C5.67518 22.1422 5.71995 22.187 5.77518 22.187H18.1752C18.2304 22.187 18.2752 22.1422 18.2752 22.087V20.0966C18.2752 20.0902 18.2758 20.0837 18.2771 20.0774L19.8288 12.1355C19.8459 12.0483 19.7492 11.9838 19.6752 12.0331L15.233 14.9946Z" fill="#FFCD29" stroke="white" stroke-width="0.5"/>
</svg>
