<svg width="169" height="126" viewBox="0 0 169 126" fill="none" xmlns="http://www.w3.org/2000/svg">
<g clip-path="url(#clip0)">
<path d="M24.2103 68.2565C24.2103 87.6366 35.7114 104.782 53.3423 115.218C64.6465 121.911 78.4721 125.847 93.4002 125.847C113.287 125.847 128.457 118.422 139.868 107.047C150.387 96.566 157.71 82.7283 162.59 68.2565C184.375 3.64234 147.983 -13.9853 93.4002 10.6661C58.6471 26.3635 24.2103 36.4511 24.2103 68.2565Z" fill="#B42F3C"/>
<path d="M53.3423 34.4305V115.372C64.6466 122.065 78.4721 126 93.4002 126C113.287 126 128.457 118.575 139.869 107.201V34.4305H53.3423Z" fill="#F2F2F2"/>
<path d="M131.546 73.8697C127.016 72.446 122.315 71.6182 117.566 71.4074C115.186 71.3074 112.802 71.3996 110.438 71.6829C108.096 71.9889 105.783 72.4782 103.519 73.1462C101.283 73.7858 99.0779 74.5247 96.8493 75.1888C94.5853 75.8718 92.2838 76.4267 89.9558 76.8506C87.64 77.2646 85.301 77.54 82.9516 77.6753C80.6251 77.8089 78.2759 77.835 75.9559 77.5901C73.789 77.384 71.6665 76.8525 69.6618 76.0139C67.7922 75.2079 66.0643 74.113 64.5431 72.7704C64.1634 72.4356 63.7982 72.086 63.4473 71.7217C63.2404 71.508 63.5688 71.1826 63.7763 71.3968C66.7418 74.4593 70.6398 76.3583 74.8676 76.9925C77.1708 77.3379 79.518 77.358 81.8414 77.2689C84.2169 77.1783 86.5844 76.942 88.9302 76.5613C91.2477 76.1816 93.5402 75.6661 95.7957 75.0175C98.0112 74.3834 100.197 73.6523 102.404 72.9931C104.632 72.3022 106.905 71.767 109.208 71.3916C111.518 71.044 113.853 70.8839 116.189 70.9129C120.858 70.9867 125.496 71.6653 129.986 72.9313C130.55 73.0877 131.111 73.2528 131.67 73.4265C131.954 73.5147 131.833 73.9585 131.546 73.8697H131.546Z" fill="#474747"/>
<path d="M131.546 85.5121C127.016 84.0884 122.315 83.2606 117.566 83.0498C115.186 82.9498 112.802 83.042 110.438 83.3253C108.096 83.6313 105.783 84.1206 103.519 84.7886C101.283 85.4282 99.0779 86.1671 96.8493 86.8312C94.5853 87.5142 92.2838 88.0691 89.9558 88.493C87.64 88.907 85.301 89.1824 82.9516 89.3177C80.6251 89.4513 78.2759 89.4774 75.9559 89.2325C73.789 89.0264 71.6665 88.4949 69.6618 87.6563C67.7922 86.8503 66.0643 85.7554 64.5431 84.4127C64.1634 84.078 63.7982 83.7284 63.4473 83.3641C63.2404 83.1504 63.5688 82.8249 63.7763 83.0392C66.7418 86.1017 70.6398 88.0007 74.8676 88.6348C77.1708 88.9803 79.518 89.0003 81.8414 88.9113C84.2169 88.8207 86.5844 88.5844 88.9302 88.2037C91.2477 87.824 93.5402 87.3085 95.7957 86.6598C98.0112 86.0257 100.197 85.2947 102.404 84.6355C104.632 83.9446 106.905 83.4094 109.208 83.034C111.518 82.6864 113.853 82.5263 116.189 82.5553C120.858 82.6291 125.496 83.3077 129.986 84.5737C130.55 84.7301 131.111 84.8952 131.67 85.0689C131.954 85.1571 131.833 85.6009 131.546 85.5121H131.546Z" fill="#474747"/>
<path d="M131.546 63.2995C127.016 61.8759 122.315 61.048 117.566 60.8373C115.186 60.7373 112.802 60.8294 110.438 61.1128C108.096 61.4188 105.783 61.9081 103.519 62.5761C101.283 63.2157 99.0779 63.9546 96.8493 64.6186C94.5853 65.3017 92.2838 65.8565 89.9558 66.2805C87.64 66.6945 85.301 66.9699 82.9516 67.1052C80.6251 67.2388 78.2759 67.2648 75.9559 67.02C73.789 66.8139 71.6665 66.2823 69.6618 65.4438C67.7922 64.6377 66.0643 63.5429 64.5431 62.2002C64.1634 61.8654 63.7982 61.5159 63.4473 61.1516C63.2404 60.9379 63.5688 60.6124 63.7763 60.8267C66.7418 63.8892 70.6398 65.7882 74.8676 66.4223C77.1708 66.7678 79.518 66.7878 81.8414 66.6987C84.2169 66.6082 86.5844 66.3719 88.9302 65.9912C91.2477 65.6115 93.5402 65.096 95.7957 64.4473C98.0112 63.8132 100.197 63.0821 102.404 62.423C104.632 61.732 106.905 61.1969 109.208 60.8215C111.518 60.4739 113.853 60.3138 116.189 60.3428C120.858 60.4166 125.496 61.0951 129.986 62.3612C130.55 62.5176 131.111 62.6827 131.67 62.8564C131.954 62.9446 131.833 63.3884 131.546 63.2995H131.546Z" fill="#474747"/>
<path d="M80.7681 42.8061C79.6426 42.3135 78.3532 42.3994 77.1851 42.6851C75.9256 42.993 74.7396 43.5286 73.4998 43.8989C71.2805 44.5522 68.9231 44.5964 66.6803 44.0267C65.4177 43.7086 64.2128 43.1984 63.1089 42.5145C62.856 42.3574 63.0892 41.9596 63.3437 42.1176C65.3115 43.3315 67.5861 43.9721 69.906 43.9658C71.0695 43.9641 72.2266 43.7958 73.3412 43.4661C74.572 43.1015 75.7486 42.5722 76.9954 42.2583C78.3164 41.9257 79.733 41.8535 81.0029 42.4093C81.276 42.5288 81.0396 42.925 80.7681 42.8061Z" fill="#474747"/>
<path d="M135.992 20.0307C133.851 20.0307 132.115 18.316 132.115 16.2009C132.115 14.0858 133.851 12.3712 135.992 12.3712C138.133 12.3712 139.869 14.0858 139.869 16.2009C139.869 18.316 138.133 20.0307 135.992 20.0307Z" fill="#F2F2F2"/>
<path d="M102.033 29.6817C100.577 29.6817 99.3966 28.5157 99.3966 27.0774C99.3966 25.6392 100.577 24.4732 102.033 24.4732C103.489 24.4732 104.669 25.6392 104.669 27.0774C104.669 28.5157 103.489 29.6817 102.033 29.6817Z" fill="#F2F2F2"/>
<path d="M144.831 54.6516C143.375 54.6516 142.194 53.4857 142.194 52.0474C142.194 50.6091 143.375 49.4432 144.831 49.4432C146.286 49.4432 147.467 50.6091 147.467 52.0474C147.467 53.4857 146.286 54.6516 144.831 54.6516Z" fill="#F2F2F2"/>
<path d="M155.444 32.7006H155.735V84.0568H155.444V32.7006Z" fill="#474747"/>
<path d="M155.533 79.6557C152.403 79.6557 149.865 73.934 149.865 66.8759C149.865 59.8178 152.403 54.0961 155.533 54.0961C158.664 54.0961 161.202 59.8178 161.202 66.8759C161.202 73.934 158.664 79.6557 155.533 79.6557Z" fill="#474747"/>
<path d="M155.533 50.5062C152.403 50.5062 149.865 44.7845 149.865 37.7264C149.865 30.6683 152.403 24.9466 155.533 24.9466C158.664 24.9466 161.202 30.6683 161.202 37.7264C161.202 44.7845 158.664 50.5062 155.533 50.5062Z" fill="#474747"/>
<path d="M155.394 27.2853L155.673 27.2029C155.655 27.1448 153.946 21.3591 156.752 17.6345C158.337 15.531 161.057 14.4643 164.836 14.4643V14.1771C160.959 14.1771 158.161 15.283 156.518 17.4641C153.625 21.3055 155.376 27.226 155.394 27.2853Z" fill="#474747"/>
<path d="M164.836 17.9106C162.829 17.9106 161.202 16.3033 161.202 14.3207C161.202 12.3381 162.829 10.7309 164.836 10.7309C166.842 10.7309 168.469 12.3381 168.469 14.3207C168.469 16.3033 166.842 17.9106 164.836 17.9106Z" fill="#474747"/>
<path d="M49.4853 95.6945L52.204 120.404H33.4451L32.6295 118.524L31.542 120.404H13.8706C13.8706 120.404 15.23 94.8888 17.6768 94.083C20.1236 93.2773 49.4853 95.6945 49.4853 95.6945Z" fill="#474747"/>
<path d="M33.4451 41.4411C28.1899 41.4411 23.9297 37.2324 23.9297 32.0408C23.9297 26.8491 28.1899 22.6404 33.4451 22.6404C38.7003 22.6404 42.9604 26.8491 42.9604 32.0408C42.9604 37.2324 38.7003 41.4411 33.4451 41.4411Z" fill="#FFB8B8"/>
<path d="M38.8825 37.9496C38.8825 37.9496 38.0669 46.5442 38.8825 47.0813C39.6981 47.6185 25.8328 47.3499 25.8328 47.3499C25.8328 47.3499 27.7359 39.5611 25.8328 35.801L38.8825 37.9496Z" fill="#FFB8B8"/>
<path d="M33.9889 45.2012C33.9889 45.2012 26.9934 46.2776 26.4131 44.1279L22.8423 48.9614L22.5704 97.306C22.5704 97.306 51.6603 100.798 52.7477 95.1573C53.8352 89.5171 41.6011 44.9326 41.6011 44.9326L38.5212 44.7357C38.5212 44.7357 34.5326 45.2012 33.9889 45.2012Z" fill="#DADADA"/>
<path d="M38.5675 42.53L43.2324 44.1269L56.5539 47.3499L56.0101 79.5796C56.0101 79.5796 67.4286 111.809 62.2631 114.227C57.0976 116.644 49.7572 111.004 47.5822 106.975C45.4073 102.946 37.795 47.0813 37.795 46.007C37.795 44.9327 38.5675 42.53 38.5675 42.53Z" fill="#3F3D56"/>
<path d="M26.5879 42.53L24.7454 44.1269L11.6958 50.0357L18.2206 82.534C18.2206 82.534 9.52084 112.078 12.7832 113.689C16.0457 115.301 20.9393 119.867 22.0267 117.181C23.1142 114.495 29.5179 45.499 26.5879 42.53Z" fill="#3F3D56"/>
<path d="M19.0361 85.4884C19.0361 85.4884 31.2702 80.3854 31.542 84.9512C31.8139 89.5171 17.6768 92.7401 17.6768 91.3972C17.6768 90.0543 19.0361 85.4884 19.0361 85.4884Z" fill="#FFB8B8"/>
<path d="M48.9416 83.6083C48.9416 83.6083 34.8045 94.083 40.2419 96.7688C45.6792 99.4546 52.7478 87.3685 52.7478 87.3685L48.9416 83.6083Z" fill="#FFB8B8"/>
<path d="M29.2207 18.2708C29.176 18.1773 29.104 18.0992 29.014 18.0464C28.924 17.9937 28.8201 17.9687 28.7157 17.9747C33.072 17.7173 37.6605 18.2189 41.305 20.5905C42.3257 21.2547 43.2789 22.0669 44.4409 22.4412L43.4977 23.1719L44.6246 23.5113L42.9661 24.5702C43.1336 24.7583 43.3485 24.8993 43.5889 24.9789C43.8293 25.0585 44.0868 25.0738 44.3352 25.0233C43.6144 25.2314 43.0837 25.865 42.8142 26.5574C42.5446 27.2498 42.4962 28.0038 42.4507 28.7443C42.1721 27.6759 40.9918 27.047 39.8769 26.9831C38.762 26.9192 37.6747 27.2826 36.5897 27.5438C34.2265 28.1112 31.7721 28.2045 29.3717 27.8181C30.1868 29.4341 29.4993 31.3616 28.8074 33.0327L27.4258 36.3694C26.6589 36.4456 26.1167 35.6921 25.5389 35.188C25.0122 34.7286 27.109 38.7691 26.7843 38.621C26.3626 38.4287 21.912 33.5744 21.7036 33.1643C20.7527 31.2932 20.1822 29.2062 20.268 27.1142C20.3538 25.0223 21.1286 22.9293 22.5882 21.4113C23.5791 20.3808 24.9501 20.2003 25.9603 19.3438C26.3579 19.0067 26.3593 18.7434 26.9057 18.5468C27.0872 18.4815 29.1907 18.205 29.2207 18.2708Z" fill="#2F2E41"/>
<path d="M54.6509 48.1557L56.5539 47.3499L71.7785 72.0594C71.7785 72.0594 74.4972 78.5053 69.6036 81.4597C64.71 84.4141 53.2915 93.2773 53.2915 93.2773L46.7667 83.3398C46.7667 83.3398 60.0882 77.1624 59.2726 74.7452C58.457 72.328 54.1071 65.882 54.1071 65.882L54.6509 48.1557Z" fill="#3F3D56"/>
<path d="M15.23 49.4985L11.6957 50.0357C11.6957 50.0357 -2.98516 78.5053 0.549114 83.8769C4.0834 89.2485 18.4924 96.7688 18.4924 96.7688C18.4924 96.7688 18.7643 87.9056 21.2111 84.6827L12.7832 81.4597L17.4049 63.7333L15.23 49.4985Z" fill="#3F3D56"/>
<path d="M83.3897 105.336C83.0543 105.336 82.7824 105.232 82.5742 105.023C82.3776 104.815 82.2793 104.543 82.2793 104.208V94.0583C82.2793 93.7229 82.3718 93.4627 82.5569 93.2776C82.7535 93.0925 83.0196 93 83.355 93H89.4448C90.1503 93 90.5031 93.3007 90.5031 93.9022C90.5031 94.4921 90.1503 94.787 89.4448 94.787H84.4827V98.1182H89.0978C89.8034 98.1182 90.1561 98.4189 90.1561 99.0204C90.1561 99.6103 89.8034 99.9052 89.0978 99.9052H84.4827V104.208C84.4827 104.543 84.3844 104.815 84.1878 105.023C83.9911 105.232 83.7251 105.336 83.3897 105.336Z" fill="#B42F3C"/>
<path d="M95.4172 105.422C95.0817 105.422 94.8099 105.318 94.6017 105.11C94.4051 104.902 94.3068 104.63 94.3068 104.295V94.1104C94.3068 93.775 94.4051 93.5089 94.6017 93.3123C94.8099 93.1041 95.0817 93 95.4172 93C95.7642 93 96.036 93.1041 96.2326 93.3123C96.4408 93.5089 96.5449 93.775 96.5449 94.1104V104.295C96.5449 104.63 96.4408 104.902 96.2326 105.11C96.036 105.318 95.7642 105.422 95.4172 105.422Z" fill="#474747"/>
<path d="M110.722 103.722C110.907 103.942 111 104.162 111 104.382C111 104.659 110.89 104.902 110.67 105.11C110.462 105.318 110.219 105.422 109.942 105.422C109.653 105.422 109.398 105.295 109.178 105.041L105.656 100.669L102.117 105.041C101.909 105.284 101.66 105.405 101.371 105.405C101.093 105.405 100.845 105.307 100.625 105.11C100.417 104.902 100.312 104.659 100.312 104.382C100.312 104.15 100.399 103.93 100.573 103.722L104.355 99.1072L100.729 94.6829C100.555 94.4979 100.469 94.2781 100.469 94.0236C100.469 93.746 100.573 93.5089 100.781 93.3123C100.989 93.1041 101.232 93 101.51 93C101.799 93 102.053 93.1272 102.273 93.3817L105.656 97.563L109.039 93.3817C109.248 93.1272 109.496 93 109.786 93C110.063 93 110.306 93.1041 110.514 93.3123C110.734 93.5089 110.844 93.746 110.844 94.0236C110.844 94.2781 110.757 94.4979 110.584 94.6829L106.957 99.1072L110.722 103.722Z" fill="#B42F3C"/>
<path d="M95.4625 121C95.1155 121 94.8379 120.902 94.6297 120.705C94.4331 120.497 94.3348 120.225 94.3348 119.89V110.521H91.1771C90.4831 110.521 90.1361 110.214 90.1361 109.601C90.1361 108.988 90.4831 108.682 91.1771 108.682H99.7306C100.425 108.682 100.772 108.988 100.772 109.601C100.772 110.214 100.425 110.521 99.7306 110.521H96.5729V119.89C96.5729 120.225 96.4688 120.497 96.2606 120.705C96.064 120.902 95.7979 121 95.4625 121Z" fill="#B42F3C"/>
</g>
<defs>
<clipPath id="clip0">
<rect width="169" height="126" transform="matrix(-1 0 0 1 169 0)" fill="white"/>
</clipPath>
</defs>
</svg>
