<svg width="57" height="50" viewBox="0 0 57 50" fill="none" xmlns="http://www.w3.org/2000/svg">
<path d="M48.4492 22.4302C47.6444 22.4302 46.9918 23.0827 46.9918 23.8876V47.085H35.3331V34.4224C35.3331 30.404 32.0639 27.135 28.0457 27.135C24.0276 27.135 20.7584 30.4043 20.7584 34.4224V47.0852H9.09955V23.8877C9.09955 23.0828 8.44695 22.4303 7.64218 22.4303C6.83741 22.4303 6.18481 23.0828 6.18481 23.8877V48.5426C6.18481 49.3475 6.83741 50 7.64218 50H22.2157C22.9822 50 23.6093 49.4079 23.6674 48.6561C23.6709 48.6221 23.6731 48.5848 23.6731 48.5426V34.4225C23.6731 32.0114 25.6346 30.0499 28.0457 30.0499C30.4569 30.0499 32.4184 32.0115 32.4184 34.4225V48.5426C32.4184 48.5846 32.4206 48.6212 32.4241 48.6548C32.4815 49.4071 33.1089 50 33.8757 50H48.4493C49.2542 50 49.9067 49.3475 49.9067 48.5426V23.8877C49.9066 23.0827 49.2541 22.4302 48.4492 22.4302Z" fill="#474747"/>
<path d="M55.494 19.7485L28.9063 0.281493C28.3936 -0.093831 27.697 -0.093831 27.1846 0.281493L0.596572 19.7485C-0.0528501 20.2241 -0.193953 21.136 0.281611 21.7854C0.757175 22.4348 1.66919 22.5757 2.31851 22.1004L28.0453 3.2636L53.7721 22.1002C54.0315 22.2903 54.333 22.3818 54.6319 22.3818C55.0806 22.3818 55.5234 22.1753 55.8089 21.7853C56.2845 21.136 56.1434 20.2241 55.494 19.7485Z" fill="#474747"/>
</svg>
