<svg width="235" height="158" viewBox="0 0 235 158" fill="none" xmlns="http://www.w3.org/2000/svg">
<path d="M235 157.563H135.031V158H235V157.563Z" fill="#3F3D56"/>
<path d="M227.353 151.225H127.384V151.663H227.353V151.225Z" fill="#3F3D56"/>
<path d="M195.672 144.888H95.7026V145.325H195.672V144.888Z" fill="#3F3D56"/>
<path d="M71.9383 125.783C71.3321 125.783 70.7197 125.773 70.1187 125.755L70.1323 125.318C70.9954 125.345 71.8762 125.352 72.7433 125.34L72.7493 125.778C72.4794 125.781 72.2091 125.783 71.9383 125.783ZM75.3784 125.682L75.3528 125.245C76.2172 125.194 77.0926 125.123 77.9549 125.032L78.0005 125.467C77.1317 125.558 76.2496 125.63 75.3784 125.682H75.3784ZM67.4919 125.614C66.6203 125.547 65.7395 125.459 64.8739 125.353L64.9272 124.919C65.7862 125.025 66.6602 125.112 67.5252 125.178L67.4919 125.614ZM80.6098 125.133L80.5443 124.701C81.4031 124.571 82.2686 124.419 83.1158 124.251L83.201 124.68C82.3471 124.849 81.4752 125.002 80.6098 125.133ZM62.2709 124.973C61.4098 124.827 60.5407 124.659 59.6876 124.474L59.7803 124.047C60.6269 124.231 61.4893 124.397 62.3438 124.542L62.2709 124.973ZM85.7691 124.107L85.6641 123.683C86.5071 123.475 87.3548 123.244 88.1838 122.998L88.308 123.417C87.4726 123.665 86.6185 123.897 85.7691 124.107ZM57.1303 123.857C56.2856 123.632 55.4357 123.385 54.604 123.122L54.7356 122.705C55.5611 122.966 56.4045 123.211 57.2425 123.434L57.1303 123.857ZM90.8123 122.611L90.6689 122.198C91.4869 121.914 92.3097 121.606 93.1147 121.284L93.2769 121.69C92.4659 122.014 91.6367 122.324 90.8123 122.611ZM52.1078 122.269C51.2875 121.967 50.4621 121.642 49.6547 121.301L49.8243 120.898C50.6255 121.236 51.4445 121.559 52.2586 121.858L52.1078 122.269ZM95.691 120.658L95.51 120.261C96.2956 119.904 97.0853 119.522 97.8571 119.128L98.0559 119.517C97.2782 119.915 96.4826 120.299 95.691 120.658ZM100.366 118.268L100.15 117.889C100.903 117.459 101.655 117.006 102.385 116.545L102.618 116.914C101.883 117.379 101.126 117.835 100.366 118.268ZM104.807 115.458L104.557 115.1C105.266 114.604 105.974 114.085 106.661 113.557L106.927 113.904C106.235 114.436 105.522 114.959 104.807 115.458ZM38.2054 114.843C37.5001 114.33 36.7956 113.794 36.1112 113.247L36.3839 112.906C37.063 113.448 37.7622 113.981 38.4621 114.489L38.2054 114.843ZM108.975 112.254L108.693 111.92C109.354 111.362 110.012 110.78 110.649 110.191L110.946 110.512C110.304 111.106 109.641 111.692 108.975 112.254ZM34.0923 111.558C33.4354 110.983 32.7828 110.384 32.1528 109.779L32.4553 109.464C33.0807 110.064 33.7283 110.658 34.3801 111.229L34.0923 111.558ZM112.836 108.682L112.525 108.375C113.135 107.757 113.738 107.118 114.317 106.475L114.642 106.767C114.058 107.415 113.451 108.059 112.836 108.682ZM30.2967 107.914C29.694 107.28 29.0988 106.625 28.5276 105.967L28.8577 105.681C29.4245 106.334 30.0151 106.984 30.6133 107.613L30.2967 107.914ZM116.358 104.772L116.021 104.494C116.571 103.824 117.114 103.132 117.633 102.438L117.983 102.7C117.46 103.399 116.913 104.097 116.358 104.772ZM26.8494 103.942C26.3082 103.258 25.7753 102.552 25.2654 101.843L25.62 101.588C26.126 102.291 26.6549 102.992 27.192 103.671L26.8494 103.942ZM119.511 100.555L119.149 100.31C119.637 99.5923 120.114 98.8537 120.568 98.1142L120.94 98.343C120.483 99.088 120.002 99.8324 119.511 100.555ZM23.7793 99.6749C23.3032 98.9448 22.8372 98.1936 22.3941 97.4415L22.7705 97.2196C23.2103 97.9659 23.6727 98.7115 24.1452 99.4358L23.7793 99.6749ZM122.267 96.0667L121.885 95.8554C122.304 95.0961 122.712 94.3163 123.096 93.5376L123.488 93.7314C123.101 94.5159 122.69 95.3016 122.267 96.0667ZM124.601 91.3418L124.2 91.1664C124.549 90.371 124.883 89.5564 125.194 88.7454L125.602 88.9021C125.289 89.7194 124.952 90.5402 124.601 91.3418ZM18.873 90.3987C18.538 89.5946 18.2172 88.7719 17.9196 87.9532L18.3303 87.8038C18.6256 88.6163 18.9439 89.4326 19.2763 90.2305L18.873 90.3987ZM126.49 86.4179L126.076 86.2805C126.348 85.4586 126.606 84.6187 126.84 83.7836L127.261 83.9018C127.024 84.7433 126.765 85.5899 126.49 86.4179ZM17.0778 85.4601C16.8178 84.6272 16.5735 83.7763 16.3517 82.9308L16.7744 82.8198C16.9945 83.6589 17.237 84.5034 17.495 85.33L17.0778 85.4601ZM127.915 81.3528L127.489 81.2538C127.685 80.4115 127.863 79.5512 128.021 78.6973L128.45 78.7763C128.292 79.637 128.112 80.5036 127.915 81.3528ZM15.7432 80.3707C15.561 79.517 15.3961 78.6474 15.2531 77.7854L15.6841 77.7137C15.8261 78.5693 15.9897 79.4323 16.1706 80.2794L15.7432 80.3707ZM128.867 76.1784L128.434 76.1191C128.551 75.2631 128.65 74.3902 128.729 73.5246L129.164 73.5639C129.085 74.4363 128.985 75.3158 128.867 76.1784H128.867ZM14.882 75.1805C14.779 74.3153 14.6944 73.4342 14.6305 72.5615L15.0664 72.5295C15.1297 73.3957 15.2137 74.2701 15.316 75.1289L14.882 75.1805ZM129.342 70.9389L128.905 70.9193C128.944 70.0533 128.964 69.1749 128.964 68.3086H129.401C129.401 69.1815 129.381 70.0665 129.342 70.9389ZM14.4981 69.9333C14.4831 69.3975 14.4756 68.8507 14.4755 68.3086C14.4755 67.9723 14.4783 67.6366 14.4841 67.3016L14.9211 67.3092C14.9153 67.6417 14.9124 67.9749 14.9124 68.3086C14.9126 68.8467 14.9201 69.3894 14.9348 69.9214L14.4981 69.9333ZM15.0248 64.7L14.5887 64.6726C14.6432 63.7994 14.7185 62.9173 14.8123 62.051L15.2467 62.098C15.1536 62.9579 15.079 63.8332 15.0248 64.7H15.0248ZM128.682 62.0335C128.595 61.1718 128.475 60.7517 128.348 59.8938L128.78 59.83C128.908 60.6944 129.017 61.3543 129.105 62.2225L128.682 62.0335ZM15.5869 59.5091L15.155 59.4423C15.2889 58.5777 15.4445 57.7062 15.6174 56.8518L16.0457 56.9385C15.8741 57.7864 15.7197 58.6512 15.5869 59.5091H15.5869ZM127.907 57.3204C127.74 56.4678 127.552 55.6096 127.348 54.7696L127.772 54.6663C127.978 55.5127 128.168 56.3775 128.336 57.2365L127.907 57.3204ZM16.622 54.3917L16.1981 54.2854C16.4103 53.439 16.6453 52.5854 16.8967 51.7484L17.3151 51.8741C17.0658 52.7047 16.8326 53.5517 16.622 54.3917ZM126.672 52.2472C126.428 51.415 126.162 50.5778 125.881 49.7588L126.294 49.6166C126.577 50.442 126.846 51.2857 127.091 52.1242L126.672 52.2472ZM18.1262 49.3843L17.714 49.2394C18.0044 48.4132 18.3179 47.583 18.6459 46.772L19.0511 46.9359C18.7256 47.7406 18.4144 48.5645 18.1262 49.3843ZM124.975 47.3094C124.656 46.5051 124.315 45.6979 123.96 44.91L124.359 44.7306C124.716 45.5245 125.06 46.3379 125.381 47.1483L124.975 47.3094ZM20.0875 44.5335L19.6904 44.351C20.0554 43.556 20.4438 42.7588 20.845 41.9816L21.2333 42.182C20.8351 42.9534 20.4497 43.7445 20.0875 44.5335ZM122.836 42.5589C122.445 41.7873 122.031 41.0141 121.605 40.2611L121.985 40.0457C122.415 40.8046 122.832 41.5837 123.226 42.3613L122.836 42.5589ZM22.4859 39.8863L22.1071 39.6682C22.543 38.9112 23.0028 38.1533 23.4736 37.416L23.8418 37.6512C23.3747 38.3829 22.9184 39.135 22.4859 39.8863ZM120.269 38.0211C119.807 37.2859 119.324 36.5535 118.832 35.8441L119.191 35.595C119.687 36.3099 120.174 37.0479 120.639 37.7887L120.269 38.0211ZM25.2985 35.481L24.9413 35.2291C25.4451 34.5145 25.9718 33.8023 26.5071 33.1121L26.8524 33.3799C26.3212 34.065 25.7983 34.7718 25.2985 35.481ZM117.297 33.7344C116.77 33.0445 116.222 32.3588 115.666 31.6961L116.001 31.4154C116.561 32.0831 117.113 32.7741 117.644 33.4691L117.297 33.7344ZM28.5001 31.3526L28.1675 31.0692C28.7328 30.4051 29.322 29.744 29.9187 29.1044L30.2381 29.4026C29.646 30.0374 29.0613 30.6935 28.5001 31.3526ZM113.945 29.7337C113.358 29.0946 112.749 28.4612 112.135 27.8513L112.443 27.5412C113.062 28.1559 113.675 28.794 114.267 29.4379L113.945 29.7337ZM32.0625 27.5344L31.757 27.2219C32.3818 26.6105 33.0284 26.006 33.6787 25.4253L33.9697 25.7514C33.3244 26.3276 32.6827 26.9275 32.0625 27.5344V27.5344ZM110.242 26.0527C109.599 25.4692 108.935 24.8936 108.268 24.342L108.547 24.0053C109.218 24.561 109.887 25.1409 110.536 25.729L110.242 26.0527ZM35.9556 24.0571L35.6798 23.7182C36.3556 23.1677 37.0541 22.6248 37.7558 22.1045L38.0162 22.4556C37.3196 22.972 36.6264 23.5108 35.9556 24.0571V24.0571ZM40.1467 20.9502L39.9028 20.5876C40.6262 20.1008 41.3708 19.6241 42.1162 19.1705L42.3433 19.544C41.6036 19.9941 40.8646 20.4672 40.1467 20.9502ZM44.6012 18.2401L44.3915 17.8566C45.1567 17.4377 45.9414 17.0314 46.7236 16.6486L46.9156 17.0413C46.1394 17.4211 45.3607 17.8243 44.6012 18.2401H44.6012ZM97.3382 17.2274C96.5606 16.84 95.7641 16.4656 94.9708 16.1149L95.1475 15.7152C95.947 16.0686 96.7497 16.4458 97.5332 16.8362L97.3382 17.2274ZM49.2817 15.9502L49.108 15.5492C49.9077 15.2026 50.7258 14.8701 51.5393 14.5609L51.6945 14.9696C50.8871 15.2763 50.0753 15.6062 49.2817 15.9502H49.2817ZM92.554 15.1123C91.7449 14.7985 90.9168 14.499 90.0926 14.2225L90.2317 13.808C91.0621 14.0868 91.8966 14.3885 92.7119 14.7049L92.554 15.1123ZM54.1559 14.099L54.0198 13.6837C54.8502 13.4114 55.6975 13.155 56.538 12.9218L56.6548 13.3429C55.8207 13.5743 54.9799 13.8287 54.1559 14.099ZM87.5987 13.4492C86.7653 13.2115 85.9152 12.9902 85.0722 12.7914L85.1725 12.3661C86.0221 12.5664 86.8786 12.7894 87.7186 13.0287L87.5987 13.4492ZM59.186 12.7028L59.0887 12.2767C59.94 12.0822 60.8073 11.9049 61.6662 11.75L61.7438 12.18C60.8913 12.3339 60.0308 12.5097 59.186 12.7028ZM82.518 12.2511C81.6671 12.0913 80.8004 11.9492 79.9418 11.8286L80.0024 11.3958C80.8676 11.5174 81.7411 11.6606 82.5986 11.8215L82.518 12.2511ZM64.3232 11.7755L64.2653 11.3423C65.1303 11.2268 66.01 11.1297 66.88 11.0539L66.9179 11.4893C66.0546 11.5646 65.1818 11.6609 64.3232 11.7755ZM77.3487 11.5247C76.488 11.4436 75.6119 11.3811 74.7445 11.3392L74.7659 10.9025C75.6396 10.9449 76.5223 11.0078 77.3897 11.0896L77.3487 11.5247ZM69.5236 11.3217L69.5052 10.885C70.3084 10.8515 71.1268 10.8344 71.9383 10.8342L72.1361 10.8345L72.1348 11.2716L71.9383 11.2713C71.133 11.2715 70.3205 11.2885 69.5236 11.3217Z" fill="#3F3D56"/>
<path d="M170.086 50.9974L168.993 58.4276C168.993 58.4276 164.187 68.0431 167.245 77.8771L171.178 75.4732C171.178 75.4732 174.237 63.6724 174.237 62.7983C174.237 61.9241 175.548 51.653 175.548 51.653L170.086 50.9974Z" fill="#FCDEDE"/>
<path d="M172.271 74.8176L167.027 78.3142L169.649 91.2077C169.649 91.2077 170.304 108.69 170.086 109.346C169.867 110.002 165.935 136.663 165.935 136.663C165.935 136.663 170.523 138.848 174.674 137.537C174.674 137.537 178.825 117.869 178.825 112.187L183.632 92.3003L191.061 115.028C191.061 115.028 191.498 130.325 192.372 135.352C193.246 140.378 193.246 141.033 193.246 141.033C193.246 141.033 200.237 143 201.985 141.033C201.985 141.033 201.111 115.246 200.456 112.624L198.926 81.3736L172.271 74.8176Z" fill="#474747"/>
<path d="M167.682 136.663C167.682 136.663 167.245 136.007 165.935 137.755C164.624 139.504 160.472 142.782 160.472 142.782C160.472 142.782 149.111 150.867 157.632 151.304C166.153 151.742 167.682 147.371 167.682 147.371C167.682 147.371 174.893 146.06 175.111 144.53C175.33 143 174.237 136.881 174.237 136.881L167.682 136.663Z" fill="#2F2E41"/>
<path d="M193.683 140.596C193.683 140.596 192.153 145.841 192.59 148.026C193.027 150.212 191.716 158.298 197.834 157.642C203.952 156.986 201.985 149.993 201.985 149.993L200.019 141.033L193.683 140.596Z" fill="#2F2E41"/>
<path d="M185.052 26.1939C189.034 26.1939 192.263 22.9651 192.263 18.9822C192.263 14.9994 189.034 11.7706 185.052 11.7706C181.07 11.7706 177.842 14.9994 177.842 18.9822C177.842 22.9651 181.07 26.1939 185.052 26.1939Z" fill="#FCDEDE"/>
<path d="M180.792 22.8065C180.792 22.8065 182.977 30.4552 181.229 33.2962C179.481 36.1371 193.027 33.7332 193.901 31.1108C193.901 31.1108 189.531 26.3031 190.187 21.7139L180.792 22.8065Z" fill="#FCDEDE"/>
<path d="M184.288 33.0777C184.288 33.0777 190.269 33.4821 193.177 30.2205L203.952 34.826L199.363 60.1759C199.363 60.1759 208.54 81.5922 200.237 83.5591C191.935 85.5259 167.901 83.5591 168.993 76.3474C170.086 69.1358 174.456 60.3945 174.456 60.3945C174.456 60.3945 175.548 50.779 173.145 46.4083C170.741 42.0376 172.271 37.0113 172.271 37.0113L181.888 30.6378C181.888 30.6378 182.321 33.0777 184.288 33.0777Z" fill="#B42F3C"/>
<path d="M179.596 51.6169C179.416 51.6169 179.27 51.561 179.158 51.4494C179.053 51.3377 179 51.1919 179 51.012V45.5677C179 45.3878 179.05 45.2482 179.149 45.1489C179.254 45.0496 179.397 45 179.577 45H182.844C183.222 45 183.411 45.1613 183.411 45.4839C183.411 45.8004 183.222 45.9586 182.844 45.9586H180.182V47.7454H182.657C183.036 47.7454 183.225 47.9067 183.225 48.2293C183.225 48.5458 183.036 48.704 182.657 48.704H180.182V51.012C180.182 51.1919 180.129 51.3377 180.024 51.4494C179.918 51.561 179.776 51.6169 179.596 51.6169Z" fill="white"/>
<path d="M186.047 51.6634C185.867 51.6634 185.721 51.6076 185.61 51.4959C185.504 51.3842 185.451 51.2384 185.451 51.0585V45.5956C185.451 45.4157 185.504 45.273 185.61 45.1675C185.721 45.0558 185.867 45 186.047 45C186.233 45 186.379 45.0558 186.484 45.1675C186.596 45.273 186.652 45.4157 186.652 45.5956V51.0585C186.652 51.2384 186.596 51.3842 186.484 51.4959C186.379 51.6076 186.233 51.6634 186.047 51.6634Z" fill="white"/>
<path d="M194.257 50.7514C194.356 50.8693 194.406 50.9871 194.406 51.105C194.406 51.2539 194.347 51.3842 194.229 51.4959C194.117 51.6076 193.987 51.6634 193.838 51.6634C193.683 51.6634 193.546 51.5952 193.429 51.4587L191.539 49.1134L189.641 51.4587C189.529 51.589 189.396 51.6541 189.241 51.6541C189.092 51.6541 188.958 51.6014 188.84 51.4959C188.729 51.3842 188.673 51.2539 188.673 51.105C188.673 50.9809 188.72 50.8631 188.813 50.7514L190.841 48.2759L188.896 45.9027C188.803 45.8035 188.757 45.6856 188.757 45.5491C188.757 45.4002 188.813 45.273 188.924 45.1675C189.036 45.0558 189.166 45 189.315 45C189.47 45 189.607 45.0682 189.725 45.2047L191.539 47.4476L193.354 45.2047C193.466 45.0682 193.599 45 193.754 45C193.903 45 194.033 45.0558 194.145 45.1675C194.263 45.273 194.322 45.4002 194.322 45.5491C194.322 45.6856 194.275 45.8035 194.182 45.9027L192.237 48.2759L194.257 50.7514Z" fill="white"/>
<path d="M186.071 60.0192C185.885 60.0192 185.736 59.9664 185.625 59.861C185.519 59.7493 185.467 59.6035 185.467 59.4236V54.3981H183.773C183.4 54.3981 183.214 54.2337 183.214 53.9049C183.214 53.576 183.4 53.4116 183.773 53.4116H188.361C188.733 53.4116 188.919 53.576 188.919 53.9049C188.919 54.2337 188.733 54.3981 188.361 54.3981H186.667V59.4236C186.667 59.6035 186.611 59.7493 186.5 59.861C186.394 59.9664 186.251 60.0192 186.071 60.0192Z" fill="white"/>
<path d="M174.893 37.2299H172.271C172.271 37.2299 169.212 37.8855 169.867 46.1898L168.338 52.0902C168.338 52.0902 175.985 54.057 177.077 52.9643C178.17 51.8716 174.893 37.2299 174.893 37.2299Z" fill="#B42F3C"/>
<path d="M206.574 50.3418L205.7 57.9905C205.7 57.9905 206.792 68.043 203.078 75.9103L201.767 79.8439C201.767 79.8439 200.456 91.2076 196.96 91.2076C193.464 91.2076 196.96 78.3141 196.96 78.3141L198.708 65.4206C198.708 65.4206 200.019 60.3944 199.145 58.209C198.271 56.0237 198.053 51.4345 198.053 51.4345L206.574 50.3418Z" fill="#FCDEDE"/>
<path d="M183.281 14.2634C184.351 14.0959 185.43 13.989 186.512 13.943C187.296 13.9097 188.113 13.915 188.821 14.2524C189.889 14.7613 190.488 15.9115 190.88 17.0282C191.272 18.1448 191.549 19.3382 192.276 20.2719C193.486 19.0092 193.728 17.1319 193.908 15.3925C194.034 14.169 194.147 12.8645 193.581 11.7723C193.233 11.0996 192.658 10.5754 192.076 10.0908C189.297 7.77726 185.767 5.95683 182.189 6.47646L182.105 7.02901C181.494 7.01065 180.883 7.04906 180.28 7.14374L180.408 8.5146L178.507 8.63519L178.434 10.0639L176.512 10.1306C176.549 10.6796 176.788 11.1955 177.182 11.5788C176.887 11.7925 176.551 11.9442 176.195 12.0249C176.516 13.2659 176.827 14.5098 177.158 15.7481C177.402 16.6602 177.358 17.4662 178.336 17.021C179.081 16.6821 179.585 15.6042 180.338 15.1589C181.225 14.6343 182.275 14.4207 183.281 14.2634Z" fill="#2F2E41"/>
<path d="M200.893 35.0444H203.952C203.952 35.0444 208.977 51.8715 208.103 52.0901C207.229 52.3086 196.96 52.9642 196.96 52.9642L200.893 35.0444Z" fill="#B42F3C"/>
<path d="M70.7822 84.9795C80.5563 84.9795 88.4798 77.0544 88.4798 67.2783C88.4798 57.5021 80.5563 49.577 70.7822 49.577C61.008 49.577 53.0845 57.5021 53.0845 67.2783C53.0845 77.0544 61.008 84.9795 70.7822 84.9795Z" fill="#B42F3C"/>
<path d="M81.9252 65.53H72.5301V56.1331H69.0343V65.53H59.6392V69.0266H69.0343V78.4235H72.5301V69.0266H81.9252V65.53Z" fill="white"/>
<path d="M39.713 97.1797H15.6458V125.225H39.713V97.1797Z" fill="#F2F2F2"/>
<path d="M49.0595 125.459H15.4121V91.8044H49.0595V125.459ZM15.8794 124.991H48.5922V92.2719H15.8794V124.991Z" fill="#3F3D56"/>
<path d="M42.9843 101.62H22.4219V102.088H42.9843V101.62Z" fill="#3F3D56"/>
<path d="M42.9843 106.762H22.4219V107.229H42.9843V106.762Z" fill="#3F3D56"/>
<path d="M42.9843 111.903H22.4219V112.371H42.9843V111.903Z" fill="#3F3D56"/>
<path d="M97.6194 4.99011H49.1147V29.065H97.6194V4.99011Z" fill="#F2F2F2"/>
<path d="M107.452 29.2835H48.8962V0H107.452V29.2835ZM49.3332 28.8465H107.015V0.437068H49.3332V28.8465Z" fill="#3F3D56"/>
<path d="M59 7V25H59.75V7H59Z" fill="#3F3D56"/>
<path d="M62 7V25H62.75V7H62Z" fill="#3F3D56"/>
<path d="M65 7V25H66V7H65Z" fill="#3F3D56"/>
<path d="M85 7V25H86V7H85Z" fill="#3F3D56"/>
<path d="M68 7V25H68.75V7H68Z" fill="#3F3D56"/>
<path d="M71 7V25H71.75V7H71Z" fill="#3F3D56"/>
<path d="M87 7V25H87.75V7H87Z" fill="#3F3D56"/>
<path d="M74 7V25H74.75V7H74Z" fill="#3F3D56"/>
<path d="M89 7V25H89.75V7H89Z" fill="#3F3D56"/>
<path d="M92 7V25H92.75V7H92Z" fill="#3F3D56"/>
<path d="M95 7V25H95.75V7H95Z" fill="#3F3D56"/>
<path d="M77 7V25H77.75V7H77Z" fill="#3F3D56"/>
<path d="M80 7V25H80.75V7H80Z" fill="#3F3D56"/>
<path d="M83 7V25H83.75V7H83Z" fill="#3F3D56"/>
<path d="M82 7V25H82.25V7H82Z" fill="#3F3D56"/>
<path d="M61 7V25H61.25V7H61Z" fill="#3F3D56"/>
<path d="M136.548 65.7485H115.791V87.8205H136.548V65.7485Z" fill="#F2F2F2"/>
<path d="M141.791 88.0389H115.573V61.8148H141.791V88.0389ZM116.01 87.6018H141.354V62.2519H116.01V87.6018Z" fill="#3F3D56"/>
<path d="M133.38 73.725H118.959V74.162H133.38V73.725Z" fill="#3F3D56"/>
<path d="M133.38 76.5659H118.959V77.003H133.38V76.5659Z" fill="#3F3D56"/>
<path d="M133.38 79.4069H118.959V79.8439H133.38V79.4069Z" fill="#3F3D56"/>
<path d="M128.158 28.8464H28.1892V29.2835H128.158V28.8464Z" fill="#3F3D56"/>
<path d="M156.102 87.6018H101.261V88.0389H156.102V87.6018Z" fill="#3F3D56"/>
<path d="M64.4716 125.19H0V125.627H64.4716V125.19Z" fill="#3F3D56"/>
</svg>
