<svg width="230" height="166" viewBox="0 0 230 166" fill="none" xmlns="http://www.w3.org/2000/svg">
<path d="M210.165 125.491L183.172 132.813L203.243 123.415C196.428 121.728 188.709 120.784 180.569 120.815C178.095 120.825 175.665 120.922 173.291 121.101C166.637 121.602 159.957 121.654 153.296 121.258L98.7426 132.813L142.427 120.183C134.834 119.12 127.621 117.429 121.145 115.121C119.938 114.691 118.703 114.278 117.441 113.882L29.888 142.234C29.888 142.234 66.4447 122.382 91.6869 108.743C86.4362 108.214 81.1622 107.95 75.8851 107.953C33.9749 107.953 0 124.222 0 144.292C0 152.218 5.30022 159.551 14.2945 165.524H201.918C218.517 161.762 230 153.67 230 144.292C230 136.637 222.161 129.788 210.165 125.491Z" fill="#F0F0F0"/>
<path d="M181.3 136.786C186.144 151.414 184.443 165.148 184.443 165.148C184.443 165.148 174.887 155.166 170.043 140.539C165.199 125.911 166.9 112.177 166.9 112.177C166.9 112.177 176.456 122.159 181.3 136.786Z" fill="#B42F3C"/>
<path d="M187.586 136.786C182.741 151.414 184.443 165.148 184.443 165.148C184.443 165.148 193.998 155.166 198.842 140.539C203.686 125.911 201.985 112.177 201.985 112.177C201.985 112.177 192.43 122.159 187.586 136.786Z" fill="#B42F3C"/>
<path d="M189.537 136.944C189.861 152.355 184.195 164.973 184.195 164.973C184.195 164.973 178.002 152.606 177.678 137.196C177.353 121.785 183.019 109.167 183.019 109.167C183.019 109.167 189.212 121.534 189.537 136.944Z" fill="#3F3D56"/>
<path d="M183.607 124.833C184.438 124.833 185.111 124.158 185.111 123.325C185.111 122.492 184.438 121.816 183.607 121.816C182.777 121.816 182.104 122.492 182.104 123.325C182.104 124.158 182.777 124.833 183.607 124.833Z" fill="#B42F3C"/>
<path d="M180.683 136.232C181.145 136.232 181.519 135.857 181.519 135.394C181.519 134.931 181.145 134.556 180.683 134.556C180.222 134.556 179.848 134.931 179.848 135.394C179.848 135.857 180.222 136.232 180.683 136.232Z" fill="#B42F3C"/>
<path d="M170.492 127.935C170.954 127.935 171.328 127.559 171.328 127.096C171.328 126.634 170.954 126.258 170.492 126.258C170.031 126.258 169.657 126.634 169.657 127.096C169.657 127.559 170.031 127.935 170.492 127.935Z" fill="#3F3D56"/>
<path d="M199.98 119.805C200.441 119.805 200.815 119.43 200.815 118.967C200.815 118.504 200.441 118.129 199.98 118.129C199.518 118.129 199.144 118.504 199.144 118.967C199.144 119.43 199.518 119.805 199.98 119.805Z" fill="#3F3D56"/>
<path d="M174.836 135.813C175.297 135.813 175.671 135.438 175.671 134.975C175.671 134.512 175.297 134.137 174.836 134.137C174.375 134.137 174.001 134.512 174.001 134.975C174.001 135.438 174.375 135.813 174.836 135.813Z" fill="#3F3D56"/>
<path d="M192.378 130.952C192.839 130.952 193.213 130.576 193.213 130.114C193.213 129.651 192.839 129.275 192.378 129.275C191.917 129.275 191.543 129.651 191.543 130.114C191.543 130.576 191.917 130.952 192.378 130.952Z" fill="#3F3D56"/>
<path d="M175.337 148.133C175.799 148.133 176.173 147.758 176.173 147.295C176.173 146.832 175.799 146.457 175.337 146.457C174.876 146.457 174.502 146.832 174.502 147.295C174.502 147.758 174.876 148.133 175.337 148.133Z" fill="#3F3D56"/>
<path d="M193.213 143.356C193.675 143.356 194.049 142.98 194.049 142.518C194.049 142.055 193.675 141.679 193.213 141.679C192.752 141.679 192.378 142.055 192.378 142.518C192.378 142.98 192.752 143.356 193.213 143.356Z" fill="#3F3D56"/>
<path d="M185.111 144.194C185.572 144.194 185.946 143.819 185.946 143.356C185.946 142.893 185.572 142.518 185.111 142.518C184.649 142.518 184.275 142.893 184.275 143.356C184.275 143.819 184.649 144.194 185.111 144.194Z" fill="#B42F3C"/>
<path d="M222.526 164.556H6.26831V165.04H222.526V164.556Z" fill="#2F2E41"/>
<path d="M107.839 24.9832H107.839C110.255 24.9832 112.571 25.9459 114.279 27.6595C115.987 29.3732 116.947 31.6974 116.947 34.1209V45.3748H98.7319V34.1209C98.7319 31.6974 99.6915 29.3732 101.399 27.6595C103.107 25.9459 105.424 24.9832 107.839 24.9832Z" fill="#6F311D"/>
<path d="M90.2956 51.5308C90.2956 51.5308 80.9965 48.549 79.4626 51.2422C77.9287 53.9355 79.0791 57.9753 79.4626 59.5143C79.846 61.0533 82.7221 79.1364 90.3915 74.3271C98.0609 69.5178 90.2956 51.5308 90.2956 51.5308Z" fill="#474747"/>
<path opacity="0.1" d="M90.2956 51.5308C90.2956 51.5308 80.9965 48.549 79.4626 51.2422C77.9287 53.9355 79.0791 57.9753 79.4626 59.5143C79.846 61.0533 82.7221 79.1364 90.3915 74.3271C98.0609 69.5178 90.2956 51.5308 90.2956 51.5308Z" fill="black"/>
<path d="M88.4741 57.7829H80.613C80.613 57.7829 76.5307 55.8585 78.8595 52.8771C81.1882 49.8956 89.8163 52.5888 89.8163 52.5888L88.4741 57.7829Z" fill="#FFD7D7"/>
<path d="M136.216 72.7881L143.885 80.483C143.885 80.483 150.213 79.7136 151.555 82.022C152.897 84.3305 142.352 84.5229 142.352 84.5229L131.423 73.5576L136.216 72.7881Z" fill="#FFD7D7"/>
<path d="M91.7336 94.334L90.1997 108.954C90.1997 108.954 90.7749 117.226 87.3237 122.228C83.8725 127.23 80.8047 147.044 80.8047 147.044C80.8047 147.044 76.7783 156.471 80.4213 157.048C84.0642 157.625 84.0642 150.892 84.0642 150.892L86.1733 143.389C86.1733 143.389 91.5419 133.578 93.4592 126.653C93.4592 126.653 99.403 117.804 99.403 113.571C99.403 109.339 101.704 94.334 101.704 94.334H91.7336Z" fill="#FFB6B6"/>
<path d="M103.621 96.4502L107.072 114.341C107.072 114.341 107.264 121.459 108.031 124.344C108.031 124.344 108.415 134.733 109.757 138.965C111.099 143.197 112.057 149.545 112.057 149.545L111.099 151.277L112.057 157.433L114.358 160.895L116.851 158.779L116.276 146.852C116.276 146.852 117.426 129.154 115.892 125.306L114.934 103.183L114.742 96.4502H103.621Z" fill="#FFB6B6"/>
<path d="M97.6774 53.3582L90.7749 96.8348C90.7749 96.8348 99.9782 95.8729 102.854 98.1814C105.73 100.49 115.892 99.1432 115.892 99.1432L116.402 59.155L113.016 51.4345L101.32 50.4727L97.6774 53.3582Z" fill="#B42F3C"/>
<path d="M103.429 38.9304C103.429 38.9304 104.388 47.7796 103.429 48.7415C102.471 49.7034 113.783 48.7415 113.783 48.7415C113.783 48.7415 110.715 39.5076 111.099 38.3533C111.482 37.1991 103.429 38.9304 103.429 38.9304Z" fill="#FFD7D7"/>
<path opacity="0.1" d="M103.429 38.9304C103.429 38.9304 104.388 47.7796 103.429 48.7415C102.471 49.7034 113.783 48.7415 113.783 48.7415C113.783 48.7415 110.715 39.5076 111.099 38.3533C111.482 37.1991 103.429 38.9304 103.429 38.9304Z" fill="black"/>
<path d="M107.839 45.6634L103.429 43.5473C103.429 43.5473 101.129 42.7778 101.129 43.932C101.129 45.0863 99.5948 45.2786 100.17 46.4329C100.745 47.5871 104.58 51.627 118.576 50.4727C118.576 50.4727 121.452 49.5109 124.712 51.8194C124.712 51.8194 122.986 47.3948 114.742 41.8159L107.839 45.6634Z" fill="#474747"/>
<path d="M101.129 45.4712C101.129 45.4712 98.8278 47.2026 98.8278 47.5873C98.8278 47.9721 88.8576 76.4434 88.8576 76.4434C88.8576 76.4434 70.4511 95.6808 71.985 97.2198C73.5189 98.7588 74.094 99.9131 76.3949 100.298C76.3949 100.298 81.5717 108.955 94.2262 107.608L103.429 61.6306L106.881 54.128C106.881 54.128 105.922 85.6774 108.606 85.6774H112.058C112.058 85.6774 112.441 109.724 114.55 109.724C116.659 109.724 118.768 108.955 118.576 107.993C118.385 107.031 118.001 97.2198 118.001 97.2198C118.001 97.2198 123.37 100.105 123.37 98.3741C123.37 96.6427 121.453 82.5994 121.453 82.5994L120.302 49.1263L115.892 46.0483L101.129 45.4712Z" fill="#474747"/>
<path d="M99.7864 47.7796H98.8278C97.505 47.7035 96.1849 47.9684 94.9931 48.5491L81.5717 50.2805C81.5717 50.2805 85.5981 50.6652 86.365 55.2822C87.1319 59.8992 87.8989 62.7848 88.2824 62.9772C88.6658 63.1695 86.1733 77.4052 90.5832 79.329C94.9931 81.2527 98.0608 77.79 99.2112 72.5959C100.362 67.4018 104.388 49.8957 104.388 49.8957L99.7864 47.7796Z" fill="#474747"/>
<path d="M121.261 48.7415L125.095 51.8194C125.095 51.8194 125.287 54.3203 127.588 56.4364C129.889 58.5525 138.709 73.9424 138.325 74.3272C137.942 74.7119 124.52 75.6738 125.287 79.906C126.054 84.1383 120.494 83.9459 120.494 83.9459L115.509 53.7432L121.261 48.7415Z" fill="#474747"/>
<path d="M80.2881 57.7229L67.5647 45.2305C67.5647 45.2305 57.4424 42.2447 59.2579 40.04C61.0733 37.8352 70.2833 41.8273 70.2833 41.8273L82.0636 51.475L80.9872 57.4987C80.9739 57.5732 80.9405 57.6427 80.8908 57.6996C80.8411 57.7566 80.7768 57.7989 80.7049 57.8219C80.633 57.845 80.5562 57.848 80.4828 57.8305C80.4093 57.8131 80.342 57.7758 80.2881 57.7229Z" fill="#FFD7D7"/>
<path d="M78.8874 148.776L76.3948 157.433C76.3948 157.433 74.2858 164.221 78.8874 164.798C83.489 165.375 82.5303 161.528 82.5303 161.528L83.1199 155.459C83.1199 155.459 79.5457 158.317 79.2708 154.547C79.119 152.12 79.6154 149.696 80.7089 147.525L78.8874 148.776Z" fill="#2F2E41"/>
<path d="M112.633 163.589L112.057 160.895H110.907L109.948 159.934C109.948 159.934 111.099 155.701 110.332 153.778C109.565 151.854 109.948 149.738 112.057 149.545C112.057 149.545 110.715 155.317 113.975 158.395C113.975 158.395 116.969 160.138 116.814 158.016L116.851 155.616L117.618 158.779C117.618 158.779 118.193 161.857 119.152 162.627C120.11 163.396 119.535 165.128 116.851 164.743C114.167 164.358 112.633 163.589 112.633 163.589Z" fill="#2F2E41"/>
<path d="M106.977 53.6469C107.294 53.6469 107.552 53.3885 107.552 53.0698C107.552 52.7511 107.294 52.4927 106.977 52.4927C106.659 52.4927 106.401 52.7511 106.401 53.0698C106.401 53.3885 106.659 53.6469 106.977 53.6469Z" fill="#B42F3C"/>
<path d="M107.743 41.5275C111.45 41.5275 114.454 38.513 114.454 34.7944C114.454 31.0758 111.45 28.0613 107.743 28.0613C104.037 28.0613 101.033 31.0758 101.033 34.7944C101.033 38.513 104.037 41.5275 107.743 41.5275Z" fill="#FFD7D7"/>
<path d="M100.458 35.1791L105.634 28.8307C105.634 28.8307 111.386 35.7562 115.413 35.5638L116.18 31.5239L112.345 27.6765L107.552 26.5222L102.95 27.4841L99.1624 31.3382L100.458 35.1791Z" fill="#6F311D"/>
<path d="M63.0012 22.9121H61.4855C61.3797 22.9121 61.2939 22.9979 61.2939 23.1036C61.2939 23.2094 61.3797 23.2952 61.4855 23.2952H63.0012C63.1069 23.2952 63.1927 23.2094 63.1927 23.1036C63.1927 22.9979 63.1069 22.9121 63.0012 22.9121Z" fill="#B42F3C"/>
<path d="M63.0012 23.8412H61.4855C61.3797 23.8412 61.2939 23.9269 61.2939 24.0327C61.2939 24.1385 61.3797 24.2242 61.4855 24.2242H63.0012C63.1069 24.2242 63.1927 24.1385 63.1927 24.0327C63.1927 23.927 63.1069 23.8412 63.0012 23.8412Z" fill="#B42F3C"/>
<path d="M63.531 22H53.7892C53.3541 22 53 22.354 53 22.7892V34.2766C53 34.7118 53.354 35.0658 53.7892 35.0658H63.5309C63.9661 35.0658 64.3201 34.7118 64.3201 34.2766V22.7892C64.3202 22.354 63.9661 22 63.531 22V22ZM63.9371 34.2766C63.9371 34.5006 63.7549 34.6828 63.531 34.6828H53.7892C53.5653 34.6828 53.383 34.5006 53.383 34.2766V25.1361H54.0931C54.1989 25.1361 54.2846 25.0504 54.2846 24.9446C54.2846 24.8388 54.1989 24.7531 54.0931 24.7531H53.383V22.7892C53.383 22.5652 53.5652 22.383 53.7892 22.383H60.3072V24.7531H54.9884C54.8826 24.7531 54.7969 24.8388 54.7969 24.9446C54.7969 25.0504 54.8826 25.1361 54.9884 25.1361H63.9371V34.2766ZM63.9371 24.7531H60.6902V22.383H63.531C63.7549 22.383 63.9371 22.5652 63.9371 22.7892V24.7531Z" fill="#B42F3C"/>
<path d="M54.6467 29.9047C54.6467 30.786 54.927 31.6224 55.4572 32.3235C55.5212 32.4082 55.6414 32.4244 55.7255 32.3607C55.8099 32.2969 55.8266 32.1768 55.7627 32.0925C55.2832 31.4584 55.0298 30.7019 55.0298 29.9047C55.0298 27.903 56.6583 26.2744 58.6601 26.2744C59.4573 26.2744 60.2138 26.5279 60.8479 27.0074C60.9323 27.0712 61.0523 27.0545 61.1161 26.9701C61.18 26.8858 61.1633 26.7656 61.0789 26.7018C60.3778 26.1716 59.5415 25.8914 58.6602 25.8914C56.4471 25.8914 54.6467 27.6917 54.6467 29.9047Z" fill="#B42F3C"/>
<path d="M62.2905 29.9047C62.2905 31.9065 60.6619 33.535 58.6601 33.535C57.8191 33.535 56.9993 33.2409 56.3517 32.7067C56.2701 32.6394 56.1494 32.6509 56.082 32.7325C56.0147 32.8141 56.0263 32.9349 56.1079 33.0022C56.824 33.5928 57.7303 33.9181 58.6601 33.9181C60.8731 33.9181 62.6735 32.1177 62.6735 29.9047C62.6735 28.975 62.3482 28.0686 61.7576 27.3525C61.6903 27.2709 61.5695 27.2593 61.488 27.3266C61.4064 27.3939 61.3948 27.5146 61.4621 27.5962C61.9963 28.2438 62.2905 29.0637 62.2905 29.9047Z" fill="#B42F3C"/>
<path d="M58.6601 32.9861C60.3592 32.9861 61.7414 31.6038 61.7414 29.9048C61.7414 28.2058 60.3592 26.8235 58.6601 26.8235C56.9611 26.8235 55.5789 28.2058 55.5789 29.9048C55.5789 31.6038 56.9611 32.9861 58.6601 32.9861ZM55.9619 29.9048C55.9619 28.417 57.1723 27.2065 58.6601 27.2065C60.148 27.2065 61.3584 28.417 61.3584 29.9048C61.3584 30.1503 61.3252 30.3883 61.2635 30.6146C61.1355 30.6518 61.0432 30.7103 60.9657 30.7595C60.8531 30.8311 60.7717 30.8828 60.5866 30.8828C60.1929 30.8828 60.1602 30.5764 59.6232 30.5764C59.0849 30.5764 59.0564 30.8828 58.66 30.8828C58.2664 30.8828 58.2337 30.5764 57.6968 30.5764C57.1585 30.5764 57.1299 30.8828 56.7336 30.8828C56.5485 30.8828 56.4672 30.8311 56.3546 30.7595C56.2771 30.7103 56.1848 30.6518 56.0569 30.6146C55.9951 30.3883 55.9619 30.1503 55.9619 29.9048ZM56.7336 31.2658C57.2718 31.2658 57.3004 30.9594 57.6968 30.9594C58.0905 30.9594 58.123 31.2658 58.66 31.2658C59.1983 31.2658 59.2268 30.9594 59.6232 30.9594C60.0169 30.9594 60.0495 31.2658 60.5866 31.2658C60.7982 31.2658 60.9401 31.2142 61.0507 31.1549C60.5991 32.0149 59.6971 32.603 58.6601 32.603C57.6232 32.603 56.7212 32.015 56.2696 31.155C56.3801 31.2142 56.522 31.2658 56.7336 31.2658Z" fill="#B42F3C"/>
<path d="M57.3151 23.7794V23.3572C57.3151 23.1005 57.1063 22.8916 56.8495 22.8916H54.3672C54.1105 22.8916 53.9016 23.1005 53.9016 23.3572V23.7794C53.9016 24.0361 54.1105 24.245 54.3672 24.245H56.8495C57.1063 24.245 57.3151 24.0361 57.3151 23.7794ZM54.2847 23.7794V23.3572C54.2847 23.3117 54.3217 23.2746 54.3672 23.2746H56.8495C56.895 23.2746 56.9321 23.3116 56.9321 23.3572V23.7794C56.9321 23.8249 56.8951 23.862 56.8495 23.862H54.3672C54.3217 23.862 54.2847 23.8249 54.2847 23.7794Z" fill="#B42F3C"/>
<path d="M58.6601 24.2917C59.059 24.2917 59.3836 23.9672 59.3836 23.5682C59.3836 23.1693 59.059 22.8447 58.6601 22.8447C58.2611 22.8447 57.9366 23.1693 57.9366 23.5682C57.9366 23.9672 58.2611 24.2917 58.6601 24.2917ZM58.6601 23.2278C58.8478 23.2278 59.0006 23.3805 59.0006 23.5682C59.0006 23.756 58.8478 23.9087 58.6601 23.9087C58.4723 23.9087 58.3196 23.756 58.3196 23.5682C58.3196 23.3805 58.4724 23.2278 58.6601 23.2278Z" fill="#B42F3C"/>
<path d="M154.746 75.2003H148.254C147.564 75.2003 147 74.636 147 73.9463V60.254C147 59.5642 147.564 59 148.254 59H154.746C155.436 59 156 59.5642 156 60.254V73.9463C156 74.636 155.436 75.2003 154.746 75.2003Z" fill="#B42F3C"/>
<path d="M155.406 60.2784H147.594V73.0539H155.406V60.2784Z" fill="white"/>
<path d="M152.672 59.7728H151.073C151.001 59.7728 150.942 59.7141 150.942 59.6422C150.942 59.5703 151.001 59.5116 151.073 59.5116H152.672C152.743 59.5116 152.802 59.5703 152.802 59.6422C152.802 59.7141 152.743 59.7728 152.672 59.7728Z" fill="white"/>
<path d="M150.328 59.7728C150.4 59.7728 150.459 59.7143 150.459 59.6422C150.459 59.5701 150.4 59.5116 150.328 59.5116C150.256 59.5116 150.198 59.5701 150.198 59.6422C150.198 59.7143 150.256 59.7728 150.328 59.7728Z" fill="white"/>
<path d="M151.5 74.7434C151.159 74.7434 150.882 74.4663 150.882 74.1258C150.882 73.7854 151.159 73.5082 151.5 73.5082C151.84 73.5082 152.118 73.7854 152.118 74.1258C152.118 74.4663 151.841 74.7434 151.5 74.7434ZM151.5 73.6345C151.229 73.6345 151.009 73.8547 151.009 74.1256C151.009 74.3964 151.229 74.6166 151.5 74.6166C151.771 74.6166 151.991 74.3964 151.991 74.1256C151.991 73.8547 151.771 73.6345 151.5 73.6345Z" fill="white"/>
<path d="M180 44.4663V32.5337C180 31.688 179.312 31 178.466 31H166.534C165.688 31 165 31.688 165 32.5337V44.4663C165 45.312 165.688 46 166.534 46H178.466C179.312 46 180 45.312 180 44.4663ZM165.439 32.5337C165.439 31.9303 165.93 31.4395 166.534 31.4395H178.466C179.07 31.4395 179.561 31.9303 179.561 32.5337V34.3603H165.439V32.5337ZM178.096 36.6319V44.0957H176.119C177.101 43.5275 177.764 42.4654 177.764 41.2513C177.764 39.4407 176.291 37.9677 174.48 37.9677C173.73 37.9677 173.005 38.2263 172.427 38.6896V37.6735C172.427 37.3296 172.147 37.0498 171.803 37.0498H168.495C168.151 37.0498 167.871 37.3296 167.871 37.6735V39.1226C167.871 39.4874 167.96 39.851 168.128 40.1738C168.184 40.2814 168.317 40.3232 168.425 40.2671C168.532 40.211 168.574 40.0783 168.518 39.9707C168.38 39.7066 168.311 39.4212 168.311 39.1226V37.6735C168.311 37.5719 168.393 37.4893 168.495 37.4893H171.803C171.905 37.4893 171.987 37.5719 171.987 37.6735V39.1226C171.987 40.1549 171.073 41.0052 170.05 40.9581C170.049 40.958 170.048 40.958 170.047 40.9578C169.671 40.9344 169.312 40.8022 169.016 40.5694C168.92 40.4945 168.782 40.5112 168.707 40.6066C168.632 40.7021 168.649 40.8402 168.744 40.9152C168.968 41.0909 169.217 41.2207 169.482 41.3016V42.978C169.388 43.0209 169.266 43.0893 169.142 43.194C168.947 43.3598 168.722 43.6449 168.672 44.0957H166.904V36.6319C166.904 36.6319 167.51 36.3261 167.51 36.3261C167.901 36.1288 168.376 36.129 168.766 36.3261C169.277 36.5835 169.902 36.5865 170.418 36.3261C170.809 36.1284 171.283 36.1288 171.674 36.3261C172.189 36.5857 172.811 36.5861 173.326 36.3261C173.712 36.1311 174.191 36.1283 174.582 36.3261C175.092 36.5838 175.718 36.5865 176.234 36.3261C176.625 36.1284 177.098 36.1287 177.49 36.3261L178.096 36.6319ZM170.149 41.4004C170.226 41.4004 170.301 41.3965 170.376 41.3891V42.9092H169.922V41.3889C169.922 41.3889 169.923 41.3889 169.923 41.3891C169.957 41.392 170.107 41.4004 170.149 41.4004ZM169.736 43.3486H170.562C170.671 43.3865 171.098 43.5672 171.182 44.0957H169.116C169.199 43.5672 169.627 43.3865 169.736 43.3486ZM171.625 44.0957C171.555 43.468 171.135 43.1199 170.815 42.9759V41.3007C170.949 41.2597 171.077 41.2065 171.199 41.1429C171.198 41.1791 171.197 41.2151 171.197 41.2513C171.197 42.4654 171.859 43.5275 172.841 44.0957H171.625ZM172.05 40.3759C172.26 40.0556 172.39 39.6813 172.419 39.299C172.419 39.2962 172.42 39.2934 172.42 39.2907C172.956 38.7283 173.702 38.4072 174.48 38.4072C176.048 38.4072 177.324 39.6831 177.324 41.2513C177.324 42.8196 176.048 44.0954 174.48 44.0954C172.912 44.0954 171.636 42.8196 171.636 41.2513C171.636 41.1066 171.647 40.9615 171.669 40.8189C171.814 40.6886 171.943 40.5391 172.05 40.3759ZM178.096 36.1397L177.687 35.9337C177.174 35.6746 176.549 35.6742 176.036 35.9338C175.644 36.1313 175.171 36.1314 174.78 35.9338C174.265 35.674 173.642 35.6742 173.128 35.9338C172.742 36.1283 172.263 36.1312 171.872 35.9337C171.359 35.6743 170.734 35.6743 170.22 35.9338C169.829 36.1315 169.356 36.1314 168.964 35.9337C168.455 35.6764 167.827 35.674 167.312 35.9338L166.904 36.1397V34.7998H178.096V36.1397ZM165.439 44.4663V34.7998H166.465V44.3154C166.465 44.4367 166.563 44.5352 166.685 44.5352H178.315C178.437 44.5352 178.535 44.4367 178.535 44.3154V34.7998H179.561V44.4663C179.561 45.0697 179.07 45.5605 178.466 45.5605H166.534C165.93 45.5605 165.439 45.0697 165.439 44.4663Z" fill="#B42F3C"/>
<path d="M173.165 33.8334H177.973C178.283 33.8334 178.535 33.581 178.535 33.2707V32.529C178.535 32.2188 178.283 31.9664 177.973 31.9664H173.165C172.855 31.9664 172.603 32.2188 172.603 32.529V33.2707C172.603 33.581 172.855 33.8334 173.165 33.8334ZM173.042 32.529C173.042 32.461 173.097 32.4059 173.165 32.4059H177.973C178.04 32.4059 178.096 32.461 178.096 32.529V33.2707C178.096 33.3387 178.04 33.394 177.973 33.394H173.165C173.097 33.394 173.042 33.3387 173.042 33.2707V32.529Z" fill="#B42F3C"/>
<path d="M168.085 33.7748C168.567 33.7748 168.96 33.3823 168.96 32.8999C168.96 32.4174 168.567 32.025 168.085 32.025C167.603 32.025 167.21 32.4174 167.21 32.8999C167.21 33.3823 167.603 33.7748 168.085 33.7748ZM168.085 32.4645C168.325 32.4645 168.52 32.6597 168.52 32.8999C168.52 33.14 168.325 33.3354 168.085 33.3354C167.845 33.3354 167.65 33.14 167.65 32.8999C167.65 32.6597 167.845 32.4645 168.085 32.4645Z" fill="#B42F3C"/>
<path d="M170.337 33.7748C170.819 33.7748 171.212 33.3823 171.212 32.8999C171.212 32.4174 170.819 32.025 170.337 32.025C169.854 32.025 169.462 32.4174 169.462 32.8999C169.462 33.3823 169.854 33.7748 170.337 33.7748ZM170.337 32.4645C170.577 32.4645 170.772 32.6597 170.772 32.8999C170.772 33.14 170.577 33.3354 170.337 33.3354C170.097 33.3354 169.901 33.14 169.901 32.8999C169.901 32.6597 170.097 32.4645 170.337 32.4645Z" fill="#B42F3C"/>
<path d="M174.48 43.5095C175.725 43.5095 176.738 42.4964 176.738 41.2513C176.738 40.7797 176.593 40.3271 176.319 39.9425C176.248 39.8437 176.111 39.8208 176.012 39.8913C175.913 39.9618 175.891 40.099 175.961 40.1978C176.182 40.5075 176.299 40.8717 176.299 41.2513C176.299 42.2542 175.483 43.07 174.48 43.07C173.477 43.07 172.661 42.2542 172.661 41.2513C172.661 40.2486 173.477 39.4327 174.48 39.4327C174.801 39.4327 175.117 39.5182 175.394 39.6802C175.499 39.7414 175.634 39.706 175.695 39.6013C175.756 39.4965 175.721 39.362 175.616 39.3007C175.272 39.0996 174.879 38.9933 174.48 38.9933C173.235 38.9933 172.222 40.0062 172.222 41.2513C172.222 42.4964 173.235 43.5095 174.48 43.5095Z" fill="#B42F3C"/>
<path d="M91.75 0H79.25C78.9186 0.000396964 78.6009 0.13222 78.3666 0.366555C78.1322 0.600889 78.0004 0.918601 78 1.25V10.75C78.0004 11.0814 78.1322 11.3991 78.3666 11.6334C78.6009 11.8678 78.9186 11.9996 79.25 12H83.3892L82.8267 13.5H82.25C82.0511 13.5 81.8603 13.579 81.7197 13.7197C81.579 13.8603 81.5 14.0511 81.5 14.25V14.75C81.5 14.8163 81.5263 14.8799 81.5732 14.9268C81.6201 14.9737 81.6837 15 81.75 15H89.25C89.3163 15 89.3799 14.9737 89.4268 14.9268C89.4737 14.8799 89.5 14.8163 89.5 14.75V14.25C89.5 14.0511 89.421 13.8603 89.2803 13.7197C89.1397 13.579 88.9489 13.5 88.75 13.5H88.1733L87.6108 12H91.75C92.0814 11.9996 92.3991 11.8678 92.6334 11.6334C92.8678 11.3991 92.9996 11.0814 93 10.75V1.25C92.9996 0.918601 92.8678 0.600889 92.6334 0.366555C92.3991 0.13222 92.0814 0.000396964 91.75 0ZM79.25 0.5H91.75C91.9489 0.5 92.1397 0.579018 92.2803 0.71967C92.421 0.860322 92.5 1.05109 92.5 1.25V9H78.5V1.25C78.5 1.05109 78.579 0.860322 78.7197 0.71967C78.8603 0.579018 79.0511 0.5 79.25 0.5ZM89 14.25V14.5H82V14.25C82 14.1837 82.0263 14.1201 82.0732 14.0732C82.1201 14.0263 82.1837 14 82.25 14H88.75C88.8163 14 88.8799 14.0263 88.9268 14.0732C88.9737 14.1201 89 14.1837 89 14.25ZM87.6392 13.5H83.3608L83.9233 12H87.0767L87.6392 13.5ZM91.75 11.5H79.25C79.0511 11.5 78.8603 11.421 78.7197 11.2803C78.579 11.1397 78.5 10.9489 78.5 10.75V9.5H92.5V10.75C92.5 10.9489 92.421 11.1397 92.2803 11.2803C92.1397 11.421 91.9489 11.5 91.75 11.5Z" fill="#B42F3C"/>
<path d="M85.5 9.75024C85.3517 9.75024 85.2067 9.79423 85.0833 9.87664C84.96 9.95905 84.8639 10.0762 84.8071 10.2132C84.7503 10.3503 84.7355 10.5011 84.7644 10.6466C84.7934 10.792 84.8648 10.9257 84.9697 11.0306C85.0746 11.1355 85.2082 11.2069 85.3537 11.2358C85.4992 11.2648 85.65 11.2499 85.787 11.1932C85.9241 11.1364 86.0412 11.0403 86.1236 10.9169C86.206 10.7936 86.25 10.6486 86.25 10.5002C86.25 10.3013 86.171 10.1106 86.0303 9.96991C85.8897 9.82926 85.6989 9.75024 85.5 9.75024ZM85.5 10.7502C85.4506 10.7502 85.4022 10.7356 85.3611 10.7081C85.32 10.6806 85.288 10.6416 85.269 10.5959C85.2501 10.5502 85.2452 10.5 85.2548 10.4515C85.2645 10.403 85.2883 10.3584 85.3232 10.3235C85.3582 10.2885 85.4027 10.2647 85.4512 10.255C85.4997 10.2454 85.55 10.2504 85.5957 10.2693C85.6414 10.2882 85.6804 10.3202 85.7079 10.3614C85.7353 10.4025 85.75 10.4508 85.75 10.5002C85.75 10.5665 85.7237 10.6301 85.6768 10.677C85.6299 10.7239 85.5663 10.7502 85.5 10.7502Z" fill="#B42F3C"/>
<path d="M141.298 12.6819C140.264 12.6819 139.424 13.5226 139.424 14.5559C139.424 15.5893 140.264 16.4299 141.298 16.4299C142.331 16.4299 143.172 15.5893 143.172 14.5559C143.172 13.5226 142.331 12.6819 141.298 12.6819ZM141.298 15.9132C140.549 15.9132 139.94 15.3043 139.94 14.5559C139.94 13.8075 140.549 13.1987 141.298 13.1987C142.046 13.1987 142.655 13.8075 142.655 14.5559C142.655 15.3043 142.046 15.9132 141.298 15.9132Z" fill="#B42F3C"/>
<path d="M148.975 17.0803L148.603 16.2995C148.457 15.9937 148.144 15.7962 147.806 15.7962H147.231V4.3549C147.231 2.50498 145.726 1 143.876 1C142.025 1 140.52 2.50502 140.52 4.3549V9.081C138.476 9.45518 136.922 11.2493 136.922 13.3996V14.3567H136.258C136.116 14.3567 136 14.4724 136 14.6151V16.3204C136 16.4631 136.116 16.5788 136.258 16.5788H136.964C137.102 17.0801 137.561 17.4498 138.105 17.4498H141.298C142.893 17.4498 144.192 16.1516 144.192 14.5559C144.192 13.6681 143.789 12.8728 143.158 12.3415V10.0196C143.158 9.46245 142.705 9.00917 142.148 9.00917H142.105V4.3549C142.105 3.37885 142.899 2.58477 143.876 2.58477C144.852 2.58477 145.646 3.37885 145.646 4.3549V15.7962H145.071C144.732 15.7962 144.419 15.9937 144.274 16.2995L143.902 17.0803C143.864 17.1603 143.869 17.2543 143.917 17.3293C143.964 17.4043 144.046 17.4498 144.135 17.4498H148.742C148.83 17.4498 148.913 17.4043 148.96 17.3293C149.007 17.2544 149.013 17.1603 148.975 17.0803ZM136.517 14.8735H136.922V16.062H136.517V14.8735ZM143.675 14.5559C143.675 15.8667 142.609 16.933 141.298 16.933C139.987 16.933 138.921 15.8667 138.921 14.5559C138.921 13.2451 139.987 12.1787 141.298 12.1787C142.609 12.1787 143.675 13.2451 143.675 14.5559ZM142.641 10.0196V11.9939C142.24 11.7823 141.783 11.6619 141.298 11.6619C139.702 11.6619 138.404 12.9601 138.404 14.5559C138.404 15.5397 138.898 16.4099 139.65 16.933H138.105C137.738 16.933 137.439 16.6343 137.439 16.2671V13.3996C137.439 11.2637 139.177 9.52594 141.313 9.52594H142.148C142.42 9.52594 142.641 9.7474 142.641 10.0196ZM141.588 4.3549V9.00913H141.313C141.22 9.00913 141.128 9.01237 141.037 9.01805V4.3549C141.037 2.87709 142.173 1.66006 143.617 1.52904V2.08299C142.477 2.2118 141.588 3.18127 141.588 4.3549ZM144.134 2.08299V1.52907C145.578 1.66009 146.714 2.87709 146.714 4.35493V4.63444H146.163V4.3549C146.163 3.18127 145.274 2.2118 144.134 2.08299ZM146.163 5.15117H146.714V15.7962H146.163V5.15117ZM144.544 16.933L144.74 16.5217C144.801 16.3949 144.93 16.313 145.071 16.313H147.806C147.946 16.313 148.076 16.3949 148.136 16.5217L148.332 16.933H144.544Z" fill="#B42F3C"/>
</svg>
