<svg width="275" height="241" viewBox="0 0 275 241" fill="none" xmlns="http://www.w3.org/2000/svg">
<path opacity="0.1" d="M143.898 212.806C215.971 212.806 274.398 208.275 274.398 202.685C274.398 197.096 215.971 192.564 143.898 192.564C71.8242 192.564 13.3971 197.096 13.3971 202.685C13.3971 208.275 71.8242 212.806 143.898 212.806Z" fill="#B42F3C"/>
<g opacity="0.1">
<path opacity="0.1" d="M27.4788 156.792C27.8718 155.599 29.4655 155.05 31.0376 155.565C31.2637 155.639 31.4826 155.734 31.6916 155.848C31.793 155.82 31.8974 155.795 31.9987 155.777C31.9124 155.434 31.8793 155.081 31.9004 154.728C31.3608 154.364 30.9232 153.867 30.6293 153.287C30.3353 152.706 30.1948 152.06 30.2208 151.41C29.6764 151.052 29.2376 150.555 28.9496 149.971C28.6495 149.393 28.5086 148.745 28.5412 148.094C27.9972 147.735 27.5585 147.237 27.27 146.653C26.5146 145.156 26.8217 143.473 27.9731 142.89C29.1246 142.307 30.6661 143.059 31.4245 144.555C31.724 145.135 31.8639 145.784 31.8298 146.435C32.3709 146.798 32.8097 147.293 33.1038 147.873C33.3979 148.454 33.5376 149.1 33.5094 149.751C34.0504 150.114 34.4889 150.61 34.783 151.191C35.0771 151.772 35.2169 152.418 35.1891 153.069C35.7302 153.431 36.1689 153.927 36.463 154.507C36.7572 155.088 36.8969 155.734 36.8687 156.384C37.4138 156.743 37.8536 157.241 38.143 157.826C38.281 158.109 38.3841 158.407 38.45 158.715C38.6392 158.437 38.8702 158.19 39.1348 157.982C39.1663 157.746 39.2198 157.513 39.2944 157.286C39.8134 155.716 41.1982 154.759 42.3927 155.139C43.5871 155.519 44.1337 157.123 43.6209 158.694C43.409 159.368 43.0019 159.964 42.451 160.408C42.4191 160.643 42.3657 160.875 42.2913 161.101C42.0393 161.934 41.4779 162.638 40.7223 163.07C40.7815 163.271 40.8246 163.476 40.8512 163.683C41.1683 163.987 41.431 164.343 41.6281 164.735C41.829 165.127 41.9599 165.55 42.015 165.987C42.3332 166.29 42.597 166.646 42.7949 167.039C42.9954 167.43 43.1263 167.854 43.1818 168.29C43.5008 168.594 43.7646 168.951 43.9618 169.345C44.7202 170.842 44.407 172.528 43.2617 173.105C42.1163 173.682 40.5687 172.939 39.8103 171.44C39.6103 171.048 39.4794 170.625 39.4234 170.188C38.7837 169.575 38.3721 168.763 38.2566 167.885C37.6168 167.272 37.2053 166.46 37.0898 165.582C36.7718 165.278 36.508 164.922 36.3098 164.53C36.1112 164.138 35.9804 163.714 35.9229 163.279C35.6059 162.975 35.3432 162.619 35.1461 162.227C34.9452 161.835 34.8142 161.412 34.7592 160.975C34.5615 160.791 34.3853 160.586 34.2341 160.362C33.6023 160.491 32.9476 160.451 32.3365 160.245C32.1095 160.17 31.8896 160.074 31.6794 159.96C30.9964 160.141 30.275 160.116 29.6067 159.887C28.0499 159.368 27.0888 157.985 27.4788 156.792Z" fill="#3F3D56"/>
<g opacity="0.1">
<path opacity="0.1" d="M30.2515 152.091C30.4143 152.251 30.5933 152.394 30.7858 152.517C30.7598 152.957 30.8181 153.399 30.9577 153.817C30.8343 153.65 30.7254 153.472 30.6322 153.287C30.4402 152.912 30.3115 152.508 30.2515 152.091V152.091Z" fill="black"/>
<path opacity="0.1" d="M28.5719 148.778C28.7355 148.937 28.9145 149.079 29.1062 149.202C29.0804 149.643 29.1387 150.085 29.2781 150.505C28.9062 149.995 28.6638 149.403 28.5719 148.778V148.778Z" fill="black"/>
<path opacity="0.1" d="M32.3887 147.542C32.4033 147.315 32.3951 147.087 32.3641 146.862C32.6643 147.158 32.9143 147.5 33.1042 147.877C33.1969 148.063 33.2749 148.255 33.3375 148.453C33.0816 148.093 32.7597 147.783 32.3887 147.542V147.542Z" fill="black"/>
<path opacity="0.1" d="M43.0437 167.618C42.9094 167.43 42.7572 167.256 42.5892 167.097C42.5612 166.889 42.516 166.684 42.4541 166.484C42.5874 166.664 42.7055 166.854 42.8072 167.054C42.9004 167.236 42.9794 167.424 43.0437 167.618V167.618Z" fill="black"/>
<path opacity="0.1" d="M41.8676 165.315C41.7333 165.127 41.5811 164.952 41.4131 164.794C41.3881 164.586 41.3449 164.381 41.2842 164.18C41.5371 164.522 41.7322 164.904 41.8615 165.309L41.8676 165.315Z" fill="black"/>
<path opacity="0.1" d="M31.9342 155.415C32.0954 155.574 32.2735 155.715 32.4654 155.835C32.4425 156.188 32.4756 156.542 32.5637 156.884C32.4602 156.902 32.3577 156.926 32.2566 156.955C32.0463 156.842 31.8264 156.747 31.5995 156.673C30.0274 156.157 28.4337 156.706 28.0438 157.899C27.946 158.196 27.928 158.513 27.9916 158.819C27.739 158.554 27.5593 158.228 27.47 157.873C27.3807 157.517 27.3848 157.145 27.4819 156.792C27.8749 155.599 29.4685 155.05 31.0407 155.565C31.2668 155.639 31.4857 155.734 31.6947 155.848C31.796 155.82 31.9004 155.795 32.0018 155.777C31.9722 155.658 31.9497 155.537 31.9342 155.415V155.415Z" fill="black"/>
<path opacity="0.1" d="M43.621 168.775C43.7549 168.955 43.8731 169.147 43.9741 169.348C44.0678 169.534 44.1469 169.727 44.2105 169.925C44.0763 169.736 43.9241 169.56 43.7561 169.4C43.7287 169.188 43.6835 168.979 43.621 168.775V168.775Z" fill="black"/>
<path opacity="0.1" d="M34.0683 150.864C34.0829 150.637 34.0747 150.409 34.0437 150.183C34.3446 150.478 34.5946 150.821 34.7837 151.198C34.8764 151.383 34.9544 151.575 35.0171 151.772C34.7611 151.412 34.4392 151.104 34.0683 150.864V150.864Z" fill="black"/>
<path opacity="0.1" d="M36.4971 164.389C36.5259 164.618 36.5762 164.844 36.6476 165.064C36.3917 164.713 36.1966 164.322 36.0703 163.907C36.1979 164.08 36.3407 164.241 36.4971 164.389V164.389Z" fill="black"/>
<path opacity="0.1" d="M38.8277 168.995C38.8586 169.224 38.91 169.45 38.9812 169.67C38.8578 169.503 38.7489 169.325 38.6557 169.139C38.5547 168.942 38.4705 168.737 38.4039 168.526C38.5325 168.693 38.6742 168.85 38.8277 168.995V168.995Z" fill="black"/>
<path opacity="0.1" d="M37.664 166.692C37.6927 166.921 37.7431 167.147 37.8145 167.367C37.6922 167.199 37.5833 167.021 37.489 166.836C37.3876 166.639 37.3034 166.434 37.2372 166.223C37.3653 166.392 37.5082 166.549 37.664 166.692V166.692Z" fill="black"/>
<path opacity="0.1" d="M35.3303 162.083C35.3587 162.313 35.4091 162.54 35.4807 162.76C35.3643 162.592 35.2616 162.415 35.1737 162.23C35.0707 162.033 34.9855 161.828 34.9188 161.616C35.0415 161.784 35.1792 161.94 35.3303 162.083V162.083Z" fill="black"/>
<path opacity="0.1" d="M42.9669 156.259C41.7725 155.866 40.3876 156.823 39.8718 158.405C39.7971 158.632 39.7436 158.865 39.7121 159.102C39.4465 159.308 39.2145 159.554 39.0243 159.831C38.953 159.523 38.8447 159.224 38.7019 158.942C38.6497 158.838 38.5913 158.737 38.5299 158.635C38.7042 158.394 38.9108 158.177 39.144 157.991C39.1756 157.755 39.229 157.522 39.3037 157.295C39.8226 155.725 41.2075 154.768 42.4019 155.148C42.7445 155.28 43.0472 155.497 43.2807 155.78C43.5142 156.062 43.6705 156.401 43.7346 156.761C43.5259 156.531 43.2616 156.358 42.9669 156.259V156.259Z" fill="black"/>
<path opacity="0.1" d="M37.4275 157.494C37.4421 157.267 37.4339 157.039 37.403 156.814C37.7039 157.109 37.9539 157.452 38.143 157.829C38.2357 158.015 38.3137 158.207 38.3763 158.405C38.1212 158.044 37.7992 157.735 37.4275 157.494V157.494Z" fill="black"/>
<path opacity="0.1" d="M35.748 154.176C35.7625 153.949 35.7543 153.721 35.7234 153.495C36.0229 153.792 36.2727 154.135 36.4634 154.51C36.5561 154.696 36.6341 154.889 36.6968 155.087C36.4409 154.726 36.1189 154.417 35.748 154.176V154.176Z" fill="black"/>
<path opacity="0.1" d="M39.9945 171.299C40.024 171.529 40.0754 171.756 40.1481 171.976C40.0253 171.808 39.9165 171.629 39.8226 171.443C39.7216 171.246 39.6374 171.04 39.5708 170.829C39.6994 170.997 39.8411 171.154 39.9945 171.299Z" fill="black"/>
</g>
<path opacity="0.1" d="M25.1851 141.461C24.6407 141.103 24.2019 140.606 23.9139 140.022C23.1554 138.523 23.4686 136.839 24.614 136.259C25.7593 135.68 27.3069 136.425 28.0653 137.925C28.3653 138.503 28.5052 139.151 28.4706 139.802C29.0116 140.165 29.4501 140.661 29.7442 141.242C30.0383 141.823 30.1781 142.469 30.1503 143.12C30.695 143.478 31.1348 143.975 31.4246 144.558C31.5167 144.742 31.5947 144.933 31.6579 145.129C31.2512 144.549 30.6656 144.118 29.9906 143.902C29.9154 144.142 29.7932 144.364 29.631 144.556C29.4689 144.747 29.27 144.905 29.0462 145.019C28.8223 145.133 28.578 145.202 28.3273 145.221C28.0766 145.24 27.8247 145.208 27.5863 145.129C27.3587 145.8 27.3587 146.528 27.5863 147.199C27.4709 147.032 27.3683 146.857 27.2793 146.674C26.9792 146.096 26.8383 145.448 26.8709 144.797C26.3306 144.434 25.8925 143.938 25.5985 143.357C25.3045 142.776 25.1643 142.129 25.1912 141.479L25.1851 141.461Z" fill="#3F3D56"/>
<path opacity="0.1" d="M6.72458 120.195C6.2588 119.977 5.80842 119.728 5.37659 119.45L10.3755 115.8L4.4984 118.821C3.31011 117.877 2.32713 116.701 1.60961 115.365C0.892089 114.029 0.455121 112.56 0.325449 111.049L10.3172 111.154L0.303955 109.479C0.390173 107.953 0.790036 106.462 1.47863 105.097C2.16723 103.733 3.1298 102.524 4.30639 101.547C5.48297 100.57 6.84835 99.8461 8.31746 99.4193C9.78656 98.9926 11.3279 98.8725 12.8455 99.0667C14.3631 99.2609 15.8244 99.7652 17.1383 100.548C18.4523 101.331 19.5907 102.376 20.4827 103.617C21.3748 104.859 22.0013 106.27 22.3232 107.764C22.6451 109.258 22.6556 110.803 22.3539 112.301C23.0792 112.636 23.7668 113.047 24.4051 113.527L19.1851 120.778L25.4522 114.435C26.7746 115.733 27.7524 117.339 28.2971 119.109C28.8418 120.878 28.9363 122.756 28.5719 124.571C30.4677 125.453 32.0768 126.85 33.2151 128.603C34.3534 130.355 34.9749 132.392 35.0087 134.481C35.0425 136.569 34.4871 138.625 33.406 140.413C32.325 142.202 30.7619 143.65 28.8956 144.592C27.0293 145.535 24.935 145.934 22.8523 145.744C20.7696 145.554 18.7825 144.782 17.1183 143.517C15.4541 142.252 14.1799 140.544 13.4415 138.59C12.703 136.636 12.5301 134.513 12.9425 132.466C10.6798 131.412 8.83682 129.63 7.70927 127.406C6.58172 125.181 6.23495 122.643 6.72458 120.198V120.195Z" fill="#B42F3C"/>
<path opacity="0.1" d="M27.5893 117.367C28.7218 119.593 29.0681 122.136 28.5719 124.584C30.4678 125.466 32.0768 126.863 33.2151 128.615C34.3534 130.367 34.975 132.404 35.0087 134.493C35.0425 136.582 34.4871 138.637 33.4061 140.426C32.325 142.214 30.762 143.662 28.8956 144.605C27.0293 145.547 24.9351 145.946 22.8523 145.756C20.7696 145.566 18.7826 144.794 17.1183 143.529C15.4541 142.264 14.1799 140.557 13.4415 138.602C12.703 136.648 12.5302 134.526 12.9426 132.478C10.7532 131.463 27.0274 116.254 27.5893 117.367Z" fill="black"/>
<path opacity="0.1" d="M15.0368 101.26C15.9508 101.26 16.6918 100.52 16.6918 99.6068C16.6918 98.6938 15.9508 97.9537 15.0368 97.9537C14.1227 97.9537 13.3817 98.6938 13.3817 99.6068C13.3817 100.52 14.1227 101.26 15.0368 101.26Z" fill="#B42F3C"/>
<path opacity="0.1" d="M5.37661 102.321C6.29067 102.321 7.03166 101.581 7.03166 100.668C7.03166 99.7549 6.29067 99.0148 5.37661 99.0148C4.46255 99.0148 3.72156 99.7549 3.72156 100.668C3.72156 101.581 4.46255 102.321 5.37661 102.321Z" fill="#B42F3C"/>
<path opacity="0.1" d="M1.65505 117.162C2.56911 117.162 3.31011 116.422 3.31011 115.509C3.31011 114.596 2.56911 113.856 1.65505 113.856C0.740993 113.856 0 114.596 0 115.509C0 116.422 0.740993 117.162 1.65505 117.162Z" fill="#B42F3C"/>
<path opacity="0.1" d="M6.68166 124.574C7.59573 124.574 8.33672 123.834 8.33672 122.921C8.33672 122.008 7.59573 121.268 6.68166 121.268C5.7676 121.268 5.02661 122.008 5.02661 122.921C5.02661 123.834 5.7676 124.574 6.68166 124.574Z" fill="#B42F3C"/>
<path opacity="0.1" d="M13.5475 139.967C14.4616 139.967 15.2026 139.227 15.2026 138.314C15.2026 137.401 14.4616 136.661 13.5475 136.661C12.6334 136.661 11.8925 137.401 11.8925 138.314C11.8925 139.227 12.6334 139.967 13.5475 139.967Z" fill="#B42F3C"/>
<path opacity="0.1" d="M13.5475 139.967C14.4616 139.967 15.2026 139.227 15.2026 138.314C15.2026 137.401 14.4616 136.661 13.5475 136.661C12.6334 136.661 11.8925 137.401 11.8925 138.314C11.8925 139.227 12.6334 139.967 13.5475 139.967Z" fill="black"/>
<path opacity="0.1" d="M28.8175 122.532C29.7316 122.532 30.4726 121.792 30.4726 120.879C30.4726 119.966 29.7316 119.226 28.8175 119.226C27.9035 119.226 27.1625 119.966 27.1625 120.879C27.1625 121.792 27.9035 122.532 28.8175 122.532Z" fill="#B42F3C"/>
<path opacity="0.1" d="M28.8175 122.532C29.7316 122.532 30.4726 121.792 30.4726 120.879C30.4726 119.966 29.7316 119.226 28.8175 119.226C27.9035 119.226 27.1625 119.966 27.1625 120.879C27.1625 121.792 27.9035 122.532 28.8175 122.532Z" fill="black"/>
<path opacity="0.1" d="M30.5832 148.045C31.6825 147.49 32.0141 145.92 31.3723 144.469C31.4061 144.531 31.4399 144.589 31.4706 144.65C32.229 146.15 31.9158 147.834 30.7674 148.413C29.619 148.993 28.0776 148.248 27.3191 146.748C27.2884 146.687 27.2577 146.625 27.2301 146.561C28.0192 147.938 29.4839 148.6 30.5832 148.045Z" fill="black"/>
<path opacity="0.1" d="M32.2137 151.272C33.3129 150.717 33.6476 149.143 33.0059 147.696C33.0397 147.754 33.0734 147.815 33.1042 147.877C33.8626 149.376 33.5494 151.06 32.401 151.64C31.2526 152.219 29.7111 151.474 28.9527 149.974C28.9189 149.913 28.8913 149.849 28.8636 149.787C29.6528 151.171 31.1205 151.827 32.2137 151.272Z" fill="black"/>
<path opacity="0.1" d="M33.8472 154.495C34.9465 153.94 35.2812 152.37 34.6364 150.919C34.6732 150.98 34.7039 151.039 34.7377 151.103C35.4961 152.6 35.1799 154.286 34.0345 154.863C32.8892 155.44 31.3447 154.697 30.5862 153.198C30.5525 153.136 30.5248 153.075 30.4972 153.011C31.2833 154.388 32.7479 155.05 33.8472 154.495Z" fill="black"/>
<path opacity="0.1" d="M35.4808 157.721C36.58 157.166 36.9147 155.596 36.2699 154.145C36.3037 154.204 36.3375 154.265 36.3682 154.326C37.1297 155.826 36.8134 157.51 35.6681 158.089C34.5227 158.669 32.9752 157.924 32.2167 156.424C32.186 156.363 32.1584 156.298 32.1307 156.237C32.9168 157.611 34.3815 158.277 35.4808 157.721Z" fill="black"/>
<path opacity="0.1" d="M37.1143 160.945C38.2136 160.39 38.5452 158.819 37.9035 157.372C37.9372 157.43 37.971 157.491 38.0017 157.553C38.7602 159.052 38.447 160.736 37.3016 161.316C36.1563 161.895 34.6087 161.147 33.8503 159.651C33.8196 159.586 33.7919 159.525 33.7612 159.463C34.5504 160.837 36.015 161.5 37.1143 160.945Z" fill="black"/>
<path opacity="0.1" d="M38.7479 164.171C39.8471 163.616 40.1788 162.046 39.537 160.595C39.5708 160.656 39.6046 160.715 39.6353 160.776C40.3937 162.276 40.0805 163.96 38.9352 164.539C37.7898 165.119 36.2423 164.374 35.4838 162.874C35.4531 162.812 35.4224 162.751 35.3948 162.687C36.1839 164.052 37.6486 164.726 38.7479 164.171Z" fill="black"/>
<path opacity="0.1" d="M40.3814 167.397C41.4776 166.842 41.8123 165.269 41.1706 163.821C41.2043 163.88 41.2381 163.941 41.2688 164.002C42.0272 165.502 41.714 167.186 40.5656 167.765C39.4172 168.345 37.8758 167.597 37.1174 166.1C37.0867 166.036 37.056 165.974 37.0283 165.913C37.8175 167.287 39.2821 167.953 40.3814 167.397Z" fill="black"/>
<path opacity="0.1" d="M42.012 170.621C43.1113 170.066 43.446 168.495 42.8012 167.045C42.838 167.106 42.8687 167.164 42.9025 167.229C43.6609 168.725 43.3446 170.412 42.1993 170.989C41.054 171.565 39.5095 170.823 38.751 169.323C38.7173 169.262 38.6896 169.201 38.662 169.136C39.4511 170.513 40.9127 171.176 42.012 170.621Z" fill="black"/>
<path opacity="0.1" d="M43.0959 172.74C44.1952 172.185 44.5268 170.615 43.885 169.164C43.9188 169.225 43.9526 169.284 43.9833 169.348C44.7417 170.845 44.4285 172.531 43.2832 173.108C42.1379 173.685 40.5903 172.942 39.8318 171.443C39.8011 171.381 39.7704 171.32 39.7428 171.256C40.5227 172.639 41.9874 173.295 43.0959 172.74Z" fill="black"/>
<path opacity="0.1" d="M13.5751 158.387C13.4045 157.899 13.3012 157.391 13.268 156.875C13.1545 156.875 13.0422 156.851 12.9383 156.805C12.8344 156.759 12.741 156.693 12.664 156.61C12.587 156.526 12.528 156.428 12.4907 156.321C12.4534 156.214 12.4387 156.1 12.4474 155.987C12.456 155.874 12.488 155.764 12.5411 155.664C12.5943 155.563 12.6676 155.475 12.7564 155.405C12.8453 155.334 12.9477 155.282 13.0574 155.253C13.1671 155.224 13.2816 155.217 13.3939 155.234C13.5782 154.398 13.9462 153.614 14.4715 152.937C14.9967 152.261 15.6659 151.71 16.4307 151.324C16.3318 151.128 16.3147 150.901 16.3832 150.693C16.4518 150.485 16.6003 150.312 16.7961 150.214C16.992 150.115 17.2191 150.098 17.4276 150.166C17.6361 150.235 17.8088 150.383 17.9077 150.579C17.9437 150.648 17.9685 150.722 17.9814 150.799C18.89 150.633 19.8252 150.685 20.7096 150.952C21.5939 151.218 22.4019 151.692 23.0663 152.333C23.5738 152.25 24.0902 152.235 24.6016 152.29L25.271 155.332L25.2864 152.397C26.0477 152.573 26.7655 152.901 27.3966 153.361C28.0276 153.822 28.5588 154.405 28.9581 155.076C29.3574 155.747 29.6165 156.491 29.7199 157.265C29.8233 158.039 29.7688 158.825 29.5597 159.577C29.3505 160.329 28.9911 161.031 28.5031 161.641C28.015 162.25 27.4085 162.755 26.7199 163.124C26.0314 163.493 25.2752 163.719 24.4969 163.788C23.7186 163.857 22.9342 163.769 22.1912 163.527C22.1104 163.67 21.9898 163.786 21.8442 163.861C21.6924 163.938 21.5208 163.966 21.3525 163.942C21.1843 163.918 21.0275 163.842 20.9035 163.726C20.7795 163.61 20.6942 163.459 20.6593 163.292C20.6243 163.126 20.6414 162.953 20.7081 162.797C20.4448 162.614 20.1973 162.408 19.9681 162.184C18.7603 162.379 17.5215 162.188 16.4294 161.637C15.3372 161.086 14.4477 160.204 13.8883 159.117L17.0049 158.592L13.5751 158.387Z" fill="#B42F3C"/>
<g opacity="0.1">
<path opacity="0.1" d="M18.3898 159.865C19.5413 158.332 20.2475 156.553 21.0582 154.829C21.3828 154.12 21.7478 153.43 22.1513 152.762L22.7654 152.054C22.8698 152.143 22.9711 152.232 23.0725 152.324C23.58 152.241 24.0964 152.226 24.6078 152.281L25.2772 155.323L25.2864 152.397C26.0477 152.573 26.7655 152.901 27.3966 153.361C28.0276 153.822 28.5588 154.405 28.9581 155.076C29.3574 155.747 29.6165 156.491 29.7199 157.265C29.8233 158.039 29.7688 158.825 29.5597 159.577C29.3506 160.329 28.9911 161.031 28.5031 161.641C28.015 162.25 27.4085 162.755 26.72 163.124C26.0314 163.493 25.2752 163.719 24.4969 163.788C23.7186 163.857 22.9342 163.769 22.1912 163.527C22.1104 163.67 21.9898 163.786 21.8442 163.861C21.6925 163.938 21.5208 163.966 21.3525 163.942C21.1843 163.918 21.0275 163.842 20.9035 163.726C20.7795 163.61 20.6943 163.459 20.6593 163.292C20.6243 163.126 20.6414 162.953 20.7081 162.797C20.4448 162.614 20.1973 162.408 19.9681 162.184C18.7853 162.373 17.5728 162.194 16.4952 161.672C17.22 161.175 17.8597 160.565 18.3898 159.865Z" fill="black"/>
</g>
<path opacity="0.1" d="M38.7694 153.345C38.7203 153.248 38.6907 153.143 38.6825 153.035C38.6743 152.927 38.6876 152.818 38.7215 152.715C38.7555 152.613 38.8095 152.517 38.8804 152.435C38.9513 152.353 39.0378 152.286 39.1348 152.238C39.2507 152.179 39.3792 152.148 39.5094 152.149C39.7436 150.907 40.3789 149.776 41.318 148.929C41.1661 148.339 41.1091 147.729 41.1491 147.122L44.1859 146.613L41.2351 146.426C41.2885 146.149 41.3624 145.876 41.4561 145.61C41.3402 145.533 41.2461 145.428 41.1829 145.304C41.109 145.156 41.0811 144.989 41.1027 144.826C41.1242 144.662 41.1943 144.508 41.3039 144.385C41.4135 144.261 41.5576 144.173 41.7177 144.132C41.8777 144.091 42.0465 144.098 42.2023 144.153C42.7446 143.383 43.4693 142.758 44.3118 142.335C45.3041 141.832 46.4207 141.625 47.5275 141.74C48.6343 141.855 49.6845 142.286 50.5521 142.982C51.4197 143.678 52.068 144.61 52.4191 145.664C52.7702 146.719 52.8094 147.852 52.5318 148.929C52.6761 148.99 52.7998 149.092 52.8884 149.222C52.977 149.351 53.0268 149.503 53.0319 149.66C53.0371 149.817 52.9974 149.972 52.9175 150.107C52.8376 150.242 52.7209 150.351 52.5809 150.422C52.476 150.475 52.3609 150.506 52.2434 150.511C52.1259 150.516 52.0086 150.496 51.8993 150.453C51.6029 150.949 51.2334 151.398 50.803 151.784C51.1178 153.007 51.024 154.299 50.5359 155.464L46.4735 154.397L50.106 156.308C49.5606 157.177 48.7936 157.886 47.8836 158.361C46.9736 158.837 45.9534 159.062 44.9274 159.014C43.9015 158.966 42.9068 158.646 42.0454 158.088C41.184 157.529 40.4867 156.752 40.0252 155.835C39.7039 155.197 39.5021 154.506 39.4295 153.796C39.2901 153.783 39.1562 153.735 39.0407 153.656C38.9251 153.577 38.8317 153.47 38.7694 153.345V153.345Z" fill="#B42F3C"/>
<path opacity="0.1" d="M38.7694 153.345C38.7203 153.248 38.6907 153.143 38.6825 153.035C38.6743 152.927 38.6876 152.818 38.7215 152.715C38.7555 152.613 38.8095 152.517 38.8804 152.435C38.9513 152.353 39.0378 152.286 39.1348 152.238C39.2507 152.179 39.3792 152.148 39.5094 152.149C39.7436 150.907 40.3789 149.776 41.318 148.929C41.2934 148.834 41.2719 148.735 41.2535 148.64C41.3636 148.719 41.4664 148.807 41.5605 148.904C42.1102 149.517 42.3927 150.312 42.9331 150.919C43.6102 151.617 44.5206 152.041 45.4909 152.112C46.452 152.178 47.4176 152.101 48.3558 151.882C49.1295 151.683 49.9277 151.595 50.7263 151.621L50.9535 151.652L50.8123 151.784C51.127 153.007 51.0332 154.299 50.5451 155.464L46.4735 154.397L50.106 156.308C49.5606 157.177 48.7936 157.886 47.8836 158.361C46.9736 158.837 45.9534 159.062 44.9274 159.014C43.9015 158.966 42.9068 158.646 42.0454 158.088C41.184 157.529 40.4867 156.752 40.0252 155.835C39.7039 155.197 39.5021 154.506 39.4295 153.796C39.2901 153.783 39.1562 153.735 39.0407 153.656C38.9251 153.577 38.8317 153.47 38.7694 153.345V153.345Z" fill="black"/>
</g>
<path opacity="0.1" d="M106.35 15.9203C105.136 15.6901 103.881 15.8268 102.745 16.3128C102.064 16.6161 101.326 16.7728 100.581 16.7728C99.8347 16.7728 99.0971 16.6161 98.4158 16.3128C97.6106 15.9603 96.7382 15.7867 95.8592 15.8042C94.9801 15.8217 94.1153 16.0298 93.3248 16.414C92.8733 16.6522 92.3707 16.7775 91.8601 16.779C89.7967 16.779 88.0802 14.7027 87.724 11.964C88.1354 11.6628 88.4856 11.286 88.7557 10.8538C89.9655 8.90628 91.8263 7.65498 93.942 7.65498C96.0576 7.65498 97.9 8.88174 99.1098 10.817C99.4712 11.3981 99.9763 11.8766 100.576 12.2064C101.177 12.5362 101.852 12.7062 102.537 12.7H102.592C104.219 12.6908 105.641 14.0065 106.35 15.9203Z" fill="#B42F3C"/>
<path opacity="0.1" d="M112.62 7.33296L109.286 9.44605L111.309 5.76577C110.735 5.30907 110.026 5.05653 109.292 5.04812H109.24C109.008 5.05094 108.777 5.0335 108.549 4.99598L107.416 5.71363L107.901 4.83343C107.102 4.5559 106.411 4.03578 105.923 3.34599L103.894 4.61262L105.171 2.29097C103.989 0.870999 102.392 0 100.639 0C98.5355 0 96.6471 1.25129 95.4496 3.19878C95.0913 3.78048 94.5852 4.25712 93.9828 4.58031C93.3804 4.9035 92.7031 5.06172 92.0197 5.03891H91.9184C89.597 5.03891 87.7117 7.66725 87.7117 10.9151C87.7117 14.1629 89.597 16.7882 91.9184 16.7882C92.429 16.7867 92.9316 16.6614 93.3831 16.4232C94.1736 16.0386 95.0386 15.8306 95.9178 15.8137C96.797 15.7967 97.6693 15.9713 98.4741 16.3251C99.1557 16.6274 99.8932 16.7836 100.639 16.7836C101.385 16.7836 102.122 16.6274 102.804 16.3251C103.602 15.9788 104.466 15.8083 105.337 15.8252C106.207 15.8421 107.064 16.0461 107.849 16.4232C108.297 16.6551 108.793 16.777 109.298 16.779C111.622 16.779 113.505 14.1507 113.505 10.9059C113.513 9.65989 113.209 8.43164 112.62 7.33296V7.33296Z" fill="#B42F3C"/>
<path opacity="0.1" d="M36.9547 58.4091C35.2208 58.0814 33.4284 58.2757 31.8053 58.9673C30.8312 59.3986 29.7771 59.6201 28.7115 59.6175C27.646 59.6148 26.593 59.3881 25.6211 58.9519C24.471 58.4483 23.2251 58.2003 21.9696 58.2252C20.7141 58.2501 19.479 58.5473 18.3499 59.0961C17.7041 59.4359 16.9857 59.6147 16.2558 59.6175C13.308 59.6175 10.8546 56.6518 10.3448 52.7384C10.9339 52.3097 11.4344 51.7713 11.8187 51.1528C13.5475 48.3711 16.225 46.5831 19.2312 46.5831C22.2373 46.5831 24.8811 48.3497 26.6006 51.1007C27.1174 51.9345 27.8415 52.6204 28.7024 53.0917C29.5634 53.5631 30.5319 53.8038 31.5136 53.7903H31.5903C33.9178 53.7873 35.9506 55.6673 36.9547 58.4091Z" fill="#B42F3C"/>
<path opacity="0.1" d="M45.9208 46.1262L41.1552 49.144L44.0477 43.8904C43.2279 43.2368 42.2132 42.8753 41.1644 42.863H41.0876C40.7565 42.8678 40.4256 42.8432 40.0989 42.7894L38.4899 43.8291L39.1839 42.5716C38.0388 42.172 37.0499 41.4205 36.3589 40.4248L33.4664 42.2649L35.2873 38.922C33.5954 36.8948 31.317 35.6527 28.8114 35.6527C25.8053 35.6527 23.1277 37.4376 21.399 40.2193C20.8869 41.054 20.1625 41.7382 19.2994 42.2021C18.4363 42.666 17.4655 42.893 16.486 42.8599H16.3233C13.0039 42.8599 10.3141 46.6169 10.3141 51.254C10.3141 55.8912 13.0039 59.6481 16.3233 59.6481C17.0536 59.6462 17.7725 59.4662 18.4174 59.1237C19.5468 58.5754 20.782 58.2787 22.0375 58.2544C23.2929 58.23 24.5387 58.4785 25.6886 58.9826C26.6605 59.4187 27.7135 59.6455 28.779 59.6481C29.8446 59.6508 30.8987 59.4292 31.8728 58.998C33.0141 58.5032 34.2487 58.2594 35.4927 58.2832C36.7367 58.307 37.961 58.5979 39.0825 59.136C39.7213 59.4699 40.4311 59.6455 41.1521 59.6481C44.4714 59.6481 47.1613 55.8881 47.1613 51.254C47.1844 49.4679 46.7579 47.7047 45.9208 46.1262V46.1262Z" fill="#B42F3C"/>
<path opacity="0.1" d="M229.672 27.8812C230.886 27.6512 232.141 27.7879 233.277 28.2737C233.957 28.5771 234.694 28.7339 235.44 28.7339C236.185 28.7339 236.922 28.5771 237.603 28.2737C238.408 27.9212 239.281 27.7476 240.16 27.7651C241.039 27.7826 241.903 27.9907 242.694 28.375C243.146 28.6128 243.648 28.738 244.159 28.7399C246.222 28.7399 247.942 26.6636 248.298 23.9249C247.886 23.6245 247.535 23.2475 247.266 22.8147C246.062 20.861 244.18 19.6006 242.071 19.6006C239.961 19.6006 238.116 20.8273 236.906 22.7625C236.545 23.3463 236.04 23.8272 235.438 24.1587C234.837 24.4902 234.16 24.6611 233.473 24.6548H233.421C231.787 24.6517 230.363 25.9674 229.672 27.8812Z" fill="#B42F3C"/>
<path opacity="0.1" d="M223.383 19.2939L226.718 21.4008L224.691 17.7205C225.265 17.2643 225.975 17.0118 226.709 17.0029H226.764C226.995 17.0055 227.226 16.9881 227.455 16.9508L228.585 17.6684L228.1 16.7882C228.904 16.5153 229.602 15.9972 230.095 15.3069L232.119 16.5889L230.839 14.2672C232.024 12.8472 233.602 11.9762 235.374 11.9762C237.477 11.9762 239.366 13.2275 240.563 15.175C240.921 15.7569 241.427 16.2338 242.03 16.557C242.632 16.8802 243.31 17.0383 243.993 17.0152H244.104C246.428 17.0152 248.31 19.6435 248.31 22.8913C248.31 26.1392 246.428 28.7645 244.104 28.7645C243.593 28.7622 243.091 28.637 242.639 28.3995C241.848 28.0149 240.983 27.8069 240.104 27.7899C239.225 27.773 238.353 27.9475 237.548 28.3013C236.867 28.6036 236.13 28.7598 235.385 28.7598C234.639 28.7598 233.902 28.6036 233.221 28.3013C232.422 27.955 231.558 27.7844 230.687 27.8014C229.816 27.8183 228.958 28.0223 228.173 28.3995C227.725 28.6316 227.229 28.7536 226.724 28.7553C224.403 28.7553 222.517 26.1269 222.517 22.8821C222.501 21.6325 222.799 20.3988 223.383 19.2939V19.2939Z" fill="#B42F3C"/>
<path opacity="0.1" d="M189.035 238.261C208.538 238.261 224.347 235.515 224.347 232.127C224.347 228.74 208.538 225.994 189.035 225.994C169.533 225.994 153.724 228.74 153.724 232.127C153.724 235.515 169.533 238.261 189.035 238.261Z" fill="#B42F3C"/>
<path d="M170.553 202.992L115.838 202.29L116.001 200.888L118.645 177.767H166.697L170.231 200.888L170.501 202.642L170.553 202.992Z" fill="#D0D2D5"/>
<path opacity="0.1" d="M170.501 202.642H143.197L115.838 202.29L116.001 200.888H170.231L170.501 202.642Z" fill="black"/>
<path d="M179.323 201.241H106.719V202.992H179.323V201.241Z" fill="#D0D2D5"/>
<path d="M248.593 38.8975C248.597 37.689 248.121 36.5283 247.268 35.6704C246.416 34.8124 245.258 34.3273 244.048 34.3217H41.2904C40.6908 34.3245 40.0976 34.4452 39.5447 34.677C38.9918 34.9088 38.49 35.2471 38.068 35.6726C37.646 36.098 37.3121 36.6024 37.0852 37.1567C36.8584 37.7111 36.7431 38.3047 36.7459 38.9036V161.656H248.593V38.8975Z" fill="#3F3D56"/>
<path d="M36.7458 160.429V174.807C36.7458 176.011 37.2246 177.165 38.0769 178.017C38.9292 178.868 40.0851 179.346 41.2903 179.346H244.048C245.253 179.346 246.409 178.868 247.262 178.017C248.114 177.165 248.593 176.011 248.593 174.807V160.429H36.7458Z" fill="#D0D2D5"/>
<path d="M240.876 42.0196H45.5155V152.37H240.876V42.0196Z" fill="white"/>
<path d="M143.723 173.89C144.44 173.891 145.148 173.729 145.793 173.416C146.439 173.103 147.004 172.647 147.447 172.084C147.582 171.912 147.705 171.732 147.816 171.544L145.215 171.105L148.024 171.124C148.294 170.539 148.441 169.905 148.456 169.261C148.471 168.617 148.355 167.976 148.113 167.379L144.346 169.33L147.822 166.778C147.495 166.218 147.057 165.73 146.534 165.346C146.011 164.962 145.415 164.689 144.782 164.545C144.149 164.401 143.493 164.389 142.855 164.508C142.217 164.628 141.61 164.877 141.073 165.241C140.536 165.605 140.079 166.075 139.731 166.623C139.383 167.17 139.152 167.783 139.051 168.424C138.951 169.064 138.983 169.719 139.147 170.346C139.31 170.974 139.601 171.561 140.001 172.071V172.071C140.442 172.637 141.007 173.094 141.652 173.41C142.297 173.725 143.005 173.889 143.723 173.89V173.89Z" fill="#B42F3C"/>
<path opacity="0.1" d="M148.457 179.343L170.286 201.241L166.936 179.343H148.457Z" fill="black"/>
<path opacity="0.1" d="M240.935 42.0319H45.3619V48.4785H240.935V42.0319Z" fill="#444053"/>
<path opacity="0.3" d="M172.012 43.1543H113.443C113.345 43.1543 113.265 43.234 113.265 43.3322V46.899C113.265 46.9973 113.345 47.0769 113.443 47.0769H172.012C172.11 47.0769 172.19 46.9973 172.19 46.899V43.3322C172.19 43.234 172.11 43.1543 172.012 43.1543Z" fill="#B42F3C"/>
<path d="M170.44 45.522H170.295L170.243 45.476C170.422 45.2615 170.52 44.9913 170.52 44.7123C170.518 44.4833 170.448 44.26 170.319 44.0705C170.191 43.881 170.008 43.7338 169.796 43.6476C169.584 43.5613 169.35 43.5399 169.126 43.5859C168.901 43.6319 168.695 43.7433 168.534 43.9061C168.373 44.0689 168.263 44.2758 168.22 44.5006C168.176 44.7254 168.2 44.9582 168.288 45.1694C168.377 45.3806 168.526 45.5609 168.717 45.6875C168.908 45.8142 169.133 45.8814 169.362 45.8808C169.642 45.8798 169.912 45.7811 170.127 45.6017L170.179 45.6477V45.7919L171.078 46.6905L171.346 46.4206L170.44 45.522ZM169.362 45.522C169.202 45.5226 169.044 45.4756 168.911 45.387C168.777 45.2984 168.673 45.1722 168.611 45.0243C168.549 44.8764 168.533 44.7135 168.563 44.5563C168.594 44.399 168.671 44.2544 168.785 44.1409C168.898 44.0274 169.042 43.9499 169.2 43.9185C169.357 43.887 169.52 43.9028 169.668 43.964C169.817 44.0252 169.943 44.129 170.033 44.2622C170.122 44.3954 170.17 44.5521 170.17 44.7123C170.17 44.8186 170.15 44.924 170.11 45.0224C170.07 45.1208 170.01 45.2103 169.935 45.2856C169.86 45.3609 169.771 45.4205 169.672 45.4611C169.574 45.5017 169.468 45.5224 169.362 45.522V45.522Z" fill="#3F3D56"/>
<path opacity="0.8" d="M48.8779 46.4359C49.5308 46.4359 50.06 45.9073 50.06 45.2552C50.06 44.603 49.5308 44.0744 48.8779 44.0744C48.225 44.0744 47.6957 44.603 47.6957 45.2552C47.6957 45.9073 48.225 46.4359 48.8779 46.4359Z" fill="#FA5959"/>
<path opacity="0.8" d="M52.1296 46.4359C52.7825 46.4359 53.3117 45.9073 53.3117 45.2552C53.3117 44.603 52.7825 44.0744 52.1296 44.0744C51.4767 44.0744 50.9474 44.603 50.9474 45.2552C50.9474 45.9073 51.4767 46.4359 52.1296 46.4359Z" fill="#FED253"/>
<path opacity="0.8" d="M55.3844 46.4359C56.0373 46.4359 56.5666 45.9073 56.5666 45.2552C56.5666 44.603 56.0373 44.0744 55.3844 44.0744C54.7315 44.0744 54.2023 44.603 54.2023 45.2552C54.2023 45.9073 54.7315 46.4359 55.3844 46.4359Z" fill="#8CCF4D"/>
<path d="M209.108 228.551C208.93 228.269 208.704 228.019 208.442 227.812C207.1 226.546 206.476 224.687 206.145 222.865C205.813 221.044 205.718 219.185 205.187 217.403C204.898 216.49 204.536 215.6 204.106 214.744C203.799 214.088 203.412 212.803 202.85 212.343C202.74 212.248 202.606 212.183 202.463 212.156C202.198 211.592 201.819 211.089 201.352 210.678C200.473 209.883 199.402 209.251 198.815 208.224C198.654 207.868 198.455 207.529 198.223 207.215C197.826 206.78 197.2 206.602 196.835 206.142C196.359 205.547 196.466 204.694 196.528 203.937C196.589 203.179 196.528 202.271 195.87 201.872C195.477 201.63 194.971 201.655 194.562 201.44C193.948 201.133 193.706 200.361 193.718 199.67C193.73 198.98 193.945 198.309 194.001 197.619C194.172 195.423 192.723 193.239 193.282 191.111C193.494 190.304 193.979 189.605 194.338 188.854C194.464 188.603 194.566 188.343 194.645 188.075C195.603 188.454 196.61 188.696 197.636 188.795C195.944 185.005 196.374 180.6 195.585 176.528L195.686 176.39C196.483 175.34 196.936 174.069 196.982 172.752C196.982 171.237 196.273 169.82 195.953 168.336C195.68 167.075 195.692 165.757 195.339 164.518C195.094 163.748 194.769 163.006 194.369 162.303C193.986 161.594 193.584 160.896 193.162 160.209C192.769 158.908 192.375 157.608 191.98 156.308C191.427 154.483 190.859 152.627 189.785 151.051C189.392 150.474 189.272 149.303 188.667 148.953C188.176 148.699 187.618 148.602 187.07 148.674C186.217 148.196 185.467 147.506 185.36 146.561C185.349 146.355 185.37 146.148 185.421 145.948H185.526C186.877 145.825 187.561 144.635 188.265 143.592C189.401 141.905 188.968 139.624 188.265 137.704C188.09 137.098 187.775 136.542 187.343 136.081C186.358 135.161 184.798 135.364 183.527 134.919C183.1 134.772 182.701 134.548 182.265 134.444C181.42 134.247 180.536 134.523 179.762 134.913C178.988 135.302 178.267 135.805 177.456 136.112C176.645 136.419 175.644 136.661 175.445 137.492C175.389 137.772 175.412 138.062 175.512 138.329C175.699 138.863 176.027 139.335 176.461 139.697C176.116 140.408 175.929 141.185 175.914 141.975C175.899 142.765 176.055 143.549 176.372 144.272C176.69 144.996 177.16 145.642 177.752 146.166C178.343 146.691 179.042 147.081 179.799 147.309C180.032 147.683 180.25 148.064 180.45 148.453C180.806 149.14 181.107 149.95 180.984 150.686C180.762 150.922 180.557 151.173 180.37 151.437C179.489 152.664 178.988 154.102 178.528 155.538C177.909 157.37 177.414 159.242 177.045 161.141C176.295 162.733 175.38 164.254 174.837 165.925C173.864 165.927 172.895 165.797 171.957 165.539L169.365 164.953C168.462 164.748 167.523 164.527 166.816 163.932C166.442 163.625 166.15 163.217 165.769 162.914C165.389 162.61 164.624 162.254 164.206 162.506C164.13 162.552 164.059 162.607 163.995 162.668C163.614 161.899 163.252 161.135 162.809 160.39C162.174 159.347 161.228 158.393 160.03 158.194C159.299 158.076 158.55 158.25 157.946 158.678C157.245 159.175 156.806 160.212 157.331 160.911C157.463 161.067 157.605 161.212 157.758 161.347C158.114 161.756 158.431 162.196 158.707 162.662C159.697 164.05 161.177 165.01 162.849 165.349L162.742 165.655C162.524 166.293 162.06 167.063 162.177 167.726L173.704 171.667C174.443 171.966 175.228 172.14 176.025 172.179C176.336 172.176 176.646 172.135 176.946 172.056V172.645V172.669C176.977 176.715 176.332 180.732 176.213 184.775C176.191 185.514 176.213 186.308 176.679 186.885C177.201 187.516 178.129 187.642 178.936 187.498C179.131 187.465 179.321 187.422 179.507 187.369C179.78 188.387 179.977 189.423 180.097 190.47L180.858 195.947C180.956 196.508 180.996 197.077 180.978 197.646C180.889 198.931 180.21 200.081 179.719 201.268C179.228 202.455 178.936 203.875 179.581 204.985C179.784 205.329 180.063 205.62 180.244 205.976C180.474 206.527 180.579 207.122 180.551 207.718C180.598 209.37 180.643 211.024 180.686 212.68C180.552 212.658 180.415 212.686 180.299 212.757C179.661 213.254 179.731 215.618 179.685 216.351C179.636 217.578 179.685 218.829 179.618 220.068C179.538 221.738 179.269 223.394 178.816 225.003C178.706 225.526 178.464 226.013 178.113 226.417C177.754 226.729 177.326 226.951 176.863 227.064C175.334 227.543 173.734 227.76 172.132 227.708C171.484 227.687 170.808 227.625 170.206 227.871C169.605 228.116 169.119 228.791 169.337 229.404C169.525 229.919 170.093 230.165 170.606 230.358C171.777 230.77 172.908 231.289 173.983 231.91C174.397 232.191 174.834 232.439 175.288 232.649C175.724 232.805 176.175 232.916 176.633 232.98L182.077 233.919C183.192 234.109 184.534 234.225 185.243 233.305C185.627 232.808 185.682 232.134 185.664 231.502C185.633 230.275 185.387 229.027 185.547 227.8C185.668 227.075 185.86 226.363 186.118 225.675C186.661 224.066 187.205 222.458 187.752 220.85C188.298 219.237 188.851 217.609 189.063 215.916C189.14 215.302 189.134 214.603 188.664 214.22C188.545 214.122 188.407 214.051 188.258 214.011C188.24 212.533 188.047 211.052 188.13 209.573C188.151 209.205 188.188 208.837 188.219 208.466C188.503 208.736 188.758 209.037 188.977 209.362C189.502 210.184 189.696 211.269 190.497 211.815C191.179 212.282 192.189 212.257 192.668 212.932C192.822 213.191 192.938 213.471 193.012 213.763C193.29 214.486 193.707 215.148 194.24 215.71C194.423 216.384 194.677 217.035 194.998 217.655C195.451 218.61 195.901 219.561 196.35 220.51C196.81 221.534 197.323 222.534 197.885 223.506C198.314 224.118 198.66 224.785 198.913 225.488C199.346 227.003 198.64 228.665 197.522 229.781C196.405 230.898 194.931 231.539 193.479 232.137C193.325 232.188 193.185 232.272 193.067 232.382C192.941 232.531 192.875 232.721 192.88 232.916C192.88 233.624 193.463 234.231 194.133 234.449C194.817 234.633 195.534 234.659 196.23 234.526C200.154 234.05 204.066 233.094 207.536 231.189C208.055 230.943 208.514 230.589 208.884 230.149C209.062 229.928 209.177 229.663 209.216 229.381C209.256 229.1 209.218 228.813 209.108 228.551V228.551Z" fill="url(#paint0_linear)"/>
<path d="M192.524 159.776C193.179 160.78 193.793 161.809 194.366 162.862C194.767 163.558 195.094 164.295 195.339 165.06C195.695 166.287 195.686 167.597 195.953 168.848C196.26 170.32 196.979 171.725 196.979 173.234C196.932 174.541 196.479 175.802 195.683 176.84C194.889 177.87 193.981 178.807 192.975 179.631C190.656 173.632 189.361 167.286 189.143 160.859C189.112 159.969 189.106 159.052 189.431 158.221C189.631 157.7 190.589 156.271 191.206 156.832C191.43 157.038 191.489 157.964 191.627 158.273C191.886 158.797 192.185 159.3 192.524 159.776V159.776Z" fill="#2F2E41"/>
<path opacity="0.1" d="M192.524 159.776C193.179 160.78 193.793 161.809 194.366 162.862C194.767 163.558 195.094 164.295 195.339 165.06C195.695 166.287 195.686 167.597 195.953 168.848C196.26 170.32 196.979 171.725 196.979 173.234C196.932 174.541 196.479 175.802 195.683 176.84C194.889 177.87 193.981 178.807 192.975 179.631C190.656 173.632 189.361 167.286 189.143 160.859C189.112 159.969 189.106 159.052 189.431 158.221C189.631 157.7 190.589 156.271 191.206 156.832C191.43 157.038 191.489 157.964 191.627 158.273C191.886 158.797 192.185 159.3 192.524 159.776V159.776Z" fill="black"/>
<path d="M111.57 117.935C109.141 120.357 108.85 121.425 107.391 121.906C105.933 122.388 100.685 125.102 102.334 128.111L106.768 131.036L106.897 131.122L107.575 133.159L100.869 145.083C100.869 145.083 89.8151 140.035 88.7312 147.503C87.6473 154.97 88.3351 157.01 88.0434 160.997C87.7517 164.984 88.1386 166.137 87.1652 166.137C86.1918 166.137 85.808 163.518 85.808 163.518C85.808 163.518 85.7466 163.398 85.6391 163.174C84.1928 160.172 74.3761 138.13 90.1007 122.98C90.1007 122.98 97.3842 122.501 99.1375 114.159C100.347 108.393 104.579 108.89 107.391 110.065C108.305 110.423 109.157 110.923 109.915 111.546C110.597 112.191 111.204 112.911 111.724 113.693C112.525 114.957 112.961 116.542 111.57 117.935Z" fill="#D0D2D5"/>
<path opacity="0.1" d="M106.897 131.122L107.575 133.159L100.869 145.083C100.869 145.083 89.815 140.035 88.7311 147.503C87.6472 154.97 88.335 157.01 88.0433 160.997C87.7516 164.984 88.1385 166.137 87.1651 166.137C86.1917 166.137 85.8079 163.518 85.8079 163.518C85.8079 163.518 85.7465 163.398 85.639 163.174C85.1508 159.445 82.6759 137.63 91.6482 138.789C91.6482 138.789 98.9286 142.188 100.092 140.832C101.013 139.759 105.104 133.585 106.768 131.052L106.897 131.122Z" fill="black"/>
<path opacity="0.1" d="M111.724 113.675L107.29 118.707C107.29 118.707 102.14 125.59 101.072 125.298C100.752 125.228 100.426 125.19 100.098 125.185C99.742 125.157 99.4006 125.03 99.1138 124.817C98.827 124.603 98.6065 124.314 98.478 123.98C98.3494 123.647 98.318 123.284 98.3875 122.934C98.4569 122.584 98.6243 122.26 98.8702 122.001C100.627 120.161 103.863 116.668 104.075 115.892C104.287 115.116 106.347 111.715 107.379 110.05C108.293 110.408 109.145 110.907 109.903 111.531C110.589 112.174 111.2 112.893 111.724 113.675V113.675Z" fill="black"/>
<path d="M237.176 186.081C236.424 187.584 232.57 193.221 230.885 195.684L230.095 196.843C230.095 196.843 229.788 198.879 224.756 196.355C219.723 193.831 101.477 143.997 101.477 143.997L100.676 141.593L106.51 132.867L236.111 182.879C236.111 182.879 238.15 184.14 237.176 186.081Z" fill="#454B69"/>
<path opacity="0.1" d="M230.885 195.684L230.095 196.843C230.095 196.843 229.788 198.879 224.756 196.355C219.723 193.831 101.477 143.997 101.477 143.997L100.676 141.593L230.885 195.684Z" fill="black"/>
<path d="M159.561 163.131C158.36 162.935 157.027 163.03 156.094 163.809C155.53 164.286 155.173 164.964 155.099 165.698C155.019 166.548 155.514 167.557 156.367 167.621C156.573 167.624 156.778 167.61 156.981 167.582C157.521 167.579 158.059 167.624 158.59 167.716C159.636 167.815 160.69 167.661 161.664 167.268C162.638 166.875 163.504 166.255 164.188 165.459C164.922 164.539 163.955 164.14 163.089 163.956C161.904 163.705 160.746 163.322 159.561 163.131Z" fill="#FBBEBE"/>
<path d="M180.097 190.829L180.858 196.232C180.955 196.79 180.994 197.357 180.975 197.922C180.886 199.195 180.207 200.336 179.719 201.514C179.231 202.691 178.933 204.102 179.581 205.194C179.781 205.534 180.06 205.826 180.241 206.178C180.471 206.724 180.576 207.314 180.548 207.905L180.757 215.572C183.127 215.734 185.506 215.721 187.875 215.532C187.967 215.537 188.059 215.509 188.133 215.453C188.195 215.373 188.227 215.274 188.222 215.174C188.326 213.379 188.013 211.582 188.114 209.788C188.151 209.132 188.243 208.479 188.255 207.819C188.292 205.148 186.972 202.532 187.371 199.891C187.496 199.225 187.661 198.567 187.862 197.919C189.124 193.319 188.857 188.485 188.578 183.735C188.583 183.658 188.561 183.583 188.516 183.52C188.471 183.475 188.413 183.444 188.351 183.431C187.007 183.029 185.587 182.955 184.209 183.217C182.831 183.478 181.536 184.067 180.435 184.934C180.1 185.204 179.256 185.465 179.034 185.787C178.727 186.234 179.13 186.682 179.308 187.158C179.702 188.349 179.967 189.58 180.097 190.829V190.829Z" fill="#3F3D56"/>
<path opacity="0.1" d="M180.097 190.829L180.858 196.232C180.955 196.79 180.994 197.357 180.975 197.922C180.886 199.195 180.207 200.336 179.719 201.514C179.231 202.691 178.933 204.102 179.581 205.194C179.781 205.534 180.06 205.826 180.241 206.178C180.471 206.724 180.576 207.314 180.548 207.905L180.757 215.572C183.127 215.734 185.506 215.721 187.875 215.532C187.967 215.537 188.059 215.509 188.133 215.453C188.195 215.373 188.227 215.274 188.222 215.174C188.326 213.379 188.013 211.582 188.114 209.788C188.151 209.132 188.243 208.479 188.255 207.819C188.292 205.148 186.972 202.532 187.371 199.891C187.496 199.225 187.661 198.567 187.862 197.919C189.124 193.319 188.857 188.485 188.578 183.735C188.583 183.658 188.561 183.583 188.516 183.52C188.471 183.475 188.413 183.444 188.351 183.431C187.007 183.029 185.587 182.955 184.209 183.217C182.831 183.478 181.536 184.067 180.435 184.934C180.1 185.204 179.256 185.465 179.034 185.787C178.727 186.234 179.13 186.682 179.308 187.158C179.702 188.349 179.967 189.58 180.097 190.829V190.829Z" fill="black"/>
<path d="M194.335 189.2C193.976 189.945 193.494 190.638 193.279 191.439C192.72 193.552 194.166 195.733 193.994 197.898C193.939 198.582 193.727 199.247 193.712 199.931C193.696 200.615 193.948 201.376 194.556 201.692C194.965 201.9 195.477 201.879 195.861 202.118C196.509 202.513 196.583 203.412 196.518 204.167C196.454 204.921 196.346 205.764 196.825 206.353C197.191 206.81 197.817 206.988 198.21 207.421C198.444 207.731 198.643 208.066 198.803 208.42C199.389 209.445 200.461 210.07 201.339 210.874C202.217 211.677 202.96 212.855 202.567 213.968C202.279 214.784 201.468 215.287 200.688 215.67C199.265 216.373 197.763 216.903 196.214 217.25C196.048 217.3 195.872 217.31 195.702 217.278C195.529 217.214 195.375 217.109 195.253 216.971C194.347 216.085 193.411 215.155 192.993 213.962C192.919 213.673 192.803 213.396 192.649 213.14C192.17 212.469 191.16 212.493 190.478 212.03C189.68 211.487 189.487 210.411 188.965 209.598C188.443 208.785 187.678 208.301 187.122 207.586C186.183 206.396 185.952 204.808 185.28 203.449C184.994 202.872 184.629 202.333 184.402 201.731C184.172 201.011 184.031 200.265 183.981 199.511C183.548 195.929 182.446 192.322 183.14 188.777C183.293 187.998 183.53 187.243 183.628 186.44C183.797 185.051 183.53 183.628 183.735 182.241C183.74 182.067 183.785 181.897 183.865 181.742C183.945 181.588 184.06 181.453 184.199 181.349C184.365 181.274 184.545 181.238 184.727 181.241C186.548 181.144 188.373 181.185 190.187 181.364C191.108 181.453 192.14 181.64 192.692 182.392C193.162 183.036 193.138 183.897 193.288 184.679C193.475 185.642 193.964 186.167 194.476 186.921C194.989 187.676 194.713 188.421 194.335 189.2Z" fill="#3F3D56"/>
<path d="M187.251 214.122C187.737 214.122 188.274 214.091 188.649 214.398C189.115 214.781 189.121 215.483 189.048 216.081C188.833 217.762 188.283 219.378 187.733 220.988L186.1 225.776C185.841 226.459 185.65 227.166 185.529 227.886C185.369 229.113 185.615 230.339 185.645 231.566C185.645 232.18 185.606 232.86 185.222 233.354C184.528 234.247 183.174 234.142 182.059 233.968L176.621 233.048C176.162 232.986 175.711 232.876 175.276 232.719C174.822 232.51 174.386 232.265 173.971 231.986C172.895 231.372 171.764 230.859 170.593 230.453C170.084 230.263 169.513 230.02 169.328 229.508C169.11 228.895 169.595 228.22 170.197 227.975C170.799 227.73 171.472 227.791 172.123 227.809C173.723 227.86 175.321 227.645 176.851 227.171C177.312 227.058 177.739 226.838 178.098 226.527C178.462 226.118 178.71 225.62 178.816 225.083C179.28 223.484 179.556 221.838 179.639 220.176C179.704 218.949 179.661 217.722 179.71 216.495C179.741 215.769 179.67 213.429 180.309 212.929C180.797 212.554 182.805 213.588 183.465 213.738C184.707 214.022 185.978 214.151 187.251 214.122V214.122Z" fill="#2F2E41"/>
<path d="M205.165 217.532C205.696 219.289 205.779 221.148 206.123 222.954C206.467 224.761 207.075 226.604 208.417 227.861C208.678 228.068 208.903 228.317 209.083 228.597C209.197 228.86 209.235 229.149 209.194 229.432C209.154 229.715 209.036 229.981 208.853 230.201C208.482 230.638 208.023 230.99 207.505 231.235C204.038 233.124 200.136 234.078 196.202 234.55C195.507 234.68 194.792 234.654 194.108 234.474C193.439 234.247 192.846 233.646 192.858 232.94C192.852 232.747 192.917 232.558 193.042 232.41C193.162 232.301 193.303 232.218 193.457 232.167C194.906 231.572 196.377 230.925 197.498 229.827C198.619 228.729 199.322 227.067 198.889 225.577C198.633 224.878 198.285 224.217 197.854 223.611C197.293 222.646 196.78 221.655 196.319 220.639L194.968 217.808C194.572 216.98 194.172 216.127 194.105 215.214C195.802 215.289 197.497 215.018 199.085 214.416C199.827 214.114 200.518 213.7 201.134 213.189C201.656 212.754 202.131 211.941 202.835 212.509C203.4 212.962 203.756 214.241 204.087 214.888C204.518 215.739 204.879 216.623 205.165 217.532Z" fill="#2F2E41"/>
<path d="M185.366 147.242C185.501 148.42 186.643 149.195 187.733 149.662L180.834 151.861C181.279 151.008 180.92 149.965 180.478 149.1C180.117 148.416 179.707 147.759 179.249 147.134C179.182 147.039 179.105 146.92 179.154 146.809C179.198 146.737 179.267 146.684 179.348 146.659C180.766 146.027 182.228 145.374 183.778 145.144C184.227 145.08 185.074 144.902 185.409 145.356C185.744 145.81 185.301 146.699 185.366 147.242Z" fill="#FBBEBE"/>
<path opacity="0.1" d="M185.366 147.242C185.501 148.42 186.643 149.195 187.733 149.662L180.834 151.861C181.279 151.008 180.92 149.965 180.478 149.1C180.117 148.416 179.707 147.759 179.249 147.134C179.182 147.039 179.105 146.92 179.154 146.809C179.198 146.737 179.267 146.684 179.348 146.659C180.766 146.027 182.228 145.374 183.778 145.144C184.227 145.08 185.074 144.902 185.409 145.356C185.744 145.81 185.301 146.699 185.366 147.242Z" fill="black"/>
<path d="M181.356 148.196C184.344 148.196 186.766 145.776 186.766 142.792C186.766 139.807 184.344 137.388 181.356 137.388C178.368 137.388 175.945 139.807 175.945 142.792C175.945 145.776 178.368 148.196 181.356 148.196Z" fill="#FBBEBE"/>
<path d="M176.667 187.262C177.192 187.89 178.116 188.013 178.924 187.875C180.812 187.568 182.357 186.179 184.205 185.679C186.471 185.066 188.87 185.854 191.01 186.82C193.15 187.786 195.278 188.967 197.618 189.133C195.502 184.422 196.712 178.754 194.688 174.004C194.194 172.841 193.503 171.722 193.392 170.464C193.254 168.903 194.034 167.397 194.154 165.846C194.265 164.462 193.847 163.085 193.448 161.767C192.954 160.147 192.461 158.528 191.968 156.909C191.415 155.096 190.847 153.253 189.775 151.695C189.379 151.121 189.259 149.959 188.658 149.613C187.343 148.855 185.351 149.809 183.926 149.861C182.501 149.913 181.202 150.925 180.37 152.069C179.489 153.277 178.988 154.716 178.528 156.139C177.794 158.258 177.247 160.436 176.891 162.65C176.845 162.981 176.805 163.312 176.774 163.647C176.467 166.796 176.916 169.964 176.94 173.129V173.151C176.971 177.166 176.326 181.156 176.206 185.167C176.194 185.9 176.213 186.701 176.667 187.262Z" fill="#2F2E41"/>
<path opacity="0.1" d="M176.949 173.133C178.009 172.866 178.967 172.182 179.79 171.434C180.503 170.796 181.136 170.076 181.675 169.287C182.354 168.226 182.9 167.086 183.299 165.892C184.436 162.698 185.159 159.372 185.449 155.995C185.529 155.075 185.553 154.087 185.004 153.357C184.695 152.962 184.262 152.682 183.774 152.564C183.286 152.446 182.772 152.497 182.317 152.707C181.592 153.06 181.122 153.774 180.686 154.458C179.824 155.814 178.955 157.188 178.399 158.697C178.153 159.365 177.972 160.052 177.732 160.724C177.489 161.386 177.208 162.035 176.891 162.665C176.845 162.996 176.805 163.328 176.774 163.662C176.489 166.812 176.925 169.968 176.949 173.133Z" fill="black"/>
<path d="M184.988 152.765C185.538 153.495 185.513 154.492 185.437 155.4C185.147 158.777 184.425 162.103 183.287 165.297C182.891 166.501 182.345 167.651 181.663 168.719C181.122 169.507 180.489 170.228 179.778 170.866C178.734 171.817 177.462 172.666 176.047 172.679C175.25 172.641 174.465 172.47 173.725 172.173L162.195 168.253C162.079 167.597 162.542 166.83 162.76 166.198L163.374 164.38C163.549 163.877 163.752 163.334 164.21 163.061C164.667 162.788 165.392 163.162 165.773 163.466C166.153 163.769 166.442 164.168 166.817 164.478C167.526 165.067 168.462 165.287 169.365 165.49L171.954 166.07C172.892 166.326 173.861 166.455 174.834 166.453C175.555 164.251 176.928 162.313 177.705 160.129C177.944 159.46 178.126 158.77 178.374 158.102C178.927 156.593 179.799 155.222 180.662 153.863C181.095 153.182 181.565 152.468 182.292 152.112C182.749 151.899 183.265 151.848 183.755 151.966C184.245 152.085 184.68 152.367 184.988 152.765V152.765Z" fill="#2F2E41"/>
<path d="M183.081 144.012C183.04 143.657 182.93 143.313 182.756 143C182.665 142.844 182.527 142.72 182.362 142.647C182.196 142.574 182.011 142.556 181.835 142.595C181.294 142.764 181.113 143.598 180.548 143.626C180.167 143.644 179.894 143.258 179.774 142.896C179.655 142.534 179.59 142.12 179.305 141.866C179.106 141.717 178.878 141.613 178.635 141.559C177.324 141.145 175.97 140.381 175.534 139.078C175.431 138.813 175.407 138.525 175.463 138.247C175.663 137.422 176.691 137.173 177.474 136.876C178.257 136.578 179.01 136.069 179.777 135.683C180.545 135.296 181.436 135.023 182.28 135.22C182.708 135.354 183.13 135.511 183.542 135.689C184.813 136.13 186.37 135.925 187.356 136.842C187.786 137.297 188.102 137.848 188.277 138.449C188.965 140.357 189.401 142.62 188.262 144.295C187.558 145.328 186.877 146.509 185.526 146.635C183.953 146.766 183.33 145.343 183.081 144.012Z" fill="#2F2E41"/>
<g opacity="0.1">
<path opacity="0.1" d="M180.68 142.246C180.56 141.884 180.496 141.47 180.213 141.215C180.015 141.067 179.786 140.962 179.544 140.909C178.23 140.495 176.879 139.731 176.44 138.428C176.34 138.162 176.316 137.874 176.372 137.596C176.402 137.465 176.458 137.341 176.535 137.231C176.034 137.449 175.598 137.737 175.476 138.247C175.419 138.525 175.444 138.813 175.546 139.078C175.982 140.381 177.336 141.145 178.648 141.559C178.89 141.613 179.118 141.717 179.317 141.866C179.602 142.12 179.664 142.531 179.787 142.896C179.91 143.261 180.18 143.644 180.56 143.626C180.941 143.608 181.125 143.261 181.368 142.97C181.033 142.927 180.791 142.583 180.68 142.246Z" fill="black"/>
<path opacity="0.1" d="M186.428 145.975C184.85 146.119 184.227 144.684 183.972 143.362C183.938 143.008 183.834 142.664 183.665 142.35C183.574 142.194 183.436 142.07 183.27 141.998C183.105 141.925 182.92 141.907 182.744 141.945C182.464 142.081 182.228 142.294 182.065 142.559C182.206 142.572 182.342 142.618 182.462 142.692C182.583 142.767 182.684 142.868 182.759 142.988C182.933 143.301 183.044 143.645 183.085 144C183.333 145.322 183.957 146.76 185.541 146.613C186.167 146.544 186.745 146.245 187.162 145.773C186.931 145.881 186.683 145.949 186.428 145.975V145.975Z" fill="black"/>
</g>
<path d="M249.674 203.026C255.15 203.026 259.589 202.173 259.589 201.121C259.589 200.069 255.15 199.217 249.674 199.217C244.198 199.217 239.759 200.069 239.759 201.121C239.759 202.173 244.198 203.026 249.674 203.026Z" fill="#B42F3C"/>
<path d="M249.508 201.82C250.145 201.82 250.662 201.145 250.662 200.311C250.662 199.478 250.145 198.803 249.508 198.803C248.87 198.803 248.353 199.478 248.353 200.311C248.353 201.145 248.87 201.82 249.508 201.82Z" fill="#3F3D56"/>
<path d="M249.508 199.974C250.145 199.974 250.662 199.299 250.662 198.465C250.662 197.632 250.145 196.956 249.508 196.956C248.87 196.956 248.353 197.632 248.353 198.465C248.353 199.299 248.87 199.974 249.508 199.974Z" fill="#3F3D56"/>
<path d="M249.508 198.131C250.145 198.131 250.662 197.455 250.662 196.622C250.662 195.789 250.145 195.113 249.508 195.113C248.87 195.113 248.353 195.789 248.353 196.622C248.353 197.455 248.87 198.131 249.508 198.131Z" fill="#3F3D56"/>
<path d="M249.508 196.285C250.145 196.285 250.662 195.609 250.662 194.776C250.662 193.942 250.145 193.267 249.508 193.267C248.87 193.267 248.353 193.942 248.353 194.776C248.353 195.609 248.87 196.285 249.508 196.285Z" fill="#3F3D56"/>
<path d="M249.508 194.438C250.145 194.438 250.662 193.763 250.662 192.929C250.662 192.096 250.145 191.421 249.508 191.421C248.87 191.421 248.353 192.096 248.353 192.929C248.353 193.763 248.87 194.438 249.508 194.438Z" fill="#3F3D56"/>
<path d="M249.508 192.595C250.145 192.595 250.662 191.92 250.662 191.086C250.662 190.253 250.145 189.577 249.508 189.577C248.87 189.577 248.353 190.253 248.353 191.086C248.353 191.92 248.87 192.595 249.508 192.595Z" fill="#3F3D56"/>
<path d="M249.508 190.749C250.145 190.749 250.662 190.073 250.662 189.24C250.662 188.407 250.145 187.731 249.508 187.731C248.87 187.731 248.353 188.407 248.353 189.24C248.353 190.073 248.87 190.749 249.508 190.749Z" fill="#3F3D56"/>
<path d="M253.828 176.626C253.986 176.425 254.129 176.214 254.258 175.994L251.224 175.497L254.507 175.519C254.82 174.834 254.991 174.093 255.009 173.341C255.027 172.589 254.892 171.841 254.611 171.142L250.208 173.424L254.267 170.443C253.886 169.788 253.375 169.218 252.764 168.77C252.153 168.321 251.456 168.002 250.717 167.834C249.978 167.665 249.212 167.651 248.467 167.791C247.721 167.931 247.013 168.222 246.385 168.647C245.758 169.073 245.225 169.622 244.819 170.262C244.413 170.902 244.143 171.618 244.027 172.367C243.91 173.115 243.949 173.879 244.141 174.612C244.332 175.345 244.673 176.03 245.141 176.626C244.895 176.937 244.683 177.275 244.509 177.632L248.448 179.677L244.248 178.27C243.955 179.139 243.883 180.067 244.039 180.971C244.195 181.875 244.574 182.726 245.141 183.447C244.501 184.261 244.103 185.239 243.992 186.269C243.882 187.299 244.064 188.339 244.517 189.27C244.97 190.202 245.677 190.987 246.556 191.536C247.435 192.086 248.451 192.377 249.488 192.377C250.525 192.377 251.541 192.086 252.42 191.536C253.299 190.987 254.005 190.202 254.459 189.27C254.912 188.339 255.094 187.299 254.984 186.269C254.873 185.239 254.475 184.261 253.834 183.447C254.602 182.473 255.019 181.27 255.019 180.032C255.019 178.793 254.602 177.59 253.834 176.617L253.828 176.626Z" fill="#B42F3C"/>
<path opacity="0.1" d="M243.95 180.03C243.949 181.271 244.369 182.475 245.141 183.447C244.501 184.261 244.103 185.239 243.992 186.269C243.882 187.299 244.064 188.339 244.517 189.27C244.97 190.202 245.677 190.987 246.556 191.536C247.435 192.086 248.451 192.377 249.488 192.377C250.525 192.377 251.541 192.086 252.42 191.536C253.299 190.987 254.005 190.202 254.459 189.27C254.912 188.339 255.094 187.299 254.983 186.269C254.873 185.239 254.475 184.261 253.834 183.447C254.568 182.505 243.95 179.411 243.95 180.03Z" fill="black"/>
<path d="M45.5738 241C53.4578 241 59.849 239.772 59.849 238.258C59.849 236.744 53.4578 235.516 45.5738 235.516C37.6898 235.516 31.2986 236.744 31.2986 238.258C31.2986 239.772 37.6898 241 45.5738 241Z" fill="#B42F3C"/>
<path d="M45.3343 239.267C46.2517 239.267 46.9955 238.294 46.9955 237.093C46.9955 235.892 46.2517 234.918 45.3343 234.918C44.4168 234.918 43.6731 235.892 43.6731 237.093C43.6731 238.294 44.4168 239.267 45.3343 239.267Z" fill="#3F3D56"/>
<path d="M45.3343 236.611C46.2517 236.611 46.9955 235.638 46.9955 234.437C46.9955 233.236 46.2517 232.262 45.3343 232.262C44.4168 232.262 43.6731 233.236 43.6731 234.437C43.6731 235.638 44.4168 236.611 45.3343 236.611Z" fill="#3F3D56"/>
<path d="M45.3343 233.955C46.2517 233.955 46.9955 232.982 46.9955 231.781C46.9955 230.58 46.2517 229.606 45.3343 229.606C44.4168 229.606 43.6731 230.58 43.6731 231.781C43.6731 232.982 44.4168 233.955 45.3343 233.955Z" fill="#3F3D56"/>
<path d="M45.3343 231.299C46.2517 231.299 46.9955 230.326 46.9955 229.125C46.9955 227.924 46.2517 226.951 45.3343 226.951C44.4168 226.951 43.6731 227.924 43.6731 229.125C43.6731 230.326 44.4168 231.299 45.3343 231.299Z" fill="#3F3D56"/>
<path d="M45.3343 228.643C46.2517 228.643 46.9955 227.67 46.9955 226.469C46.9955 225.268 46.2517 224.295 45.3343 224.295C44.4168 224.295 43.6731 225.268 43.6731 226.469C43.6731 227.67 44.4168 228.643 45.3343 228.643Z" fill="#3F3D56"/>
<path d="M45.3343 225.984C46.2517 225.984 46.9955 225.011 46.9955 223.81C46.9955 222.609 46.2517 221.636 45.3343 221.636C44.4168 221.636 43.6731 222.609 43.6731 223.81C43.6731 225.011 44.4168 225.984 45.3343 225.984Z" fill="#3F3D56"/>
<path d="M45.3343 223.329C46.2517 223.329 46.9955 222.355 46.9955 221.154C46.9955 219.953 46.2517 218.98 45.3343 218.98C44.4168 218.98 43.6731 219.953 43.6731 221.154C43.6731 222.355 44.4168 223.329 45.3343 223.329Z" fill="#3F3D56"/>
<path d="M51.5553 202.98C51.7802 202.687 51.9853 202.379 52.1695 202.06L47.8031 201.342L52.5256 201.379C52.9783 200.394 53.2251 199.327 53.2509 198.243C53.2768 197.159 53.0812 196.082 52.6761 195.076L46.3445 198.37L52.1787 194.076C51.6323 193.13 50.8965 192.306 50.0171 191.655C49.1377 191.005 48.1336 190.543 47.0674 190.298C46.0013 190.053 44.8959 190.029 43.8204 190.23C42.7449 190.43 41.7222 190.85 40.8163 191.462C39.9103 192.075 39.1405 192.868 38.5549 193.791C37.9693 194.714 37.5804 195.748 37.4125 196.827C37.2447 197.907 37.3014 199.01 37.5792 200.067C37.8571 201.124 38.35 202.112 39.0273 202.97C38.6687 203.418 38.3598 203.904 38.1061 204.418L43.7775 207.362L37.7315 205.335C37.3078 206.592 37.2055 207.935 37.4339 209.241C37.6624 210.548 38.2143 211.776 39.0396 212.815C38.1157 213.988 37.541 215.397 37.3811 216.881C37.2212 218.365 37.4826 219.864 38.1354 221.206C38.7882 222.549 39.8061 223.681 41.0726 224.473C42.3391 225.264 43.8032 225.684 45.2975 225.684C46.7917 225.684 48.2558 225.264 49.5223 224.473C50.7888 223.681 51.8067 222.549 52.4595 221.206C53.1123 219.864 53.3737 218.365 53.2138 216.881C53.0539 215.397 52.4792 213.988 51.5553 212.815C52.6595 211.414 53.2599 209.682 53.2599 207.899C53.2599 206.116 52.6595 204.384 51.5553 202.983V202.98Z" fill="#B42F3C"/>
<path opacity="0.1" d="M37.3355 207.908C37.3357 209.689 37.936 211.417 39.0396 212.815C38.1158 213.988 37.5411 215.397 37.3812 216.881C37.2213 218.365 37.4827 219.864 38.1355 221.206C38.7883 222.549 39.8061 223.681 41.0727 224.473C42.3392 225.264 43.8033 225.684 45.2975 225.684C46.7918 225.684 48.2559 225.264 49.5224 224.473C50.7889 223.681 51.8068 222.549 52.4596 221.206C53.1124 219.864 53.3738 218.365 53.2139 216.881C53.054 215.397 52.4793 213.988 51.5554 212.815C52.6148 211.46 37.3355 207.003 37.3355 207.908Z" fill="black"/>
<path d="M118.204 84.4819C117.538 84.4819 116.999 84.2753 116.585 83.8621C116.195 83.4489 116 82.9095 116 82.2438V62.1004C116 61.4347 116.184 60.9182 116.551 60.5509C116.941 60.1836 117.469 60 118.135 60H130.221C131.621 60 132.321 60.5968 132.321 61.7905C132.321 62.9612 131.621 63.5466 130.221 63.5466H120.373V70.1578H129.532C130.932 70.1578 131.633 70.7546 131.633 71.9483C131.633 73.119 130.932 73.7044 129.532 73.7044H120.373V82.2438C120.373 82.9095 120.178 83.4489 119.788 83.8621C119.397 84.2753 118.869 84.4819 118.204 84.4819Z" fill="#474747"/>
<path d="M142.074 84.6541C141.408 84.6541 140.869 84.4475 140.455 84.0343C140.065 83.6211 139.87 83.0816 139.87 82.4159V62.2037C139.87 61.538 140.065 61.01 140.455 60.6198C140.869 60.2066 141.408 60 142.074 60C142.762 60 143.302 60.2066 143.692 60.6198C144.105 61.01 144.312 61.538 144.312 62.2037V82.4159C144.312 83.0816 144.105 83.6211 143.692 84.0343C143.302 84.4475 142.762 84.6541 142.074 84.6541Z" fill="#B42F3C"/>
<path d="M172.449 81.2796C172.816 81.7158 173 82.152 173 82.5881C173 83.139 172.782 83.6211 172.346 84.0343C171.933 84.4475 171.45 84.6541 170.9 84.6541C170.326 84.6541 169.821 84.4016 169.384 83.8966L162.395 75.2194L155.37 83.8966C154.957 84.3786 154.463 84.6197 153.89 84.6197C153.339 84.6197 152.845 84.4245 152.409 84.0343C151.996 83.6211 151.789 83.139 151.789 82.5881C151.789 82.129 151.961 81.6928 152.306 81.2796L159.812 72.1204L152.616 63.34C152.271 62.9727 152.099 62.5366 152.099 62.0316C152.099 61.4806 152.306 61.01 152.719 60.6198C153.132 60.2066 153.614 60 154.165 60C154.739 60 155.244 60.2525 155.68 60.7575L162.395 69.0559L169.109 60.7575C169.522 60.2525 170.016 60 170.59 60C171.141 60 171.623 60.2066 172.036 60.6198C172.472 61.01 172.69 61.4806 172.69 62.0316C172.69 62.5366 172.518 62.9727 172.174 63.34L164.977 72.1204L172.449 81.2796Z" fill="#474747"/>
<path d="M142.164 115.57C141.475 115.57 140.924 115.375 140.511 114.984C140.121 114.571 139.926 114.032 139.926 113.366V94.7721H133.659C132.282 94.7721 131.593 94.1638 131.593 92.9472C131.593 91.7305 132.282 91.1222 133.659 91.1222H150.634C152.012 91.1222 152.7 91.7305 152.7 92.9472C152.7 94.1638 152.012 94.7721 150.634 94.7721H144.368V113.366C144.368 114.032 144.161 114.571 143.748 114.984C143.358 115.375 142.83 115.57 142.164 115.57Z" fill="#474747"/>
<defs>
<linearGradient id="paint0_linear" x1="184.814" y1="235.031" x2="180.759" y2="134.398" gradientUnits="userSpaceOnUse">
<stop stop-color="#808080" stop-opacity="0.25"/>
<stop offset="0.54" stop-color="#808080" stop-opacity="0.12"/>
<stop offset="1" stop-color="#808080" stop-opacity="0.1"/>
</linearGradient>
</defs>
</svg>
