<svg width="48" height="85" viewBox="0 0 48 85" fill="none" xmlns="http://www.w3.org/2000/svg">
<path d="M26.8048 7.1693H20.4615C20.1497 7.1693 19.8972 7.42361 19.8972 7.73558C19.8972 8.04755 20.1495 8.30186 20.4615 8.30186H26.8048C27.1165 8.30186 27.3691 8.04755 27.3691 7.73558C27.3691 7.42167 27.1165 7.1693 26.8048 7.1693Z" fill="#474747"/>
<path d="M23.6321 77.3815C24.5507 77.3815 25.2954 76.6368 25.2954 75.7182C25.2954 74.7996 24.5507 74.0549 23.6321 74.0549C22.7135 74.0549 21.9688 74.7996 21.9688 75.7182C21.9688 76.6368 22.7135 77.3815 23.6321 77.3815Z" fill="#474747"/>
<path fill-rule="evenodd" clip-rule="evenodd" d="M39.874 85H41.4958C44.6758 85 47.2636 82.4142 47.2636 79.236V5.76958C47.2636 2.58971 44.6758 0 41.4958 0H5.76783C2.58796 0 0 2.58971 0 5.76958V79.2339C0 82.414 2.58602 84.9979 5.76783 84.9979H5.94927L5.90799 84.9268H39.8787L39.874 85ZM2.25561 79.2339C2.25561 81.1702 3.83351 82.7444 5.76783 82.7444H41.4958C43.434 82.7444 45.008 81.1702 45.008 79.2339V5.76958C45.008 3.83332 43.4338 2.25542 41.4958 2.25542H5.76783C3.83351 2.25542 2.25561 3.83332 2.25561 5.76958V79.2339Z" fill="#474747"/>
</svg>
