<svg width="142" height="88" viewBox="0 0 142 88" fill="none" xmlns="http://www.w3.org/2000/svg">
<g clip-path="url(#clip0)">
<path d="M139.974 35.549C134.764 15.2549 116.76 0.605459 95.6271 0.0178829C84.4549 -0.292751 72.6987 3.37734 64.1392 16.2204C48.8384 39.1786 65.0795 55.0435 76.4024 62.5821C81.8728 66.2316 86.8018 70.6197 91.0469 75.6194C98.6952 84.609 113.409 95.7799 130.932 78.2769C143.633 65.5907 143.445 49.0668 139.974 35.549Z" fill="#F2F2F2"/>
<path d="M19.5567 50.9348C19.4163 50.7288 19.2783 50.5175 19.1465 50.3064L19.3594 50.1759C19.4895 50.3843 19.6257 50.5929 19.7641 50.796L19.5567 50.9348Z" fill="#3F3D56"/>
<path d="M18.3916 48.9775C18.1594 48.5262 17.9436 48.0599 17.7502 47.5916L17.9819 47.4977C18.1728 47.9596 18.3856 48.4197 18.6147 48.8649L18.3916 48.9775ZM17.2271 46.1579C17.0735 45.6751 16.9385 45.1799 16.8257 44.6861L17.0699 44.6314C17.1811 45.1186 17.3143 45.6071 17.4658 46.0833L17.2271 46.1579ZM16.5489 43.1865C16.4779 42.6861 16.4271 42.1759 16.3976 41.6698L16.6476 41.6555C16.6766 42.1549 16.7268 42.6583 16.7968 43.152L16.5489 43.1865ZM16.6218 40.1514L16.3716 40.1456C16.3836 39.6388 16.4169 39.1271 16.4703 38.6249L16.7193 38.6509C16.6665 39.1465 16.6337 39.6513 16.6218 40.1514ZM16.9407 37.1635L16.6947 37.1172C16.7901 36.62 16.9076 36.1206 17.0441 35.6329L17.2854 35.6992C17.1507 36.1803 17.0347 36.6729 16.9407 37.1635ZM17.7515 34.2682L17.5166 34.1823C17.6936 33.7074 17.8931 33.2337 18.1094 32.7746L18.3362 32.8794C18.1228 33.3324 17.9261 33.7996 17.7515 34.2682ZM52.0364 33.5017C51.8407 33.042 51.6229 32.5844 51.3891 32.1415L51.6109 32.0266C51.8479 32.4756 52.0687 32.9394 52.267 33.4053L52.0364 33.5017ZM19.0349 31.5435L18.8175 31.4205C19.0711 30.9812 19.3464 30.5467 19.6359 30.129L19.8423 30.2694C19.5567 30.6815 19.285 31.1102 19.0349 31.5435ZM50.6306 30.8388C50.361 30.4171 50.0702 30.0011 49.7664 29.6024L49.9663 29.453C50.2742 29.8571 50.5689 30.2787 50.842 30.7062L50.6306 30.8388ZM20.7526 29.0653L20.5585 28.9086C20.8815 28.5162 21.2247 28.1322 21.5789 27.7674L21.7593 27.9392C21.4099 28.2992 21.0712 28.6781 20.7526 29.0653ZM48.8028 28.4402C48.467 28.0674 48.1116 27.7039 47.7463 27.3598L47.9188 27.1802C48.289 27.5289 48.6493 27.8973 48.9896 28.2751L48.8028 28.4402ZM22.8556 26.8986L22.69 26.7127C23.073 26.3778 23.4749 26.0545 23.8844 25.7517L24.0341 25.9504C23.63 26.2492 23.2336 26.5681 22.8556 26.8986ZM46.604 26.3688C46.2113 26.0553 45.8007 25.7541 45.3835 25.4737L45.5241 25.2685C45.9469 25.5528 46.3631 25.858 46.7611 26.1757L46.604 26.3688ZM25.2868 25.1014L25.154 24.8912C25.5875 24.6226 26.0372 24.3689 26.4908 24.1371L26.6055 24.3574C26.1581 24.5861 25.7144 24.8365 25.2868 25.1014ZM44.093 24.681C43.6531 24.4351 43.1982 24.2048 42.7407 23.9964L42.8453 23.771C43.309 23.9824 43.7702 24.2159 44.216 24.465L44.093 24.681ZM27.9816 23.7239L27.8855 23.4949C28.3573 23.3008 28.8429 23.124 29.3288 22.9694L29.4053 23.2055C28.926 23.358 28.4469 23.5324 27.9816 23.7239ZM41.3359 23.4248C40.8621 23.2544 40.375 23.1016 39.8881 22.9707L39.9537 22.7314C40.4472 22.8641 40.941 23.019 41.4213 23.1917L41.3359 23.4248ZM30.8686 22.8055L30.8122 22.564C31.3093 22.4498 31.8181 22.3548 32.3242 22.2816L32.3604 22.5269C31.861 22.5992 31.3592 22.6929 30.8686 22.8055V22.8055ZM38.4073 22.6371C37.9125 22.5468 37.4067 22.4757 36.9041 22.426L36.929 22.1792C37.4385 22.2297 37.9511 22.3017 38.4527 22.3933L38.4073 22.6371ZM33.8702 22.371L33.8544 22.1236C34.3636 22.0917 34.8827 22.0804 35.3929 22.0895L35.3884 22.3375C34.8846 22.3284 34.3727 22.3397 33.8702 22.371Z" fill="#3F3D56"/>
<path d="M52.7903 35.6352C52.7233 35.3992 52.6504 35.1614 52.5737 34.9283L52.8117 34.8514C52.8895 35.0877 52.9633 35.3288 53.0312 35.568L52.7903 35.6352Z" fill="#3F3D56"/>
<path d="M51.2639 21.7492H51.0135C51.0135 21.5011 51.018 21.2493 51.0267 21.001L51.2769 21.0096C51.2683 21.2551 51.2639 21.5039 51.2639 21.7492Z" fill="#3F3D56"/>
<path d="M51.383 19.5185L51.134 19.4922C51.1877 18.9929 51.2602 18.4894 51.3497 17.9959L51.5962 18.0397C51.5077 18.5274 51.436 19.025 51.383 19.5185ZM51.916 16.58L51.6735 16.5187C51.7988 16.0321 51.9436 15.5441 52.1039 15.0684L52.3414 15.1469C52.183 15.617 52.0399 16.0991 51.916 16.58ZM91.8409 13.9639C91.6538 13.5038 91.4473 13.0447 91.2273 12.5995L91.4522 12.4905C91.6748 12.941 91.8837 13.4056 92.0732 13.8713L91.8409 13.9639ZM52.8705 13.7466L52.6393 13.6513C52.834 13.1879 53.0483 12.7254 53.2766 12.2764L53.5001 12.3879C53.2747 12.8316 53.0628 13.2887 52.8705 13.7466ZM90.5161 11.282C90.2644 10.8536 89.9938 10.4284 89.7116 10.0184L89.9184 9.87871C90.2041 10.2936 90.4779 10.7238 90.7325 11.1573L90.5161 11.282ZM54.2268 11.0778L54.0118 10.9507C54.2713 10.5202 54.5503 10.0929 54.8409 9.68081L55.0462 9.82283C54.7589 10.2301 54.4832 10.6523 54.2268 11.0778H54.2268ZM88.8177 8.81494C88.5064 8.42574 88.1774 8.04308 87.8396 7.67755L88.0242 7.51011C88.366 7.87999 88.6991 8.26714 89.0141 8.66093L88.8177 8.81494ZM55.954 8.62921L55.7595 8.47302C56.0788 8.08292 56.4163 7.69947 56.7625 7.33334L56.9453 7.50284C56.6031 7.86474 56.2695 8.24371 55.954 8.62921ZM86.7821 6.61203C86.4182 6.27072 86.0376 5.93825 85.6506 5.62375L85.8093 5.43209C86.2009 5.75022 86.5861 6.08668 86.9543 6.43199L86.7821 6.61203ZM58.0149 6.44943L57.8447 6.26745C58.2165 5.92656 58.6054 5.59451 59.0007 5.28062L59.1573 5.4741C58.7666 5.78436 58.3822 6.11247 58.0149 6.44942V6.44943ZM84.4508 4.71786C84.0418 4.43128 83.6173 4.15583 83.1888 3.89915L83.3184 3.68703C83.7519 3.94673 84.1815 4.22545 84.5953 4.51543L84.4508 4.71786ZM60.3668 4.58202L60.2245 4.378C60.6413 4.09299 61.0738 3.8193 61.5102 3.56444L61.6373 3.77802C61.2061 4.02991 60.7786 4.3004 60.3668 4.58202V4.58202ZM81.8709 3.17215C81.4246 2.94635 80.9646 2.73398 80.5035 2.5408L80.6011 2.31246C81.0677 2.50787 81.5331 2.72284 81.9848 2.95131L81.8709 3.17215ZM62.9626 3.0664L62.8512 2.84435C63.3047 2.62132 63.7722 2.4118 64.2406 2.22165L64.3356 2.45109C63.8726 2.63899 63.4107 2.84603 62.9626 3.06639V3.0664ZM79.0938 2.00874C78.6202 1.84904 78.1341 1.70436 77.6489 1.57874L77.7122 1.33889C78.2033 1.46596 78.6953 1.6124 79.1744 1.77397L79.0938 2.00874ZM65.7493 1.93537L65.6714 1.69976C66.1525 1.54357 66.6458 1.4027 67.1378 1.28107L67.1984 1.52165C66.7123 1.64182 66.2247 1.78099 65.7494 1.93536L65.7493 1.93537ZM76.1768 1.25335C75.6846 1.16284 75.1827 1.08893 74.685 1.0336L74.7129 0.787207C75.2165 0.843204 75.7244 0.917967 76.2225 1.00951L76.1768 1.25335ZM68.6738 1.21255L68.6309 0.968215C69.1296 0.88219 69.6382 0.81299 70.1427 0.762447L70.1679 1.0092C69.6694 1.05908 69.1667 1.12749 68.6738 1.21254L68.6738 1.21255ZM73.1811 0.919906C72.6798 0.899746 72.1702 0.897083 71.6727 0.911794L71.6651 0.663955C72.1686 0.649063 72.6841 0.651665 73.1914 0.672188L73.1811 0.919906Z" fill="#3F3D56"/>
<path d="M92.5732 16.0916C92.5062 15.8557 92.4338 15.6174 92.3583 15.3835L92.5966 15.3079C92.6732 15.5446 92.7464 15.7857 92.8142 16.0244L92.5732 16.0916Z" fill="#3F3D56"/>
<path d="M19.4104 54.0123C21.7132 54.0123 23.5801 53.8737 23.5801 53.7026C23.5801 53.5315 21.7132 53.3928 19.4104 53.3928C17.1075 53.3928 15.2406 53.5315 15.2406 53.7026C15.2406 53.8737 17.1075 54.0123 19.4104 54.0123Z" fill="#B42F3C"/>
<path d="M52.6641 39.0407C54.967 39.0407 56.8339 38.902 56.8339 38.7309C56.8339 38.5598 54.967 38.4211 52.6641 38.4211C50.3613 38.4211 48.4944 38.5598 48.4944 38.7309C48.4944 38.902 50.3613 39.0407 52.6641 39.0407Z" fill="#B42F3C"/>
<path d="M93.7362 23.4495C96.0391 23.4495 97.9059 23.3108 97.9059 23.1397C97.9059 22.9686 96.0391 22.83 93.7362 22.83C91.4333 22.83 89.5664 22.9686 89.5664 23.1397C89.5664 23.3108 91.4333 23.4495 93.7362 23.4495Z" fill="#B42F3C"/>
<path d="M92.0841 22.1228L79.5457 34.542L79.7227 34.7173L92.2611 22.2981L92.0841 22.1228Z" fill="#3F3D56"/>
<path d="M75.9106 36.1288H54.8533V36.3767H75.9106V36.1288Z" fill="#3F3D56"/>
<path d="M51.0099 37.8192L39.2324 49.4848L39.4094 49.6601L51.1869 37.9946L51.0099 37.8192Z" fill="#3F3D56"/>
<path d="M35.6723 51.1006H21.5994V51.3485H35.6723V51.1006Z" fill="#3F3D56"/>
<path d="M17.7738 52.67L3.78943 66.5215L3.96643 66.6969L17.9509 52.8454L17.7738 52.67Z" fill="#3F3D56"/>
<path d="M19.4103 53.5169C18.9526 53.5169 18.5051 53.3825 18.1245 53.1306C17.744 52.8787 17.4473 52.5207 17.2721 52.1019C17.097 51.683 17.0511 51.2221 17.1404 50.7774C17.2297 50.3327 17.4501 49.9243 17.7738 49.6037C18.0974 49.2831 18.5098 49.0648 18.9587 48.9763C19.4077 48.8878 19.873 48.9332 20.2959 49.1067C20.7188 49.2802 21.0802 49.5741 21.3346 49.951C21.5889 50.328 21.7246 50.7712 21.7246 51.2246C21.7239 51.8323 21.4799 52.415 21.046 52.8447C20.6121 53.2745 20.0239 53.5162 19.4103 53.5169ZM19.4103 49.1802C19.0021 49.1802 18.6031 49.3001 18.2636 49.5247C17.9242 49.7494 17.6596 50.0686 17.5034 50.4422C17.3472 50.8157 17.3063 51.2268 17.3859 51.6234C17.4656 52.0199 17.6621 52.3842 17.9508 52.6701C18.2394 52.956 18.6072 53.1508 19.0076 53.2297C19.408 53.3085 19.823 53.2681 20.2001 53.1133C20.5773 52.9586 20.8996 52.6966 21.1264 52.3604C21.3532 52.0242 21.4742 51.6289 21.4742 51.2246C21.4736 50.6826 21.256 50.163 20.8691 49.7797C20.4821 49.3964 19.9575 49.1808 19.4103 49.1802Z" fill="#3F3D56"/>
<path d="M37.8614 53.5169C37.4037 53.5169 36.9563 53.3825 36.5757 53.1306C36.1951 52.8787 35.8985 52.5207 35.7233 52.1018C35.5481 51.6829 35.5023 51.222 35.5916 50.7774C35.6809 50.3327 35.9013 49.9242 36.225 49.6037C36.5486 49.2831 36.961 49.0647 37.4099 48.9763C37.8589 48.8878 38.3242 48.9332 38.7471 49.1067C39.17 49.2802 39.5314 49.5741 39.7857 49.951C40.04 50.328 40.1758 50.7712 40.1758 51.2246C40.1751 51.8323 39.931 52.415 39.4972 52.8448C39.0633 53.2745 38.475 53.5162 37.8614 53.5169ZM37.8614 49.1802C37.4532 49.1802 37.0542 49.3001 36.7148 49.5248C36.3753 49.7494 36.1108 50.0687 35.9546 50.4422C35.7984 50.8158 35.7575 51.2268 35.8371 51.6234C35.9168 52.02 36.1133 52.3842 36.402 52.6702C36.6906 52.9561 37.0584 53.1508 37.4588 53.2297C37.8592 53.3085 38.2742 53.2681 38.6513 53.1133C39.0284 52.9586 39.3508 52.6966 39.5776 52.3604C39.8044 52.0242 39.9254 51.6289 39.9254 51.2246C39.9248 50.6826 39.7072 50.1629 39.3202 49.7797C38.9333 49.3964 38.4087 49.1808 37.8614 49.1802Z" fill="#3F3D56"/>
<path d="M52.6641 38.5451C52.2064 38.5451 51.759 38.4106 51.3784 38.1588C50.9978 37.9069 50.7012 37.5489 50.526 37.13C50.3509 36.7111 50.305 36.2502 50.3943 35.8056C50.4836 35.3609 50.704 34.9525 51.0277 34.6319C51.3514 34.3113 51.7637 34.093 52.2126 34.0046C52.6616 33.9161 53.1269 33.9615 53.5498 34.135C53.9727 34.3085 54.3341 34.6023 54.5884 34.9793C54.8427 35.3562 54.9784 35.7994 54.9784 36.2528C54.9778 36.8605 54.7337 37.4432 54.2998 37.8729C53.866 38.3027 53.2777 38.5444 52.6641 38.5451ZM52.6641 34.2085C52.2559 34.2085 51.8569 34.3284 51.5175 34.553C51.178 34.7777 50.9135 35.0969 50.7573 35.4705C50.6011 35.8441 50.5602 36.2551 50.6399 36.6517C50.7195 37.0482 50.9161 37.4125 51.2047 37.6984C51.4934 37.9843 51.8612 38.179 52.2615 38.2579C52.6619 38.3367 53.0769 38.2962 53.454 38.1415C53.8312 37.9868 54.1535 37.7247 54.3803 37.3885C54.6071 37.0524 54.7281 36.6571 54.7281 36.2528C54.7275 35.7108 54.5098 35.1911 54.1229 34.8079C53.7359 34.4246 53.2113 34.2091 52.6641 34.2085V34.2085Z" fill="#3F3D56"/>
<path d="M78.0995 38.5451C77.6418 38.5451 77.1944 38.4106 76.8138 38.1588C76.4332 37.9069 76.1366 37.5489 75.9614 37.13C75.7863 36.7111 75.7405 36.2502 75.8297 35.8056C75.919 35.3609 76.1395 34.9525 76.4631 34.6319C76.7868 34.3113 77.1991 34.093 77.6481 34.0046C78.097 33.9161 78.5623 33.9615 78.9852 34.135C79.4081 34.3085 79.7695 34.6023 80.0238 34.9793C80.2781 35.3562 80.4138 35.7994 80.4139 36.2528C80.4132 36.8605 80.1691 37.4432 79.7352 37.8729C79.3014 38.3027 78.7131 38.5444 78.0995 38.5451ZM78.0995 34.2085C77.6913 34.2085 77.2923 34.3284 76.9529 34.553C76.6135 34.7777 76.3489 35.0969 76.1927 35.4705C76.0365 35.8441 75.9956 36.2551 76.0753 36.6517C76.1549 37.0482 76.3515 37.4125 76.6402 37.6984C76.9288 37.9843 77.2966 38.179 77.6969 38.2579C78.0973 38.3367 78.5123 38.2962 78.8894 38.1415C79.2666 37.9868 79.5889 37.7247 79.8157 37.3885C80.0425 37.0524 80.1635 36.6571 80.1635 36.2528C80.1629 35.7108 79.9453 35.1911 79.5583 34.8079C79.1714 34.4246 78.6467 34.2091 78.0995 34.2085V34.2085Z" fill="#3F3D56"/>
<path d="M93.7362 22.9539C93.2784 22.9539 92.831 22.8195 92.4504 22.5676C92.0698 22.3157 91.7732 21.9577 91.598 21.5388C91.4229 21.12 91.377 20.6591 91.4663 20.2144C91.5556 19.7697 91.7761 19.3613 92.0997 19.0407C92.4234 18.7201 92.8358 18.5018 93.2847 18.4134C93.7336 18.3249 94.1989 18.3703 94.6218 18.5438C95.0447 18.7173 95.4061 19.0111 95.6604 19.3881C95.9147 19.765 96.0505 20.2082 96.0505 20.6616C96.0498 21.2693 95.8057 21.852 95.3719 22.2817C94.938 22.7115 94.3497 22.9532 93.7362 22.9539ZM93.7362 18.6173C93.3279 18.6173 92.9289 18.7372 92.5895 18.9618C92.2501 19.1865 91.9855 19.5058 91.8293 19.8793C91.6731 20.2529 91.6322 20.6639 91.7119 21.0605C91.7915 21.457 91.9881 21.8213 92.2768 22.1072C92.5654 22.3931 92.9332 22.5878 93.3336 22.6667C93.7339 22.7455 94.1489 22.7051 94.5261 22.5503C94.9032 22.3956 95.2255 22.1336 95.4523 21.7974C95.6791 21.4612 95.8002 21.0659 95.8001 20.6616C95.7995 20.1196 95.5819 19.6 95.1949 19.2167C94.808 18.8335 94.2834 18.6179 93.7362 18.6173V18.6173Z" fill="#3F3D56"/>
<path d="M2.31426 70.4504C1.85653 70.4504 1.40907 70.316 1.02848 70.0641C0.647881 69.8122 0.351239 69.4542 0.176064 69.0353C0.000888925 68.6165 -0.0449512 68.1556 0.0443406 67.7109C0.133632 67.2662 0.354045 66.8577 0.677707 66.5372C1.00137 66.2166 1.41374 65.9982 1.86268 65.9098C2.31161 65.8213 2.77695 65.8667 3.19984 66.0402C3.62273 66.2137 3.98418 66.5075 4.23848 66.8845C4.49279 67.2615 4.62852 67.7047 4.62852 68.1581C4.62783 68.7658 4.38379 69.3485 3.94993 69.7782C3.51607 70.2079 2.92784 70.4497 2.31426 70.4504ZM2.31426 66.1137C1.90604 66.1137 1.50699 66.2336 1.16756 66.4582C0.828132 66.6828 0.563577 67.0021 0.40735 67.3757C0.251123 67.7492 0.21024 68.1603 0.289873 68.5569C0.369505 68.9534 0.566075 69.3177 0.854725 69.6036C1.14338 69.8895 1.51114 70.0842 1.91152 70.1631C2.31189 70.242 2.72689 70.2015 3.10404 70.0468C3.48118 69.8921 3.80354 69.63 4.03033 69.2938C4.25713 68.9577 4.37818 68.5624 4.37818 68.1581C4.37755 67.6161 4.15991 67.0964 3.77299 66.7132C3.38606 66.3299 2.86146 66.1143 2.31426 66.1137Z" fill="#3F3D56"/>
<path d="M19.4104 37.6984C18.8628 37.6984 18.3206 37.8052 17.8147 38.0127C17.3088 38.2203 16.8491 38.5245 16.4619 38.908C16.0747 39.2916 15.7676 39.7469 15.558 40.248C15.3485 40.749 15.2406 41.2861 15.2406 41.8285C15.2406 44.1095 19.4104 51.6375 19.4104 51.6375C19.4104 51.6375 23.5801 44.1095 23.5801 41.8285C23.5801 41.2861 23.4723 40.749 23.2627 40.248C23.0532 39.7469 22.746 39.2916 22.3588 38.908C21.9716 38.5245 21.5119 38.2203 21.0061 38.0127C20.5002 37.8052 19.9579 37.6984 19.4104 37.6984ZM19.4104 43.9968C18.9774 43.9968 18.5541 43.8696 18.1941 43.6314C17.8341 43.3931 17.5536 43.0545 17.3879 42.6583C17.2222 42.2621 17.1788 41.8261 17.2633 41.4055C17.3478 40.9849 17.5563 40.5985 17.8624 40.2953C18.1686 39.992 18.5586 39.7855 18.9833 39.7018C19.4079 39.6182 19.8481 39.6611 20.2481 39.8252C20.6481 39.9893 20.99 40.2673 21.2305 40.6238C21.4711 40.9804 21.5995 41.3996 21.5995 41.8285C21.5995 42.4036 21.3688 42.9551 20.9583 43.3617C20.5478 43.7684 19.9909 43.9968 19.4104 43.9968Z" fill="#B42F3C"/>
<path d="M52.6641 22.2104C51.5582 22.2104 50.4977 22.6455 49.7157 23.4201C48.9337 24.1946 48.4944 25.2451 48.4944 26.3405C48.4944 28.6215 52.6641 36.1496 52.6641 36.1496C52.6641 36.1496 56.8339 28.6215 56.8339 26.3405C56.8339 25.7981 56.726 25.2611 56.5165 24.76C56.3069 24.2589 55.9998 23.8036 55.6126 23.4201C55.2254 23.0366 54.7657 22.7323 54.2598 22.5248C53.7539 22.3172 53.2117 22.2104 52.6641 22.2104ZM52.6641 28.5088C52.2312 28.5088 51.8079 28.3817 51.4479 28.1434C51.0879 27.9051 50.8073 27.5665 50.6417 27.1703C50.476 26.7741 50.4326 26.3381 50.5171 25.9175C50.6015 25.4969 50.81 25.1105 51.1162 24.8073C51.4223 24.504 51.8124 24.2975 52.2371 24.2139C52.6617 24.1302 53.1019 24.1731 53.5019 24.3373C53.9019 24.5014 54.2438 24.7793 54.4843 25.1359C54.7249 25.4924 54.8533 25.9117 54.8533 26.3405C54.8533 26.9156 54.6226 27.4671 54.2121 27.8737C53.8015 28.2804 53.2447 28.5088 52.6641 28.5088Z" fill="#B42F3C"/>
<path d="M134.523 87.6971H77.7534V88H134.523V87.6971Z" fill="#2F2E41"/>
<path d="M124.599 8.98023C123.717 11.5684 122.364 13.9267 119.606 13.9267C116.847 13.9267 114.767 11.7077 114.612 8.98023C114.413 5.49503 116.784 4.01936 119.606 4.0338C122.939 4.05085 125.647 5.90867 124.599 8.98023Z" fill="#2F2E41"/>
<path d="M124.468 8.58972H114.612V20.9558H124.468V8.58972Z" fill="#2F2E41"/>
<path d="M124.757 17.8025H125.596C125.596 17.8025 127.645 20.3859 126.714 23.8919C125.782 27.398 126.527 28.0438 126.527 28.0438C126.527 28.0438 127.74 31.8406 126.436 37.561C125.132 43.2813 127.645 44.8359 127.645 44.8359L125.316 40.2227L124.012 28.0438L124.757 17.8025Z" fill="#B42F3C"/>
<path opacity="0.1" d="M124.757 18.106H125.596C125.596 18.106 127.645 20.6894 126.714 24.1954C125.782 27.7014 126.527 28.3473 126.527 28.3473C126.527 28.3473 127.74 32.144 126.436 37.8644C125.132 43.5848 127.645 45.1394 127.645 45.1394L125.316 40.5262L124.012 28.3473L124.757 18.106Z" fill="black"/>
<path d="M121.823 13.3277C121.823 13.3277 121.078 16.2801 121.451 16.2801C121.823 16.2801 123.127 17.8486 123.127 17.8486L123.966 20.8934L123.314 23.1077L121.078 22.6464L118.283 19.6017L117.445 18.7713L116.7 16.0956C116.7 16.0956 117.631 14.9884 116.979 14.0658C116.327 13.1432 121.823 13.3277 121.823 13.3277Z" fill="#FBBEBE"/>
<path opacity="0.1" d="M121.823 13.3277C121.823 13.3277 121.078 16.2801 121.451 16.2801C121.823 16.2801 123.127 17.8486 123.127 17.8486L123.966 20.8934L123.314 23.1077L121.078 22.6464L118.283 19.6017L117.445 18.7713L116.7 16.0956C116.7 16.0956 117.631 14.9884 116.979 14.0658C116.327 13.1432 121.823 13.3277 121.823 13.3277Z" fill="black"/>
<path d="M99.281 21.5392L97.2317 18.2177C97.2317 18.2177 95.0196 13.3697 93.436 15.1227C91.8525 16.8758 95.8344 20.432 95.8344 20.432L97.8837 23.1077L99.281 21.5392Z" fill="#FBBEBE"/>
<path d="M126.481 50.4179L124.99 61.2129C124.99 61.2129 125.177 62.0432 123.314 65.088C121.451 68.1327 116.421 74.7757 116.421 74.7757L114.93 72.0078C114.93 72.0078 116.7 63.2427 119.774 61.3974L119.401 48.1113L126.481 50.4179Z" fill="#FBBEBE"/>
<path opacity="0.1" d="M126.481 50.4179L124.99 61.2129C124.99 61.2129 125.177 62.0432 123.314 65.088C121.451 68.1327 116.421 74.7757 116.421 74.7757L114.93 72.0078C114.93 72.0078 116.7 63.2427 119.774 61.3974L119.401 48.1113L126.481 50.4179Z" fill="black"/>
<path d="M114.93 70.9006L116.979 74.7757C116.979 74.7757 115.303 79.4811 115.955 79.9425C116.607 80.4038 117.445 84.5557 115.675 84.0943C113.906 83.633 112.508 81.7877 112.508 81.5109C112.508 81.2342 113.533 77.3591 112.974 76.4364C112.415 75.5138 112.043 75.237 112.043 75.237L110.645 77.5436L110.18 77.2668L112.508 73.3917C112.508 73.3917 112.788 72.6536 113.906 72.1923L114.93 70.9006Z" fill="#2F2E41"/>
<path opacity="0.1" d="M114.93 70.9006L116.979 74.7757C116.979 74.7757 115.303 79.4811 115.955 79.9425C116.607 80.4038 117.445 84.5557 115.675 84.0943C113.906 83.633 112.508 81.7877 112.508 81.5109C112.508 81.2342 113.533 77.3591 112.974 76.4364C112.415 75.5138 112.043 75.237 112.043 75.237L110.645 77.5436L110.18 77.2668L112.508 73.3917C112.508 73.3917 112.788 72.6536 113.906 72.1923L114.93 70.9006Z" fill="black"/>
<path d="M119.423 48.8863C119.423 48.8863 120.147 59.0907 118.563 61.7664V75.0524L116.421 75.3292C116.421 75.3292 112.094 68.2953 113.677 61.3755C115.261 54.4556 112.042 48.1113 112.042 48.1113L119.423 48.8863Z" fill="#FBBEBE"/>
<path d="M118.889 15.5882C121.05 15.5882 122.801 13.8532 122.801 11.7131C122.801 9.57289 121.05 7.83795 118.889 7.83795C116.728 7.83795 114.977 9.57289 114.977 11.7131C114.977 13.8532 116.728 15.5882 118.889 15.5882Z" fill="#FBBEBE"/>
<path d="M122.848 21.9083L118.936 17.0183L116.7 15.5421L115.768 16.7415L113.16 17.4796C113.16 17.4796 111.484 17.8487 109.714 19.8785C107.944 21.9083 104.777 23.1077 104.777 23.1077L102.169 22.6464C102.169 22.6464 99.0947 21.2624 99.0947 20.8934C99.0947 20.5243 96.3933 23.3845 97.0454 24.4917C97.6974 25.5989 99.0947 26.9828 99.8399 27.7209C100.585 28.4591 100.865 30.5811 105.429 29.9353C109.993 29.2894 111.67 27.0751 111.67 27.0751C111.67 27.0751 112.508 31.3193 114.93 32.1496C117.352 32.98 125.27 33.5336 125.27 33.5336L126.946 27.9977C126.946 27.9977 128.809 25.5989 126.294 22.0928C126.294 22.0928 126.246 20.132 125.976 18.8272C125.871 18.3197 125.732 17.9114 125.549 17.7564C124.897 17.2028 121.451 16.2802 121.451 16.2802C121.451 16.2802 122.01 18.1255 122.289 18.2177C122.568 18.31 123.22 21.447 122.848 21.9083Z" fill="#B42F3C"/>
<path d="M110.319 49.4492C115.01 49.1263 117.741 49.8874 118.96 50.4678C119.186 50.5693 119.4 50.6976 119.595 50.8498C119.684 50.9245 119.727 50.9826 119.727 51.0177C119.727 51.2945 126.155 51.8481 128.483 51.2945C130.812 50.7409 126.9 38.8388 125.875 37.8239C124.851 36.809 125.403 33.0944 125.403 33.0944C125.403 33.0944 123.36 32.6571 122.801 32.8416C122.242 33.0261 119.355 32.5648 118.33 32.0112C117.305 31.4576 116.001 31.8267 115.163 31.6422C114.789 31.5601 114.599 31.6985 114.505 31.8774C114.359 32.1459 114.138 32.3672 113.868 32.515C111.891 33.6434 110.303 41.4453 109.108 45.7586C107.804 50.4641 110.319 49.4492 110.319 49.4492Z" fill="#2F2E41"/>
<path d="M118.936 74.2221L119.308 76.2519C119.308 76.2519 121.264 79.0199 120.705 81.3265C120.705 81.3265 121.171 84.3712 122.848 85.2016C124.525 86.0319 123.127 87.9695 121.544 87.8772C119.96 87.785 118.47 87.9695 118.284 87.5082C118.097 87.0469 116.979 82.5259 116.979 82.5259L116.674 87.8163L115.742 87.9086L116.048 81.7878C116.048 81.7878 115.303 80.4038 116.327 78.0972L116.069 74.5566C116.069 74.5566 118.656 75.1447 118.936 74.2221Z" fill="#2F2E41"/>
<path opacity="0.1" d="M118.96 50.4677C119.186 50.5692 119.4 50.6975 119.595 50.8497C119.644 49.9778 119.93 44.7049 119.588 44.7898L118.96 50.4677Z" fill="black"/>
<path d="M117.269 6.37683C117.269 6.37683 117.226 6.13793 115.532 6.76734C113.837 7.39675 112.821 12.0415 113.669 14.7689C114.01 15.8681 113.732 16.6605 113.279 17.215C111.578 19.2958 112.247 22.421 114.725 23.4911C114.795 23.5213 114.867 23.5511 114.939 23.5806L115.999 24.21C115.999 24.21 114.648 22.4505 115.324 20.1997C115.911 18.2819 115.983 16.2458 115.534 14.2919C115.457 13.9623 115.369 13.6225 115.269 13.2758C114.421 10.3386 114.834 10.6778 117.799 7.74054C117.799 7.74054 119.493 8.99936 120.976 9.62877C122.459 10.2582 123.73 10.8876 122.671 12.9856C121.612 15.0836 119.07 16.9719 120.764 19.6993C122.459 22.4267 122.671 21.3777 122.459 22.4267L122.247 23.4757L123.518 22.2169L122.671 23.8953C122.671 23.8953 125.424 23.8953 126.272 21.7973L126.695 22.2169C126.695 22.2169 128.39 19.2797 125.212 16.5522C125.212 16.5522 124.153 15.9228 125.636 13.8248C127.119 11.7268 125.98 7.21603 124.074 6.37683C122.167 5.53762 117.269 6.37683 117.269 6.37683Z" fill="#2F2E41"/>
<path d="M119.606 5.07512C120.694 5.07512 121.577 4.20094 121.577 3.12258C121.577 2.04423 120.694 1.17004 119.606 1.17004C118.517 1.17004 117.634 2.04423 117.634 3.12258C117.634 4.20094 118.517 5.07512 119.606 5.07512Z" fill="#2F2E41"/>
<path d="M117.24 2.0812C117.24 1.59718 117.422 1.13042 117.749 0.771463C118.077 0.412507 118.528 0.186943 119.014 0.138522C118.949 0.132142 118.884 0.128662 118.817 0.128662C118.294 0.128662 117.793 0.334375 117.423 0.700548C117.054 1.06672 116.846 1.56336 116.846 2.0812C116.846 2.59905 117.054 3.09569 117.423 3.46186C117.793 3.82803 118.294 4.03374 118.817 4.03374C118.884 4.03374 118.949 4.03026 119.014 4.02388C118.528 3.97546 118.077 3.7499 117.749 3.39094C117.422 3.03198 117.24 2.56523 117.24 2.0812Z" fill="#2F2E41"/>
<path d="M93.7362 7.34198C93.1886 7.34198 92.6464 7.44881 92.1405 7.65637C91.6346 7.86393 91.1749 8.16815 90.7877 8.55166C90.4005 8.93518 90.0934 9.39048 89.8838 9.89157C89.6743 10.3927 89.5664 10.9297 89.5664 11.4721C89.5664 13.7531 93.7362 21.2811 93.7362 21.2811C93.7362 21.2811 97.9059 13.7531 97.9059 11.4721C97.9059 10.9297 97.7981 10.3927 97.5885 9.89157C97.379 9.39048 97.0718 8.93518 96.6846 8.55166C96.2974 8.16815 95.8378 7.86393 95.3319 7.65637C94.826 7.44881 94.2837 7.34198 93.7362 7.34198ZM93.7362 13.6404C93.3032 13.6404 92.88 13.5132 92.52 13.275C92.16 13.0367 91.8794 12.6981 91.7137 12.3019C91.548 11.9057 91.5046 11.4697 91.5891 11.0491C91.6736 10.6285 91.8821 10.2421 92.1882 9.93888C92.4944 9.63564 92.8844 9.42912 93.3091 9.34546C93.7337 9.26179 94.1739 9.30473 94.5739 9.46885C94.9739 9.63296 95.3158 9.91088 95.5563 10.2675C95.7969 10.624 95.9253 11.0433 95.9253 11.4721C95.9253 12.0472 95.6946 12.5987 95.2841 13.0053C94.8736 13.412 94.3168 13.6404 93.7362 13.6404Z" fill="#B42F3C"/>
<path d="M60.1222 84.1894C61.3683 84.1894 62.3785 83.1888 62.3785 81.9546C62.3785 80.7203 61.3683 79.7198 60.1222 79.7198C58.8761 79.7198 57.866 80.7203 57.866 81.9546C57.866 83.1888 58.8761 84.1894 60.1222 84.1894Z" fill="#F1F1F1"/>
<path d="M74.1598 74.7365C75.4059 74.7365 76.4161 73.7359 76.4161 72.5017C76.4161 71.2674 75.4059 70.2668 74.1598 70.2668C72.9137 70.2668 71.9036 71.2674 71.9036 72.5017C71.9036 73.7359 72.9137 74.7365 74.1598 74.7365Z" fill="#F1F1F1"/>
<path d="M56.8001 65.9345C58.0462 65.9345 59.0563 64.9339 59.0563 63.6997C59.0563 62.4655 58.0462 61.4649 56.8001 61.4649C55.554 61.4649 54.5438 62.4655 54.5438 63.6997C54.5438 64.9339 55.554 65.9345 56.8001 65.9345Z" fill="#F1F1F1"/>
</g>
<defs>
<clipPath id="clip0">
<rect width="142" height="88" fill="white"/>
</clipPath>
</defs>
</svg>
