<svg width="90" height="90" viewBox="0 0 90 90" fill="none" xmlns="http://www.w3.org/2000/svg">
<path d="M42.7375 79.831H47.1661V26.3478H42.7375V79.831Z" fill="#BDC3C7"/>
<path d="M41.6318 32.3278L48.2669 32.3278L48.2669 41.257C48.2669 41.8623 47.7761 42.3532 47.1707 42.3532L42.728 42.3532C42.1227 42.3532 41.6318 41.8623 41.6318 41.257L41.6318 32.3278Z" fill="#802F34"/>
<path d="M40.2161 32.866C40.4048 32.3509 40.5297 31.8147 40.5882 31.2692C40.6715 29.7787 40.3615 28.2924 39.689 26.9595C39.1257 25.7611 38.4537 24.6168 37.6814 23.5411C35.8812 21.168 34.936 18.2561 34.9994 15.2782C34.9876 13.2153 35.4213 11.1742 36.2706 9.29425C37.3537 7.07597 39.403 5.48446 41.8205 4.98457C42.4688 4.83582 43.1318 4.76048 43.797 4.75978L46.1072 4.75987C46.7724 4.76057 47.4354 4.836 48.0837 4.98466C50.501 5.48463 52.5506 7.07614 53.6337 9.29442C54.4831 11.1744 54.9166 13.2155 54.9049 15.2784C54.9091 16.9079 54.6419 18.5269 54.1142 20.0687C53.6448 21.3069 53.0086 22.4753 52.2229 23.5412C51.4508 24.617 50.7787 25.7611 50.2153 26.9595C49.5428 28.2924 49.2327 29.7787 49.3162 31.2693C49.3746 31.8148 49.4996 32.351 49.6882 32.8661C49.8935 33.5584 49.7498 34.3073 49.3028 34.8743C48.856 35.4415 48.1614 35.7562 47.4403 35.7186L42.4639 35.7186C41.7429 35.7564 41.0485 35.4415 40.6014 34.8743C40.1546 34.3072 40.0109 33.5584 40.2161 32.866Z" fill="#CC4B4C"/>
<path d="M41.6346 18.0224L41.8206 4.98473C42.4689 4.83599 43.1319 4.76065 43.7971 4.75994L46.1071 4.75986C46.7723 4.76056 47.4353 4.83599 48.0836 4.98465L48.2696 18.0223C48.2742 19.2106 47.6429 20.3107 46.6145 20.9062C45.5861 21.5017 44.3178 21.5017 43.2894 20.9062C42.2613 20.3107 41.6299 19.2107 41.6346 18.0224Z" fill="#802F34"/>
<path d="M42.9601 87.7452L41.6114 85.0477L41.6037 80.6062C41.6116 80.2419 41.6501 78.2034 41.7431 77.8468L42.7275 73.917L47.1768 73.9169L48.1612 77.8467C48.2542 78.2033 48.293 80.2419 48.3007 80.6063L48.293 85.0477L46.9442 87.7453C46.7407 88.1675 46.4064 88.5128 45.9909 88.7297C45.3385 89.0629 44.5659 89.0628 43.9136 88.7296L43.9059 88.7219C43.4961 88.5033 43.1653 88.1617 42.9601 87.7452Z" fill="#95A5A5"/>
<path d="M43.9136 88.7295L43.9058 88.7218C43.8727 88.6137 43.8544 88.5015 43.8515 88.3885L43.8592 79.4979C43.8553 79.2047 43.9699 78.9224 44.1771 78.715C44.4938 78.4084 44.9627 78.3201 45.3692 78.4904C45.7758 78.6608 46.0416 79.0571 46.0451 79.4979L46.0529 88.3886C46.0473 88.5045 46.0265 88.6193 45.9909 88.7297C45.3386 89.0629 44.5659 89.0629 43.9136 88.7295Z" fill="#BDC3C7"/>
</svg>
