<svg width="235" height="163" viewBox="0 0 235 163" fill="none" xmlns="http://www.w3.org/2000/svg">
<g clip-path="url(#clip0)">
<path d="M168.024 111.456C168.024 126.207 159.268 131.358 148.467 131.358C137.666 131.358 128.91 126.207 128.91 111.456C128.91 96.705 148.467 77.9391 148.467 77.9391C148.467 77.9391 168.024 96.705 168.024 111.456Z" fill="#B42F3C"/>
<path d="M147.955 116.756L156.291 101.483L147.986 114.819L148.076 109.268L153.821 98.2185L148.1 107.799L148.262 97.8156L154.414 89.0186L148.288 96.2457L148.389 77.939L147.78 101.136L141.551 91.5857L147.705 103.093L147.122 114.243L147.105 113.947L139.894 103.857L147.083 114.993L147.01 116.387L146.997 116.408L147.003 116.523L145.524 131.402H147.5L147.737 130.2L154.908 119.091L147.755 129.101L147.955 116.756Z" fill="#3F3D56"/>
<path d="M235 64.0261C235 92.2046 218.274 102.044 197.641 102.044C177.008 102.044 160.282 92.2046 160.282 64.0261C160.282 35.8475 197.641 0 197.641 0C197.641 0 235 35.8475 235 64.0261Z" fill="#F2F2F2"/>
<path d="M196.28 97.733L196.662 74.1502L212.586 44.9748L196.722 70.4507L196.895 59.8468L207.869 38.7388L196.94 57.0407V57.0409L197.249 37.9693L209.001 21.1647L197.298 34.9704L197.491 0L196.277 46.2945L196.377 44.3847L184.429 26.0686L196.185 48.0506L195.072 69.3502L195.038 68.7849L181.265 49.51L194.997 70.7821L194.858 73.4459L194.833 73.486L194.844 73.7046L192.02 127.743H195.793L196.246 99.8313L209.944 78.6113L196.28 97.733Z" fill="#3F3D56"/>
<path d="M233.466 123.025C233.466 131.436 178.99 163 115.308 163C51.625 163 0 146.664 0 138.254C0 129.843 50.3579 139.84 114.041 139.84C177.723 139.84 233.466 114.615 233.466 123.025Z" fill="#3F3D56"/>
<path opacity="0.1" d="M233.466 123.025C233.466 131.436 178.99 163 115.308 163C51.625 163 0 146.664 0 138.254C0 129.843 50.3579 139.84 114.041 139.84C177.723 139.84 233.466 114.615 233.466 123.025Z" fill="black"/>
<path d="M233.466 123.025C233.466 131.436 178.99 153.482 115.308 153.482C51.625 153.482 0 146.664 0 138.254C0 129.843 50.3579 130.322 114.041 130.322C177.723 130.322 233.466 114.615 233.466 123.025Z" fill="#3F3D56"/>
<path opacity="0.1" d="M116.598 143.645C143.641 143.645 165.564 141.946 165.564 139.851C165.564 137.756 143.641 136.058 116.598 136.058C89.5549 136.058 67.6322 137.756 67.6322 139.851C67.6322 141.946 89.5549 143.645 116.598 143.645Z" fill="black"/>
<path d="M77.8072 63.8412C77.8072 63.8412 92.1423 64.1071 89.4876 66.6329C86.833 69.1586 76.8781 66.6329 76.8781 66.6329L77.8072 63.8412Z" fill="#A0616A"/>
<path d="M47.9397 33.1628C47.9397 33.1628 53.7275 32.1276 55.7399 36.8071C57.7523 41.4865 61.8853 54.832 61.8853 54.832C61.8853 54.832 72.9457 62.1643 74.9575 61.9234C76.9692 61.6825 80.4083 62.1741 79.7775 64.3721C79.1466 66.5702 79.4267 69.0627 77.9744 69.3682C76.5221 69.6737 74.2122 66.7577 72.4445 68.1622C70.6768 69.5667 54.9225 64.4366 53.9111 63.3737C52.8997 62.3108 44.4944 39.2939 44.4944 39.2939C44.4944 39.2939 44.8306 33.0878 47.9397 33.1628Z" fill="#B42F3C"/>
<path d="M60.3529 131.97L61.0165 137.553L55.4419 139.016L52.2562 137.553V132.635L60.3529 131.97Z" fill="#A0616A"/>
<path d="M45.354 135.559L46.0176 141.143L40.443 142.605L37.2573 141.143V136.224L45.354 135.559Z" fill="#A0616A"/>
<path d="M60.8838 70.9532L63.4057 80.1257L67.1222 98.7365C67.1222 98.7365 68.1841 103.256 66.0604 108.707C63.9367 114.157 60.0874 131.97 60.8838 133.034C61.6802 134.097 51.858 134.895 51.9907 133.831C52.1235 132.768 53.4508 118.145 53.4508 118.145C53.4508 118.145 55.309 105.25 56.2382 103.655C57.1673 102.06 51.9907 98.0718 51.9907 98.0718C51.9907 98.0718 50.6634 113.359 48.6724 114.689C46.6814 116.018 46.9469 136.623 46.0178 136.889C45.0886 137.155 38.3193 138.218 37.5229 136.889C36.7265 135.559 37.5229 113.359 37.5229 113.359C37.5229 113.359 42.0358 96.4766 41.1067 94.0838C40.1775 91.691 40.7085 81.4551 40.7085 81.4551C40.7085 81.4551 37.2574 73.6119 39.1157 69.491L60.8838 70.9532Z" fill="#2F2E41"/>
<path d="M60.4856 19.9064C60.4856 19.9064 54.9108 26.819 55.1763 29.8765C55.4418 32.934 46.416 24.2932 46.416 24.2932C46.416 24.2932 52.9199 15.5196 52.9199 13.6585C52.9199 11.7974 60.4856 19.9064 60.4856 19.9064Z" fill="#A0616A"/>
<path d="M60.4192 22.4986C65.2574 22.4986 69.1796 18.5705 69.1796 13.725C69.1796 8.8794 65.2574 4.95129 60.4192 4.95129C55.581 4.95129 51.6589 8.8794 51.6589 13.725C51.6589 18.5705 55.581 22.4986 60.4192 22.4986Z" fill="#A0616A"/>
<path d="M38.3418 65.9801C37.945 67.461 37.4525 69.14 37.5229 70.5544C37.568 71.4703 39.9957 72.0712 43.3525 72.4647C46.4651 72.8303 50.3767 73.0164 53.9326 73.1121C57.6663 73.2131 61.0046 73.2131 62.6093 73.2131C67.3877 73.2131 63.5384 70.1556 61.6802 68.6933C59.8219 67.2311 60.2201 46.4933 60.3529 43.8346C60.4856 41.1759 59.1583 33.4657 59.1583 32.0035C59.1583 30.5412 56.0351 26.7246 56.0351 26.7246C56.0351 26.7246 55.309 28.813 52.3889 26.0214C49.4688 23.2298 45.6196 22.4322 45.6196 22.4322C42.6994 23.4957 37.7883 35.1939 37.5229 37.1879C37.4154 37.9975 37.5043 42.1437 37.6848 46.8775C37.9463 53.7967 38.4029 61.9762 38.7175 62.8442C38.9657 63.5288 38.6909 64.6774 38.3418 65.9801Z" fill="#B42F3C"/>
<path d="M52.5217 73.7449L53.4508 77.0683L49.867 80.7905L48.6724 75.6059L52.5217 73.7449Z" fill="#A0616A"/>
<path d="M53.7162 136.091C53.7162 136.091 56.5036 139.282 58.6273 137.155C60.751 135.028 60.6183 133.698 61.0165 133.698C61.4147 133.698 67.3877 139.016 67.3877 139.016C67.3877 139.016 77.6081 141.408 72.0333 143.137C66.4585 144.865 50.6634 143.668 50.6634 143.137C50.6634 142.605 50.2652 135.559 51.7252 135.559L53.7162 136.091Z" fill="#2F2E41"/>
<path d="M38.7174 139.68C38.7174 139.68 41.5048 142.871 43.6285 140.744C45.7523 138.617 45.6195 137.287 46.0177 137.287C46.4159 137.287 52.3889 142.605 52.3889 142.605C52.3889 142.605 62.6093 144.998 57.0345 146.726C51.4598 148.454 35.6646 147.258 35.6646 146.726C35.6646 146.194 35.2664 139.149 36.7265 139.149L38.7174 139.68Z" fill="#2F2E41"/>
<path d="M50.5838 20.7286C50.3008 20.9117 49.9324 21.0973 49.6491 20.9147C48.5955 18.2833 47.8081 15.5528 47.2985 12.764C47.1196 11.7845 46.9954 10.6955 47.5388 9.86154C47.7531 9.53262 48.0616 9.26365 48.2185 8.90374C48.4563 8.35869 48.2998 7.72778 48.3788 7.13828C48.5442 5.90328 49.7099 5.0419 50.8821 4.62415C52.0542 4.20639 53.3273 4.0768 54.4446 3.52862C55.5055 3.00811 56.3553 2.14487 57.339 1.4898C58.3228 0.834723 59.5829 0.386826 60.6785 0.829479C61.6477 1.22107 62.2514 2.21047 63.1675 2.71424C63.7891 3.0561 64.5106 3.15123 65.2045 3.29798C67.1331 3.70779 68.9438 4.55032 70.5004 5.76218C70.8791 6.03275 71.2057 6.3699 71.4642 6.75725C72.6398 8.69566 70.535 11.331 71.4636 13.3995L69.456 11.813C68.9199 11.3433 68.3153 10.9585 67.6631 10.6718C66.9981 10.4195 66.2106 10.389 65.6065 10.7648C64.7588 11.2922 64.5289 12.3939 64.2328 13.3483C63.9366 14.3028 63.2818 15.3611 62.2842 15.3367C60.9274 15.3034 60.453 13.4071 59.2354 12.8068C58.4417 12.4154 57.4426 12.6731 56.7659 13.2439C56.0893 13.8147 55.6833 14.6429 55.3855 15.4772C55.1994 15.9985 55.0248 16.5863 54.6943 17.0382C54.3298 17.5366 53.8635 17.5767 53.4742 17.9489C52.4607 18.9179 51.8375 19.9174 50.5838 20.7286Z" fill="#2F2E41"/>
<path opacity="0.1" d="M38.3418 65.9802C39.9917 68.377 41.8513 70.8496 43.3525 72.4647C46.4651 72.8303 50.3767 73.0164 53.9326 73.1121C53.2973 72.2495 52.503 71.5167 51.5925 70.9533C49.867 69.8898 45.7523 57.261 45.7523 57.261C45.7523 57.261 50.7961 44.2335 52.1235 39.3149C53.4508 34.3963 48.2742 31.6047 48.2742 31.6047C45.885 29.6107 41.7703 34.2634 41.7703 34.2634C41.7703 34.2634 39.6705 40.607 37.6848 46.8775C37.9463 53.7968 38.4029 61.9762 38.7175 62.8443C38.9657 63.5289 38.6909 64.6774 38.3418 65.9802Z" fill="black"/>
<path d="M47.876 30.5412C47.876 30.5412 53.0526 33.3328 51.7253 38.2514C50.3979 43.17 45.3541 56.1976 45.3541 56.1976C45.3541 56.1976 49.4688 68.8263 51.1943 69.8898C52.9199 70.9533 55.309 73.479 53.4508 74.8084C51.5925 76.1377 50.2652 78.2647 48.9379 77.6C47.6106 76.9353 47.6106 73.2132 45.3541 73.2132C43.0977 73.2132 33.9391 59.388 33.8064 57.9257C33.6737 56.4634 41.3721 33.1999 41.3721 33.1999C41.3721 33.1999 45.4868 28.5472 47.876 30.5412Z" fill="#B42F3C"/>
<path d="M155.516 66.876L154.023 65.3805C153.152 64.5082 151.971 64.0182 150.739 64.0182C149.507 64.0182 148.326 64.5082 147.455 65.3805L118.492 94.3882L89.528 65.3805C88.657 64.5082 87.4757 64.0182 86.244 64.0182C85.0123 64.0182 83.831 64.5082 82.96 65.3805L81.4668 66.876C81.0355 67.308 80.6934 67.8207 80.46 68.385C80.2266 68.9494 80.1065 69.5542 80.1065 70.165C80.1065 70.7758 80.2266 71.3807 80.46 71.945C80.6934 72.5093 81.0355 73.0221 81.4668 73.454L110.43 102.462L81.4668 131.469C81.0355 131.901 80.6934 132.414 80.46 132.978C80.2266 133.543 80.1065 134.147 80.1065 134.758C80.1065 135.369 80.2266 135.974 80.46 136.538C80.6934 137.103 81.0355 137.615 81.4668 138.047L82.96 139.543C83.831 140.415 85.0123 140.905 86.244 140.905C87.4757 140.905 88.657 140.415 89.528 139.543L118.492 110.535L147.455 139.543C148.326 140.415 149.507 140.905 150.739 140.905C151.971 140.905 153.152 140.415 154.023 139.543L155.516 138.047C156.387 137.175 156.877 135.992 156.877 134.758C156.877 133.525 156.387 132.342 155.516 131.469L126.553 102.462L155.516 73.454C156.387 72.5817 156.877 71.3986 156.877 70.165C156.877 68.9314 156.387 67.7483 155.516 66.876Z" fill="#474747"/>
<path opacity="0.1" d="M80.4332 133.046L108.537 104.9L108.266 104.629L81.4668 131.469C81.0179 131.918 80.6661 132.455 80.4332 133.046Z" fill="black"/>
<path opacity="0.1" d="M81.0663 67.8189C81.9373 66.9466 83.1186 66.4566 84.3503 66.4566C85.582 66.4566 86.7633 66.9466 87.6343 67.8189L116.598 96.8266L145.561 67.8189C146.432 66.9466 147.614 66.4566 148.845 66.4566C150.077 66.4566 151.258 66.9466 152.129 67.8189L153.623 69.3144C154.263 69.9561 154.702 70.7715 154.886 71.6601C155.07 72.5487 154.99 73.4717 154.656 74.3153L155.516 73.454C155.948 73.022 156.29 72.5093 156.523 71.9449C156.757 71.3806 156.877 70.7758 156.877 70.165C156.877 69.5541 156.757 68.9493 156.523 68.385C156.29 67.8206 155.948 67.3079 155.516 66.876L154.023 65.3805C153.152 64.5082 151.971 64.0181 150.739 64.0181C149.507 64.0181 148.326 64.5082 147.455 65.3805L118.492 94.3881L89.528 65.3805C88.657 64.5082 87.4758 64.0181 86.244 64.0181C85.0123 64.0181 83.831 64.5082 82.96 65.3805L81.4668 66.876C81.0179 67.3251 80.6661 67.8619 80.4332 68.453L81.0663 67.8189Z" fill="black"/>
<path opacity="0.1" d="M126.823 102.733L124.659 104.9L153.623 133.908C154.263 134.549 154.703 135.365 154.886 136.253C155.07 137.142 154.99 138.065 154.656 138.909L155.516 138.047C155.948 137.615 156.29 137.103 156.523 136.538C156.757 135.974 156.877 135.369 156.877 134.758C156.877 134.147 156.757 133.543 156.523 132.978C156.29 132.414 155.948 131.901 155.516 131.469L126.823 102.733Z" fill="black"/>
<path d="M33.7254 122.074C33.7254 134.325 26.4531 138.603 17.4824 138.603C8.51161 138.603 1.23938 134.325 1.23938 122.074C1.23938 109.822 17.4824 94.2364 17.4824 94.2364C17.4824 94.2364 33.7254 109.822 33.7254 122.074Z" fill="#B42F3C"/>
<path d="M17.057 126.475L23.9802 113.79L17.0831 124.867L17.1579 120.257L21.9293 111.079L17.1777 119.037L17.3122 110.745L22.4215 103.438L17.3333 109.441L17.4173 94.2364L16.9118 113.502L11.7379 105.571L16.8492 115.128L16.3653 124.388L16.3509 124.143L10.3624 115.762L16.3326 125.011L16.2721 126.169L16.2613 126.187L16.2663 126.282L15.0382 138.639H16.679L16.8759 137.641L22.8316 128.415L16.8907 136.729L17.057 126.475Z" fill="#3F3D56"/>
</g>
<defs>
<clipPath id="clip0">
<rect width="235" height="163" fill="white"/>
</clipPath>
</defs>
</svg>
