<svg width="153" height="138" viewBox="0 0 153 138" fill="none" xmlns="http://www.w3.org/2000/svg">
<path d="M141.096 81.9275C144.119 74.3156 145.352 66.1124 144.701 57.9494C144.05 49.7865 141.533 41.8816 137.342 34.8437L51.7558 46.6805L133.774 29.6069C128.784 23.1178 122.366 17.8629 115.017 14.2487C107.668 10.6346 99.5842 8.7583 91.3924 8.76503C61.8573 8.76503 37.9144 32.6805 37.9144 62.1818C37.915 64.62 38.0813 67.0554 38.4122 69.4711L141.096 81.9275Z" fill="#F2F2F2"/>
<path d="M41.489 81.414C49.2188 101.412 68.6457 115.599 91.3925 115.599C112.737 115.599 131.159 103.107 139.735 85.044L41.489 81.414Z" fill="#F2F2F2"/>
<path d="M138.414 99.9924C138.414 120.984 107.428 138 69.2069 138C48.6734 138 30.2287 133.09 17.5555 125.289C9.28631 120.201 3.47294 113.881 1.14087 106.897C0.388218 104.672 0.00289543 102.34 0 99.9924C0 79.0027 57.3515 -15.679 69.2069 61.9869C81.0622 139.653 138.414 79.0027 138.414 99.9924Z" fill="#B42F3C"/>
<path opacity="0.1" d="M103.601 113.776C103.601 121.527 79.095 127.811 48.8642 127.811C37.2207 127.811 26.4265 126.879 17.5555 125.289C9.28631 120.201 3.47294 113.881 1.14087 106.897C10.5257 102.626 28.3811 99.741 48.8642 99.741C79.095 99.741 103.601 106.025 103.601 113.776Z" fill="black"/>
<path d="M64.0903 33.8327C59.7524 26.5113 51.1702 26.1701 51.1702 26.1701C51.1702 26.1701 42.8073 25.1019 37.4425 36.2524C32.4422 46.6456 25.541 56.6805 36.3315 59.1134L38.2806 53.054L39.4876 59.5646C41.024 59.6749 42.5652 59.7012 44.1045 59.6434C55.6602 59.2707 66.6653 59.7524 66.311 55.6105C65.84 50.1043 68.2643 40.8773 64.0903 33.8327Z" fill="#2F2E41"/>
<path d="M35.7154 97.9493C35.5545 98.7484 35.4354 99.5607 35.162 100.329C34.8905 101.091 34.4715 101.796 34.2233 102.567C33.4321 105.022 34.5289 107.76 36.2806 109.655C37.7996 111.292 39.7604 112.455 41.9264 113.003C43.5067 113.4 45.1498 113.458 46.7783 113.513C51.2878 113.665 55.9133 113.802 60.1864 112.355C61.5364 111.886 62.8403 111.294 64.0818 110.587C64.4738 110.4 64.8191 110.129 65.0926 109.792C65.4185 109.328 65.4602 108.727 65.4573 108.161C65.4477 106.252 65.0602 104.352 65.1522 102.444C65.2032 101.388 65.4011 100.332 65.3037 99.2792C65.0827 96.8906 63.1838 94.7528 60.8359 94.2492C59.6237 93.9892 58.3664 94.1309 57.1323 94.2494C53.9289 94.5568 50.7119 94.7005 47.4938 94.6799C44.2058 94.6589 40.938 94.1576 37.6663 94.1052C36.6988 94.0897 36.7183 94.3877 36.4103 95.323C36.1265 96.1838 35.8945 97.0608 35.7154 97.9493Z" fill="#2F2E41"/>
<path d="M45.0467 50.7989C44.8887 51.6254 44.7179 52.482 44.2207 53.1611C43.6486 53.9425 42.716 54.389 42.1006 55.1367C41.1743 56.2623 41.1211 57.8462 41.1173 59.3032C41.1138 60.6454 41.1411 62.0771 41.8904 63.1912C42.3768 63.9143 43.1168 64.4213 43.84 64.9081C46.6503 66.7998 49.6871 68.7255 53.0754 68.7879C54.4793 68.8137 55.9846 68.4516 56.9083 67.3953C57.3072 66.8992 57.6208 66.3403 57.8363 65.7416C58.7027 63.6084 59.2279 61.3524 59.3926 59.0562C59.4698 57.9759 59.4624 56.8641 59.0964 55.8447C58.6847 54.6983 57.8525 53.7551 57.3024 52.6683C56.6522 51.3759 56.4143 49.9155 56.621 48.4839C56.6484 48.3831 56.6399 48.2759 56.5971 48.1806C56.5518 48.1296 56.4954 48.0898 56.4322 48.0642C56.3689 48.0386 56.3006 48.028 56.2326 48.0331L49.5142 47.55C48.8885 47.519 48.2654 47.4478 47.6488 47.3369C47.2866 47.2633 46.3301 46.7495 45.9847 46.8862C45.3455 47.139 45.1777 50.1136 45.0467 50.7989Z" fill="#A0616A"/>
<path opacity="0.1" d="M45.0467 51.0084C44.8887 51.8348 44.7179 52.6914 44.2207 53.3706C43.6486 54.152 42.716 54.5984 42.1006 55.3462C41.1743 56.4718 41.1211 58.0556 41.1173 59.5126C41.1138 60.8549 41.1411 62.2865 41.8904 63.4007C42.3768 64.1238 43.1168 64.6307 43.84 65.1176C46.6503 67.0093 49.6871 68.935 53.0754 68.9973C54.4793 69.0232 55.9846 68.661 56.9083 67.6048C57.3072 67.1086 57.6208 66.5498 57.8363 65.951C58.7027 63.8178 59.2279 61.5618 59.3926 59.2656C59.4698 58.1853 59.4624 57.0736 59.0964 56.0541C58.6847 54.9078 57.8525 53.9646 57.3024 52.8777C56.6522 51.5854 56.4143 50.1249 56.621 48.6933C56.6484 48.5925 56.6399 48.4853 56.5971 48.3901C56.5518 48.3391 56.4954 48.2992 56.4322 48.2736C56.3689 48.248 56.3006 48.2374 56.2326 48.2426L49.5142 47.7595C48.8885 47.7284 48.2654 47.6572 47.6488 47.5463C47.2866 47.4728 46.3301 46.959 45.9847 47.0956C45.3455 47.3485 45.1777 50.3231 45.0467 51.0084Z" fill="black"/>
<path d="M51.4717 51.6989C56.9154 51.6989 61.3285 47.2909 61.3285 41.8534C61.3285 36.4159 56.9154 32.008 51.4717 32.008C46.028 32.008 41.615 36.4159 41.615 41.8534C41.615 47.2909 46.028 51.6989 51.4717 51.6989Z" fill="#A0616A"/>
<path d="M46.4292 63.9048C46.9429 64.4411 47.4873 64.9722 48.1605 65.2866C48.8301 65.5993 49.5844 65.6772 50.3233 65.6979C52.1001 65.7479 54.0262 65.4227 55.2622 64.1467C56.8555 62.502 56.803 59.8493 58.0519 57.9305C58.1525 57.7565 58.2898 57.6065 58.4543 57.4908C58.6638 57.3769 58.9005 57.3226 59.1388 57.3337C60.7161 57.3189 62.09 58.3407 63.33 59.3145C63.8855 59.7507 64.4548 60.2027 64.8052 60.8155C65.0504 61.2934 65.2183 61.807 65.3027 62.3373C65.9181 65.3377 66.1173 68.4054 66.3151 71.4617C66.4244 73.1499 66.5337 74.8396 66.5255 76.5313C66.4988 82.1045 65.2019 87.5846 63.9122 93.0069C63.7461 93.7056 63.5187 94.4866 62.8826 94.8212C62.599 94.9486 62.2945 95.0228 61.9841 95.0403C58.2902 95.4736 54.5887 95.9074 50.8699 95.9646C49.4187 95.987 47.9681 95.9519 46.5181 95.8594C46.2685 95.8561 46.021 95.813 45.785 95.7317C45.4647 95.5781 45.1894 95.3446 44.9858 95.0538C42.9742 92.5219 42.8555 89.0215 42.8684 85.7892C42.8998 77.8867 43.1825 69.9904 43.7164 62.1005C43.7604 61.4492 43.7701 60.6583 43.3003 60.146C44.1462 61.4987 45.3227 62.7496 46.4292 63.9048Z" fill="#D0CDE1"/>
<path d="M44.3412 52.5367C44.0083 53.1387 41.5539 54.6334 41.0801 55.1322C38.4327 57.9196 33.6007 57.815 31.1795 60.8005C30.3276 61.8509 29.885 63.1707 29.5595 64.4828C29.0991 66.3385 28.8533 68.3624 29.6245 70.1122C30.3666 71.7959 31.9288 72.9599 32.9894 74.4639C34.1539 76.1153 34.6776 78.1204 35.1793 80.0771C35.5498 81.5219 35.9234 83.0025 35.7791 84.4869C35.6151 86.1747 34.7974 87.7201 34.3146 89.3458C33.8318 90.9716 33.7485 92.9078 34.8648 94.1854C35.6848 95.1241 36.9711 95.4962 38.2006 95.7055C39.77 95.9727 41.3649 96.0487 42.9553 96.1189C44.3608 96.181 45.91 96.193 46.9905 95.293C47.843 94.5829 48.2135 93.4305 48.2615 92.3228C48.3094 91.215 48.0787 90.1171 47.9342 89.0177C47.7843 87.878 47.7268 86.7285 47.6786 85.58C47.4624 80.4272 47.4329 75.271 47.5901 70.1115C47.6228 69.0379 47.6625 67.9511 47.4334 66.9016C47.1319 65.5215 46.3852 64.288 45.762 63.0199C44.5252 60.5028 43.9403 58.0576 44.1315 55.26C44.3202 52.4985 45.5258 50.3948 44.3412 52.5367Z" fill="#474747"/>
<path d="M58.1826 52.7462C58.6897 53.2668 60.4127 53.4384 61.0577 53.7736C61.6503 54.0816 62.3059 54.2425 62.9477 54.4273C65.3006 55.1052 67.5386 56.1312 69.5874 57.4711C70.013 57.7199 70.3894 58.0446 70.6977 58.4291C71.0586 58.9305 71.1896 59.5562 71.3119 60.1615C71.6277 61.7243 71.9452 63.3058 71.8742 64.8985C71.7988 66.5891 71.289 68.2265 70.7832 69.8416L68.8934 75.8765C67.4828 80.3811 66.0632 84.9301 65.6663 89.6333C65.4467 92.2399 65.5443 94.8635 65.957 97.4466C65.9986 97.7063 66.0334 98.004 65.8617 98.2034C65.7372 98.3263 65.5734 98.4016 65.3989 98.4161C64.4868 98.5585 63.6041 98.094 62.7777 97.6829C60.2518 96.4274 57.5562 95.5464 54.7759 95.0677C55.8623 93.4994 56.7006 91.7733 57.2612 89.9502C57.5796 88.7925 57.8303 87.6174 58.0121 86.4307L58.8913 81.3519C59.2136 79.4895 59.5365 77.6224 59.6454 75.7355C59.7118 75.0282 59.6706 74.3149 59.523 73.6199C59.3547 72.9494 59.0199 72.3349 58.7201 71.7119C57.2712 68.7016 56.5914 65.2663 57.1615 61.9751C57.411 60.5347 57.8958 59.0925 57.6936 57.6448C57.4993 56.2529 57.7013 55.1711 57.3437 53.7936C55.8757 48.1377 57.2286 51.7668 58.1826 52.7462Z" fill="#474747"/>
<path d="M31.1544 65.56C30.4939 66.9291 29.3896 68.0954 29.0138 69.5681C28.8675 70.2563 28.8049 70.9597 28.8271 71.6629C28.8182 72.7228 28.8124 73.8042 29.1383 74.8129C29.348 75.4623 29.6893 76.0613 29.9352 76.6979C30.2779 77.5874 30.4306 78.5386 30.3834 79.4906C30.3171 80.8093 29.8685 82.0895 29.8335 83.4095C29.7784 85.4852 30.7396 87.4366 31.6775 89.2898C31.9135 88.7059 32.2745 88.1805 32.7351 87.7504C33.1956 87.3204 33.7447 86.9961 34.3439 86.8001C34.9431 86.6042 35.5779 86.5414 36.2039 86.6161C36.8299 86.6908 37.432 86.9012 37.9681 87.2327C38.2155 87.0044 38.2419 86.6296 38.2516 86.2934C38.321 83.8852 38.3878 81.4769 38.4522 79.0685C38.5538 75.3438 38.6505 71.5694 37.7927 67.9432C37.4054 66.3059 36.8028 64.675 35.698 63.4051C35.1163 62.7365 33.1415 60.9752 32.1866 61.7243C31.7572 62.0611 31.8576 62.9781 31.7895 63.4424C31.6868 64.1764 31.4727 64.8905 31.1544 65.56Z" fill="#474747"/>
<path d="M72.0673 61.6146C72.3797 62.5863 72.3984 63.6246 72.4046 64.6452C72.4173 66.727 72.3896 68.8086 72.3217 70.8898C72.2869 71.9553 72.239 73.0355 71.9156 74.0514C71.7023 74.7214 71.3731 75.3497 71.1528 76.0174C70.4926 78.0186 70.8533 80.189 70.91 82.2952C70.9499 82.9769 70.8917 83.6608 70.737 84.326C70.3886 85.6317 69.4523 86.6867 68.7988 87.8699C68.1781 88.9936 67.8036 90.2531 67.0624 91.3013C66.3211 92.3496 65.0379 93.1802 63.7941 92.8584C62.8517 92.6146 62.1821 91.7814 61.7189 90.9261C60.7082 89.0456 60.3625 86.8794 60.7379 84.7783C61.2029 82.2219 62.7062 79.9541 63.2484 77.4129C63.9929 73.9233 62.8613 70.3224 62.895 66.7546C62.8797 66.1953 62.9556 65.6373 63.1199 65.1024C63.4043 64.2875 64.015 63.6367 64.5793 62.9831C65.2844 62.1663 65.9393 61.3076 66.5407 60.4119C66.9446 59.8101 67.4932 58.2625 68.2094 58.1338C69.8083 57.8465 71.6706 60.3807 72.0673 61.6146Z" fill="#474747"/>
<path d="M22.8579 96.3974C21.9738 96.1754 21.0627 96.0787 20.1516 96.11C19.1943 96.1629 18.2592 96.4187 17.4085 96.8605C16.5578 97.3022 15.8111 97.9198 15.2178 98.6722C14.6246 99.4246 14.1986 100.294 13.968 101.224C13.7374 102.154 13.7076 103.122 13.8806 104.064C14.0688 105.089 14.4917 106.056 14.953 106.991C15.6707 108.446 16.5315 109.897 17.8602 110.829C18.6375 111.375 19.537 111.715 20.4259 112.049L27.4239 114.683C28.4534 115.07 29.4831 115.457 30.5227 115.817C35.746 117.62 41.1916 118.701 46.7082 119.031C48.3885 119.13 50.0943 119.158 51.7336 118.776C52.1226 118.686 52.5375 118.55 52.7628 118.221C52.8962 117.989 52.9748 117.729 52.9927 117.462L53.4233 114.451C53.484 114.027 53.5423 113.581 53.3867 113.182C53.1895 112.676 52.695 112.357 52.2235 112.087C47.6229 109.447 42.251 107.991 38.3785 104.369C37.4669 103.516 36.704 102.164 35.5964 101.585C34.3403 100.928 32.8611 100.553 31.5628 99.9477C28.7246 98.6244 25.934 97.1037 22.8579 96.3974Z" fill="#2F2E41"/>
<path opacity="0.1" d="M29.8443 100.457C32.3178 101.231 42.7609 106.595 44.5509 108.467C44.311 108.554 36.1704 103.997 35.9261 103.923C33.7057 103.258 31.473 102.588 29.3644 101.614C28.9402 101.418 26.6086 100.497 26.7142 99.9621C26.8333 99.3588 29.4052 100.319 29.8443 100.457Z" fill="black"/>
<path d="M60.7028 120.592C60.8432 120.603 60.9825 120.562 61.0949 120.477C61.1442 120.414 61.1805 120.341 61.2015 120.264C61.2226 120.187 61.228 120.106 61.2175 120.026C61.2137 118.659 61.2098 117.292 61.206 115.924C60.025 115.362 58.7039 115.182 57.4073 115.009L51.3572 114.201C51.4962 114.22 50.4112 116.804 50.5776 117.149C50.8708 117.757 53.1115 118.296 53.7439 118.583C55.9423 119.581 58.2268 120.678 60.7028 120.592Z" fill="#A0616A"/>
<path d="M41.7208 115.91C40.5785 116.092 39.3035 116.252 38.5638 117.14C37.6256 118.267 38.025 119.946 38.4725 121.341C38.539 121.624 38.6725 121.886 38.8617 122.106C39.1671 122.407 39.6351 122.451 40.0633 122.478C41.105 122.544 42.2137 122.595 43.1239 122.085C43.555 121.843 43.9112 121.49 44.3128 121.202C44.9841 120.756 45.7219 120.419 46.4988 120.204C47.9271 119.755 49.3973 119.452 50.8868 119.301C51.4706 119.241 52.0661 119.203 52.6153 118.996C53.1646 118.79 53.6731 118.38 53.8327 117.816C54.0435 117.07 53.6097 116.31 53.1937 115.656C52.6755 114.842 52.1264 113.984 51.3537 113.385C50.2264 112.51 49.6688 113.182 48.5332 113.741C46.3839 114.801 44.0875 115.532 41.7208 115.91Z" fill="#A0616A"/>
<path d="M38.7356 116.938L31.4824 114.796C30.6003 114.536 29.7031 114.273 28.7832 114.274C27.8634 114.274 26.901 114.576 26.3044 115.275C25.742 115.934 25.581 116.836 25.4408 117.69L25.1408 119.519C24.9884 120.448 24.8357 121.396 24.9729 122.327C25.1101 123.259 25.5862 124.19 26.4138 124.641C27.4175 125.188 28.6477 124.92 29.7679 124.692C32.0306 124.23 34.3321 123.983 36.6414 123.955C37.5096 123.945 38.4202 123.956 39.1873 123.55C40.0992 123.067 40.6448 122.046 40.7386 121.02C40.8813 119.458 40.3601 117.417 38.7356 116.938Z" fill="#2F2E41"/>
<path d="M63.554 115.072C64.4943 114.907 65.3241 114.373 66.2251 114.058C67.4933 113.615 68.8676 113.615 70.2112 113.619C70.7045 113.621 71.2297 113.632 71.6403 113.905C72.2322 114.299 72.3839 115.087 72.4845 115.79C72.6869 117.204 72.8893 118.618 73.0917 120.031C73.2059 120.829 73.3194 121.648 73.1413 122.435C72.9632 123.221 72.4267 123.978 71.6458 124.181C70.6974 124.428 69.7676 123.822 68.872 123.425C66.6337 122.431 64.0318 122.685 61.698 121.942C61.2649 121.805 60.801 121.594 60.6244 121.176C60.5445 120.94 60.516 120.69 60.5408 120.443C60.5808 119.079 60.2929 117.217 60.7039 115.914C61.0734 114.742 62.5044 115.072 63.554 115.072Z" fill="#2F2E41"/>
<path d="M78.9034 94.69C80.3527 94.3269 81.8552 94.2244 83.3404 94.3872C84.5266 94.5177 85.7487 94.8474 86.6148 95.6674C87.6689 96.6656 88.0076 98.2093 88.0358 99.6598C88.0822 102.549 87.1228 105.365 85.3217 107.626C84.8819 108.198 84.3588 108.7 83.77 109.118C83.1347 109.515 82.4577 109.84 81.7511 110.089L66.0793 116.264C61.9564 117.888 57.819 119.517 53.5186 120.588C53.401 120.645 53.2733 120.677 53.1429 120.684C53.0125 120.691 52.8821 120.671 52.7594 120.627C52.6366 120.582 52.524 120.514 52.4282 120.425C52.3324 120.337 52.2552 120.23 52.2013 120.111C50.8283 118.152 49.6763 116.047 48.7665 113.835C48.7235 113.782 48.6937 113.72 48.6798 113.654C48.6658 113.587 48.6681 113.518 48.6865 113.453C48.7048 113.388 48.7387 113.328 48.7852 113.278C48.8317 113.228 48.8895 113.191 48.9537 113.168L60.0384 106.807C60.8324 106.351 61.6353 105.889 62.2946 105.254C62.7736 104.79 63.1659 104.245 63.4529 103.643C63.6826 103.164 63.7041 102.032 63.9976 101.678C64.2849 101.331 65.2679 101.304 65.7219 101.167C66.3622 100.971 66.9892 100.734 67.5991 100.458C70.0787 99.3503 72.2867 97.7404 74.6637 96.443C75.9969 95.6816 77.4216 95.0926 78.9034 94.69Z" fill="#2F2E41"/>
<path opacity="0.1" d="M72.6193 99.4408C70.7149 100.87 68.2491 102.183 66.3616 103.649C65.7175 104.15 54.979 110.18 54.8271 110.981C56.588 111.277 67.8051 103.439 69.41 102.657C71.0149 101.875 72.4375 100.772 73.8473 99.677C74.2065 99.398 75.7291 98.5592 74.6978 98.2475C74.1168 98.0719 73.0483 99.1552 72.6193 99.4408Z" fill="black"/>
<path d="M59.5156 52.8846H42.7985C42.1193 52.8846 41.468 53.1541 40.9877 53.6338C40.5075 54.1135 40.2377 54.7641 40.2377 55.4425V56.3792H40.056V58.4739H40.2377V59.9403H40.056V61.1971H40.2377V76.6536C40.2377 77.332 40.5075 77.9826 40.9877 78.4623C41.468 78.942 42.1193 79.2115 42.7985 79.2115H59.5156C60.1947 79.2115 60.8461 78.942 61.3263 78.4623C61.8066 77.9826 62.0764 77.332 62.0764 76.6536V55.4425C62.0764 54.7641 61.8066 54.1135 61.3263 53.6338C60.8461 53.1541 60.1947 52.8846 59.5156 52.8846Z" fill="#D4D4D6"/>
<path d="M62.1725 33.1269L53.6937 28.6906L41.9848 30.5055L39.5624 41.1927L45.5928 40.961L47.2774 37.0346V40.8963L50.0599 40.7894L51.675 34.5385L52.6843 41.1927L62.5763 40.9911L62.1725 33.1269Z" fill="#2F2E41"/>
<path d="M44.4052 67.22C44.2253 67.22 44.0795 67.1642 43.9678 67.0525C43.8623 66.9408 43.8096 66.795 43.8096 66.6151V61.1708C43.8096 60.9909 43.8592 60.8513 43.9585 60.752C44.0639 60.6528 44.2066 60.6031 44.3866 60.6031H47.6531C48.0316 60.6031 48.2208 60.7644 48.2208 61.0871C48.2208 61.4035 48.0316 61.5617 47.6531 61.5617H44.9915V63.3485H47.467C47.8455 63.3485 48.0347 63.5098 48.0347 63.8325C48.0347 64.1489 47.8455 64.3071 47.467 64.3071H44.9915V66.6151C44.9915 66.795 44.9388 66.9408 44.8333 67.0525C44.7278 67.1642 44.5851 67.22 44.4052 67.22Z" fill="#B42F3C"/>
<path d="M50.8567 67.2665C50.6768 67.2665 50.531 67.2107 50.4193 67.099C50.3138 66.9873 50.2611 66.8415 50.2611 66.6616V61.1987C50.2611 61.0188 50.3138 60.8761 50.4193 60.7706C50.531 60.659 50.6768 60.6031 50.8567 60.6031C51.0428 60.6031 51.1886 60.659 51.2941 60.7706C51.4058 60.8761 51.4616 61.0188 51.4616 61.1987V66.6616C51.4616 66.8415 51.4058 66.9873 51.2941 67.099C51.1886 67.2107 51.0428 67.2665 50.8567 67.2665Z" fill="#474747"/>
<path d="M59.0664 66.3545C59.1657 66.4724 59.2153 66.5903 59.2153 66.7081C59.2153 66.857 59.1564 66.9873 59.0385 67.099C58.9268 67.2107 58.7965 67.2665 58.6476 67.2665C58.4925 67.2665 58.356 67.1983 58.2381 67.0618L56.3489 64.7166L54.4504 67.0618C54.3387 67.1921 54.2053 67.2572 54.0502 67.2572C53.9013 67.2572 53.7679 67.2045 53.6501 67.099C53.5384 66.9873 53.4825 66.857 53.4825 66.7081C53.4825 66.5841 53.5291 66.4662 53.6221 66.3545L55.6509 63.879L53.7059 61.5058C53.6128 61.4066 53.5663 61.2887 53.5663 61.1522C53.5663 61.0033 53.6221 60.8761 53.7338 60.7706C53.8455 60.659 53.9758 60.6031 54.1247 60.6031C54.2798 60.6031 54.4163 60.6714 54.5342 60.8079L56.3489 63.0507L58.1637 60.8079C58.2754 60.6714 58.4087 60.6031 58.5639 60.6031C58.7128 60.6031 58.843 60.659 58.9547 60.7706C59.0726 60.8761 59.1315 61.0033 59.1315 61.1522C59.1315 61.2887 59.085 61.4066 58.992 61.5058L57.0469 63.879L59.0664 66.3545Z" fill="#B42F3C"/>
<path d="M50.881 75.6223C50.6949 75.6223 50.546 75.5696 50.4343 75.4641C50.3288 75.3524 50.2761 75.2066 50.2761 75.0267V70.0012H48.5823C48.2101 70.0012 48.0239 69.8368 48.0239 69.508C48.0239 69.1792 48.2101 69.0147 48.5823 69.0147H53.1704C53.5426 69.0147 53.7288 69.1792 53.7288 69.508C53.7288 69.8368 53.5426 70.0012 53.1704 70.0012H51.4766V75.0267C51.4766 75.2066 51.4208 75.3524 51.3091 75.4641C51.2036 75.5696 51.0609 75.6223 50.881 75.6223Z" fill="#B42F3C"/>
<path d="M33.3728 93.3058C33.7917 93.9305 34.2825 94.5415 34.9554 94.8785C35.7962 95.2996 36.8341 95.2245 37.6761 94.8057C38.5108 94.3586 39.1941 93.6744 39.6395 92.8394C40.561 91.2141 40.7518 89.2692 40.6368 87.4049C40.5218 85.5405 40.1233 83.7048 39.9469 81.8452C39.8187 80.4935 39.8083 79.1337 39.7979 77.7759C39.7958 77.4906 39.8004 77.1831 39.9691 76.9529C40.1732 76.6745 40.5469 76.5978 40.8781 76.4995C42.7378 75.9476 43.9723 74.2064 44.8573 72.4819C45.4483 71.3304 45.9621 70.0717 45.8482 68.7827C45.7342 67.4937 44.8066 66.1952 43.5179 66.0637C42.4554 65.9553 41.4744 66.6294 40.7079 67.3724C38.7745 69.2583 37.532 71.7387 37.1799 74.415C37.0117 75.7256 37.0599 77.0719 36.703 78.3442C35.941 81.0609 33.5568 82.7265 32.3687 85.171C31.0595 87.8646 31.7821 90.9225 33.3728 93.3058Z" fill="#A0616A"/>
<path d="M68.4571 82.927C68.186 83.5571 67.7913 84.1265 67.2962 84.6017C66.8011 85.0768 66.2158 85.4481 65.5747 85.6935C64.7778 86.0132 63.8989 86.067 63.0689 85.8468C62.6573 85.7328 62.2776 85.5255 61.9593 85.2411C61.6409 84.9566 61.3925 84.6027 61.2333 84.2068C61.1063 83.8081 61.0367 83.3933 61.0265 82.975C60.9073 81.143 60.9534 79.2551 61.6196 77.5441C61.8765 76.8842 62.223 76.2583 62.4258 75.5798C62.6571 74.8059 62.694 73.9894 62.7294 73.1825L62.9484 68.1839C62.9846 67.821 62.9595 67.4546 62.874 67.1C62.6556 66.3767 61.9788 65.9067 61.3579 65.4754C59.8583 64.4337 58.3763 63.2182 57.6497 61.5443C57.4273 61.0321 57.2806 60.4627 57.3934 59.9159C57.5983 58.9233 58.6012 58.2808 59.5924 58.0643C60.241 57.9226 60.9115 57.9136 61.5636 58.0377C62.2158 58.1618 62.836 58.4165 63.387 58.7864C63.938 59.1563 64.4083 59.6338 64.7696 60.1901C65.1309 60.7464 65.3757 61.37 65.4892 62.0234C65.5873 62.5875 65.586 63.1637 65.6434 63.7334C65.7651 64.9418 66.1492 66.1066 66.3895 67.2972C66.9813 70.2298 66.6746 73.2612 67.2598 76.1933C67.7492 78.6449 69.5943 80.2446 68.4571 82.927Z" fill="#A0616A"/>
<path d="M139.908 64.2778C137.685 64.2778 135.513 64.936 133.666 66.1691C131.818 67.4022 130.378 69.1549 129.528 71.2055C128.677 73.2562 128.455 75.5126 128.888 77.6895C129.322 79.8665 130.392 81.8661 131.963 83.4356C133.534 85.005 135.536 86.0739 137.716 86.5069C139.895 86.9399 142.154 86.7177 144.207 85.8683C146.26 85.0189 148.015 83.5805 149.249 81.735C150.484 79.8895 151.143 77.7197 151.143 75.5001C151.143 74.0264 150.852 72.5671 150.288 71.2055C149.723 69.844 148.895 68.6068 147.852 67.5647C146.809 66.5226 145.57 65.696 144.207 65.132C142.844 64.568 141.383 64.2778 139.908 64.2778ZM145.46 72.6539C145.466 72.7751 145.469 72.8992 145.469 73.0233C145.469 76.8095 142.587 81.1749 137.311 81.1749C135.754 81.1784 134.231 80.7285 132.926 79.8804C133.153 79.9076 133.381 79.9214 133.609 79.9217C134.9 79.924 136.154 79.492 137.169 78.6952C136.571 78.6839 135.991 78.4861 135.511 78.1295C135.031 77.7728 134.674 77.2751 134.491 76.706C134.668 76.7417 134.849 76.7595 135.03 76.7592C135.285 76.7592 135.538 76.7254 135.784 76.6587C135.135 76.5277 134.552 76.1765 134.133 75.6647C133.714 75.153 133.485 74.5121 133.485 73.8509V73.8154C133.883 74.039 134.33 74.1618 134.787 74.1731C134.179 73.7684 133.749 73.1476 133.583 72.437C133.418 71.7264 133.53 70.9795 133.896 70.3485C134.615 71.2342 135.512 71.9586 136.53 72.4745C137.548 72.9904 138.663 73.2862 139.803 73.3425C139.752 73.1285 139.728 72.9092 139.729 72.6893C139.728 72.115 139.9 71.5538 140.223 71.0787C140.546 70.6037 141.005 70.2367 141.54 70.0256C142.075 69.8145 142.661 69.7691 143.221 69.8952C143.782 70.0213 144.292 70.3131 144.685 70.7327C145.327 70.6074 145.943 70.3724 146.505 70.0382C146.291 70.7015 145.843 71.2646 145.244 71.6224C145.812 71.5536 146.366 71.4012 146.889 71.1702C146.505 71.7456 146.021 72.248 145.46 72.6539Z" fill="#474747"/>
<path d="M136.167 21.3369C133.824 21.3369 131.534 22.0307 129.586 23.3307C127.639 24.6307 126.121 26.4784 125.224 28.6402C124.328 30.802 124.093 33.1807 124.55 35.4757C125.007 37.7706 126.135 39.8787 127.792 41.5332C129.448 43.1878 131.559 44.3146 133.856 44.7711C136.154 45.2276 138.535 44.9933 140.699 44.0978C142.864 43.2024 144.714 41.686 146.015 39.7404C147.316 37.7949 148.011 35.5075 148.011 33.1676C148.011 31.614 147.705 30.0756 147.11 28.6402C146.514 27.2048 145.642 25.9006 144.542 24.802C143.442 23.7034 142.136 22.832 140.699 22.2374C139.262 21.6429 137.722 21.3369 136.167 21.3369ZM142.284 35.5556C142.282 36.4803 141.913 37.3663 141.258 38.0202C140.603 38.6741 139.716 39.0426 138.791 39.0453H133.799C132.874 39.0426 131.987 38.6741 131.332 38.0202C130.677 37.3663 130.308 36.4803 130.306 35.5556V30.5702C130.308 29.6455 130.677 28.7594 131.332 28.1056C131.987 27.4517 132.874 27.0831 133.799 27.0804H138.791C139.716 27.0831 140.603 27.4517 141.258 28.1056C141.913 28.7594 142.282 29.6455 142.284 30.5702L142.284 35.5556Z" fill="#474747"/>
<path d="M88.1221 0C85.8171 0 83.5639 0.682723 81.6474 1.96183C79.7308 3.24094 78.2371 5.05899 77.355 7.18608C76.4729 9.31316 76.2422 11.6537 76.6918 13.9118C77.1415 16.1699 78.2515 18.2441 79.8813 19.8721C81.5112 21.5001 83.5878 22.6088 85.8485 23.058C88.1091 23.5071 90.4524 23.2766 92.5819 22.3955C94.7115 21.5145 96.5316 20.0225 97.8122 18.1081C99.0927 16.1938 99.7762 13.9432 99.7762 11.6408C99.7762 10.1121 99.4748 8.59841 98.8891 7.18608C98.3034 5.77375 97.445 4.49047 96.3628 3.40952C95.2806 2.32857 93.9959 1.47111 92.5819 0.886105C91.168 0.301099 89.6525 0 88.1221 0ZM91.7968 7.04375H90.3049C89.2864 7.04375 89.092 7.52498 89.092 8.23417V9.74121H91.5179L91.2009 12.1052H89.092V18.5217H86.3872V12.1052H84.4474V9.74121H86.3872V7.99356C86.3872 5.89976 87.8411 4.75999 89.7133 4.75999C90.6092 4.75999 91.5728 4.82753 91.7968 4.85707L91.7968 7.04375Z" fill="#474747"/>
<circle cx="87.9841" cy="12.0476" r="12.0476" fill="#474747"/>
<circle cx="136.175" cy="33.2222" r="12.0476" fill="#474747"/>
<circle cx="140.556" cy="74.8413" r="12.0476" fill="#474747"/>
<path d="M145.527 68.9239H143.833C143.715 68.9239 143.619 69.0198 143.619 69.138C143.619 69.2562 143.715 69.352 143.833 69.352H145.527C145.645 69.352 145.741 69.2562 145.741 69.138C145.741 69.0198 145.645 68.9239 145.527 68.9239Z" fill="white"/>
<path d="M145.527 69.9625H143.833C143.715 69.9625 143.619 70.0584 143.619 70.1766C143.619 70.2948 143.715 70.3906 143.833 70.3906H145.527C145.645 70.3906 145.741 70.2948 145.741 70.1766C145.741 70.0584 145.645 69.9625 145.527 69.9625Z" fill="white"/>
<path d="M146.119 67.9048H135.231C134.745 67.9048 134.349 68.3004 134.349 68.7868V81.6259C134.349 82.1122 134.745 82.5079 135.231 82.5079H146.119C146.606 82.5079 147.001 82.1122 147.001 81.6259V68.7868C147.001 68.3004 146.606 67.9048 146.119 67.9048V67.9048ZM146.573 81.6259C146.573 81.8762 146.37 82.0798 146.119 82.0798H135.231C134.981 82.0798 134.777 81.8762 134.777 81.6259V71.4099H135.571C135.689 71.4099 135.785 71.314 135.785 71.1958C135.785 71.0776 135.689 70.9817 135.571 70.9817H134.777V68.7868C134.777 68.5365 134.981 68.3329 135.231 68.3329H142.516V70.9818H136.572C136.453 70.9818 136.358 71.0776 136.358 71.1958C136.358 71.3141 136.453 71.4099 136.572 71.4099H146.573V81.6259ZM146.573 70.9818H142.944V68.3329H146.119C146.37 68.3329 146.573 68.5365 146.573 68.7868V70.9818Z" fill="white"/>
<path d="M136.19 76.7396C136.19 77.7246 136.503 78.6594 137.096 79.4429C137.167 79.5376 137.301 79.5557 137.395 79.4846C137.49 79.4133 137.508 79.279 137.437 79.1847C136.901 78.4761 136.618 77.6306 136.618 76.7396C136.618 74.5023 138.438 72.6821 140.675 72.6821C141.566 72.6821 142.412 72.9654 143.12 73.5013C143.215 73.5726 143.349 73.554 143.42 73.4597C143.492 73.3654 143.473 73.2311 143.379 73.1598C142.595 72.5672 141.66 72.254 140.675 72.254C138.202 72.254 136.19 74.2662 136.19 76.7396Z" fill="white"/>
<path d="M144.733 76.7396C144.733 78.9769 142.913 80.7971 140.675 80.7971C139.735 80.7971 138.819 80.4683 138.095 79.8712C138.004 79.796 137.869 79.8089 137.794 79.9001C137.719 79.9913 137.732 80.1263 137.823 80.2015C138.623 80.8616 139.636 81.2252 140.675 81.2252C143.149 81.2252 145.161 79.2129 145.161 76.7396C145.161 75.7004 144.797 74.6874 144.137 73.8871C144.062 73.7958 143.927 73.7829 143.836 73.8581C143.745 73.9333 143.732 74.0683 143.807 74.1595C144.404 74.8832 144.733 75.7996 144.733 76.7396Z" fill="white"/>
<path d="M140.675 80.1833C142.574 80.1833 144.119 78.6384 144.119 76.7395C144.119 74.8406 142.574 73.2957 140.675 73.2957C138.776 73.2957 137.231 74.8406 137.231 76.7395C137.231 78.6384 138.776 80.1833 140.675 80.1833ZM137.66 76.7395C137.66 75.0766 139.012 73.7238 140.675 73.7238C142.338 73.7238 143.691 75.0766 143.691 76.7395C143.691 77.014 143.654 77.2799 143.585 77.5328C143.442 77.5744 143.339 77.6398 143.252 77.6948C143.126 77.7748 143.035 77.8326 142.828 77.8326C142.388 77.8326 142.352 77.4901 141.752 77.4901C141.15 77.4901 141.118 77.8326 140.675 77.8326C140.235 77.8326 140.199 77.4901 139.599 77.4901C138.997 77.4901 138.965 77.8326 138.522 77.8326C138.315 77.8326 138.224 77.7748 138.098 77.6948C138.012 77.6398 137.909 77.5744 137.766 77.5328C137.697 77.2799 137.66 77.014 137.66 76.7395ZM138.522 78.2607C139.124 78.2607 139.155 77.9182 139.599 77.9182C140.039 77.9182 140.075 78.2607 140.675 78.2607C141.277 78.2607 141.309 77.9182 141.752 77.9182C142.192 77.9182 142.228 78.2607 142.828 78.2607C143.065 78.2607 143.224 78.203 143.347 78.1367C142.842 79.098 141.834 79.7552 140.675 79.7552C139.516 79.7552 138.508 79.098 138.003 78.1368C138.127 78.203 138.286 78.2607 138.522 78.2607Z" fill="white"/>
<path d="M139.172 69.8933V69.4214C139.172 69.1345 138.939 68.901 138.652 68.901H135.877C135.59 68.901 135.357 69.1345 135.357 69.4214V69.8933C135.357 70.1802 135.59 70.4137 135.877 70.4137H138.652C138.939 70.4137 139.172 70.1802 139.172 69.8933ZM135.785 69.8933V69.4214C135.785 69.3705 135.826 69.3291 135.877 69.3291H138.652C138.703 69.3291 138.744 69.3705 138.744 69.4214V69.8933C138.744 69.9442 138.703 69.9856 138.652 69.9856H135.877C135.826 69.9856 135.785 69.9442 135.785 69.8933Z" fill="white"/>
<path d="M140.675 70.466C141.121 70.466 141.484 70.1033 141.484 69.6574C141.484 69.2115 141.121 68.8487 140.675 68.8487C140.229 68.8487 139.867 69.2115 139.867 69.6573C139.867 70.1032 140.229 70.466 140.675 70.466ZM140.675 69.2768C140.885 69.2768 141.056 69.4475 141.056 69.6574C141.056 69.8672 140.885 70.0379 140.675 70.0379C140.465 70.0379 140.295 69.8672 140.295 69.6574C140.295 69.4475 140.466 69.2768 140.675 69.2768Z" fill="white"/>
<path d="M139.758 40.8889H133.321C132.637 40.8889 132.078 40.3294 132.078 39.6455V26.0688C132.078 25.3849 132.637 24.8254 133.321 24.8254H139.758C140.442 24.8254 141.002 25.3849 141.002 26.0688V39.6455C141.001 40.3294 140.442 40.8889 139.758 40.8889Z" fill="white"/>
<path d="M140.413 26.0929H132.666V38.7605H140.413V26.0929Z" fill="#474747"/>
<path d="M137.701 25.5916H136.116C136.045 25.5916 135.987 25.5334 135.987 25.4621C135.987 25.3908 136.045 25.3326 136.116 25.3326H137.701C137.773 25.3326 137.831 25.3908 137.831 25.4621C137.831 25.5334 137.772 25.5916 137.701 25.5916Z" fill="#474747"/>
<path d="M135.378 25.5916C135.449 25.5916 135.507 25.5337 135.507 25.4621C135.507 25.3906 135.449 25.3326 135.378 25.3326C135.306 25.3326 135.248 25.3906 135.248 25.4621C135.248 25.5337 135.306 25.5916 135.378 25.5916Z" fill="#474747"/>
<path d="M136.54 40.436C136.202 40.436 135.927 40.1612 135.927 39.8236C135.927 39.486 136.202 39.2112 136.54 39.2112C136.877 39.2112 137.152 39.486 137.152 39.8236C137.152 40.1612 136.877 40.436 136.54 40.436ZM136.54 39.3364C136.271 39.3364 136.053 39.5548 136.053 39.8233C136.053 40.0919 136.271 40.3103 136.54 40.3103C136.808 40.3103 137.026 40.0919 137.026 39.8233C137.026 39.5548 136.808 39.3364 136.54 39.3364Z" fill="#474747"/>
<path d="M94.394 5.11111H81.5972C81.2579 5.11152 80.9327 5.24647 80.6928 5.48637C80.4529 5.72627 80.3179 6.05153 80.3175 6.39079V16.1164C80.3179 16.4556 80.4529 16.7809 80.6928 17.0208C80.9327 17.2607 81.2579 17.3956 81.5972 17.396H85.8347L85.2589 18.9317H84.6684C84.4648 18.9317 84.2695 19.0125 84.1255 19.1565C83.9815 19.3005 83.9006 19.4958 83.9006 19.6995V20.2113C83.9006 20.2792 83.9276 20.3443 83.9756 20.3923C84.0236 20.4403 84.0887 20.4673 84.1565 20.4673H91.8346C91.9025 20.4673 91.9676 20.4403 92.0156 20.3923C92.0636 20.3443 92.0906 20.2792 92.0906 20.2113V19.6995C92.0906 19.4958 92.0097 19.3005 91.8657 19.1565C91.7217 19.0125 91.5264 18.9317 91.3227 18.9317H90.7323L90.1564 17.396H94.394C94.7332 17.3956 95.0585 17.2607 95.2984 17.0208C95.5383 16.7809 95.6732 16.4556 95.6737 16.1164V6.39079C95.6732 6.05153 95.5383 5.72627 95.2984 5.48637C95.0585 5.24647 94.7332 5.11152 94.394 5.11111ZM81.5972 5.62299H94.394C94.5976 5.62299 94.7929 5.70388 94.9369 5.84787C95.0809 5.99186 95.1618 6.18716 95.1618 6.39079V14.3248H80.8294V6.39079C80.8294 6.18716 80.9103 5.99186 81.0543 5.84787C81.1983 5.70388 81.3935 5.62299 81.5972 5.62299ZM91.5787 19.6995V19.9554H84.4125V19.6995C84.4125 19.6316 84.4394 19.5665 84.4874 19.5185C84.5354 19.4705 84.6005 19.4435 84.6684 19.4435H91.3227C91.3906 19.4435 91.4557 19.4705 91.5037 19.5185C91.5517 19.5665 91.5787 19.6316 91.5787 19.6995ZM90.1856 18.9317H85.8055L86.3814 17.396H89.6098L90.1856 18.9317ZM94.394 16.8842H81.5972C81.3935 16.8842 81.1983 16.8033 81.0543 16.6593C80.9103 16.5153 80.8294 16.32 80.8294 16.1164V14.8367H95.1618V16.1164C95.1618 16.32 95.0809 16.5153 94.9369 16.6593C94.7929 16.8033 94.5976 16.8842 94.394 16.8842Z" fill="white"/>
<path d="M87.9956 15.0927C87.8437 15.0927 87.6953 15.1377 87.569 15.2221C87.4428 15.3065 87.3443 15.4264 87.2862 15.5667C87.2281 15.707 87.2129 15.8614 87.2425 16.0103C87.2722 16.1593 87.3453 16.2961 87.4527 16.4034C87.56 16.5108 87.6969 16.5839 87.8458 16.6136C87.9947 16.6432 88.1491 16.628 88.2894 16.5699C88.4297 16.5118 88.5496 16.4134 88.634 16.2871C88.7184 16.1608 88.7634 16.0124 88.7634 15.8605C88.7634 15.6569 88.6825 15.4616 88.5385 15.3176C88.3945 15.1736 88.1992 15.0927 87.9956 15.0927ZM87.9956 16.1165C87.945 16.1165 87.8955 16.1014 87.8534 16.0733C87.8113 16.0452 87.7785 16.0052 87.7591 15.9585C87.7398 15.9117 87.7347 15.8602 87.7446 15.8106C87.7544 15.7609 87.7788 15.7153 87.8146 15.6795C87.8504 15.6438 87.896 15.6194 87.9457 15.6095C87.9953 15.5996 88.0468 15.6047 88.0935 15.6241C88.1403 15.6434 88.1803 15.6762 88.2084 15.7183C88.2365 15.7604 88.2515 15.8099 88.2515 15.8605C88.2515 15.9284 88.2246 15.9935 88.1766 16.0415C88.1286 16.0895 88.0635 16.1165 87.9956 16.1165Z" fill="white"/>
</svg>
