<svg width="56" height="50" viewBox="0 0 56 50" fill="none" xmlns="http://www.w3.org/2000/svg">
<path d="M52.7778 8.33333H40.7407V4.62963C40.7376 2.07384 38.6669 0.00316479 36.1111 0H19.4444C16.8887 0.00316479 14.818 2.07384 14.8148 4.62963V8.33333H2.77778C1.24376 8.33333 0 9.57709 0 11.1111V31.722C0.00587745 32.8966 0.745985 33.9414 1.85185 34.3361V47.2222C1.85185 48.7562 3.09561 50 4.62963 50H50.9259C52.4599 50 53.7037 48.7562 53.7037 47.2222V34.337C54.8096 33.9419 55.5501 32.8966 55.5556 31.722V11.1111C55.5556 9.57709 54.3118 8.33333 52.7778 8.33333ZM16.6667 4.62963C16.6667 3.09561 17.9104 1.85185 19.4444 1.85185H36.1111C37.6451 1.85185 38.8889 3.09561 38.8889 4.62963V8.33333H37.037V4.62963C37.037 4.11829 36.6224 3.7037 36.1111 3.7037H19.4444C18.9331 3.7037 18.5185 4.11829 18.5185 4.62963V8.33333H16.6667V4.62963ZM35.1852 8.33333H20.3704V5.55556H35.1852V8.33333ZM51.8519 47.2222C51.8519 47.7336 51.4373 48.1481 50.9259 48.1481H4.62963C4.11829 48.1481 3.7037 47.7336 3.7037 47.2222V34.6544L24.0741 37.4638V39.8148C24.0741 41.3488 25.3178 42.5926 26.8519 42.5926H28.7037C30.2377 42.5926 31.4815 41.3488 31.4815 39.8148V37.4638L51.8519 34.6544V47.2222ZM29.6296 39.8148C29.6296 40.3262 29.215 40.7407 28.7037 40.7407H26.8519C26.3405 40.7407 25.9259 40.3262 25.9259 39.8148V34.2593C25.9259 33.7479 26.3405 33.3333 26.8519 33.3333H28.7037C29.215 33.3333 29.6296 33.7479 29.6296 34.2593V39.8148ZM53.7037 31.722C53.7042 32.1836 53.3646 32.5751 52.9075 32.6398L52.6507 32.6751L31.4815 35.5943V34.2593C31.4815 32.7252 30.2377 31.4815 28.7037 31.4815H26.8519C25.3178 31.4815 24.0741 32.7252 24.0741 34.2593V35.5943L2.64893 32.6398C2.19184 32.5756 1.8514 32.1841 1.85185 31.722V11.1111C1.85185 10.5998 2.26644 10.1852 2.77778 10.1852H52.7778C53.2891 10.1852 53.7037 10.5998 53.7037 11.1111V31.722Z" fill="#474747"/>
</svg>
